<svg width="26" height="25" viewBox="0 0 26 25" fill="none" xmlns="http://www.w3.org/2000/svg">
<path d="M24.9024 2.70399C24.6001 1.27908 23.4577 0.232422 22.013 0.0546876C21.9508 0.0470921 21.8915 0.0182292 21.8292 0C15.607 0 9.38631 0 3.16409 0C3.01522 0.031901 2.86484 0.065321 2.71597 0.0972221C1.13155 0.439019 0.0104547 1.77431 0.00741652 3.38607C-0.00169806 9.46853 -0.00321716 15.551 0.00741652 21.6319C0.0104547 23.3652 1.29865 24.7597 3.03042 24.9633C3.17625 24.98 3.32208 24.9982 3.46791 24.9982C9.48505 24.9998 15.5022 25.0013 21.5193 24.9982C23.1357 24.9982 24.4755 23.9774 24.8705 22.4538C24.9236 22.2517 24.9586 22.0436 25.0026 21.84C25.0026 15.6178 25.0026 9.39713 25.0026 3.17491C24.9707 3.01693 24.9358 2.86046 24.9024 2.70399ZM20.4453 21.7018C20.4347 21.7033 20.4256 21.714 20.4165 21.7216C20.1172 21.7216 19.8164 21.7216 19.5172 21.7216C19.4579 21.7124 19.4002 21.7018 19.341 21.6942C18.6741 21.6183 18.0041 21.5712 17.3433 21.4633C15.5007 21.164 13.7613 20.5503 12.1268 19.6495C9.53822 18.2246 7.44947 16.2619 5.87416 13.76C4.50242 11.5801 3.67907 9.20876 3.39196 6.6506C3.3479 6.26475 3.31905 5.87738 3.28411 5.49153C3.28411 5.19227 3.28411 4.89149 3.28411 4.59223C3.3707 4.22461 3.51804 3.89344 3.82034 3.64431C4.10593 3.40885 4.43558 3.29948 4.79864 3.29796C5.90151 3.29492 7.00589 3.29036 8.10876 3.29796C8.96553 3.30403 9.58987 3.90104 9.61722 4.75781C9.65216 5.87738 9.80558 6.97569 10.1428 8.04665C10.316 8.59656 10.1869 9.0842 9.82229 9.53841C9.30884 10.1795 8.82577 10.8433 8.33814 11.5041C8.30472 11.5482 8.30776 11.6515 8.33662 11.7062C9.42429 13.7873 10.9905 15.3991 13.0489 16.5399C13.336 16.6994 13.5091 16.6918 13.7583 16.4883C14.3583 16.0006 14.9796 15.5404 15.6009 15.0801C15.9686 14.8066 16.3893 14.7383 16.8314 14.8401C17.3904 14.9692 17.9419 15.1439 18.507 15.2365C19.0614 15.3277 19.6265 15.355 20.1886 15.3839C20.9269 15.4234 21.4646 15.8092 21.653 16.4898C21.6971 16.6493 21.7092 16.8209 21.7107 16.9865C21.7153 18.0301 21.7001 19.0738 21.7168 20.1159C21.729 20.9666 21.173 21.597 20.4453 21.7018Z" fill="white"/>
</svg>
