<svg width="66" height="60" viewBox="0 0 66 60" fill="none" xmlns="http://www.w3.org/2000/svg">
<path fill-rule="evenodd" clip-rule="evenodd" d="M1.50094 24.1449L12.3594 5.35897C14.3571 1.90018 17.649 0.000732422 21.6474 0.000732422H43.3612C47.3597 0.000732422 50.6484 1.90018 52.6492 5.35897L63.5045 24.1449C65.5021 27.6037 65.5021 31.3994 63.5045 34.8582L52.646 53.6441C50.6484 57.1029 47.3565 59.0023 43.358 59.0023H21.6442C17.6458 59.0023 14.3571 57.1029 12.3562 53.6441L1.49773 34.8582C-0.499895 31.3994 -0.499895 27.6037 1.49773 24.1449H1.50094Z" fill="#EE3147"/>
<path d="M41.2319 23.9203L42.1954 23.7182C42.2275 23.7118 42.2596 23.7246 42.2789 23.7535L43.8686 26.0379C43.8847 26.0604 43.9007 26.0797 43.92 26.1021L45.2721 27.5139C45.4873 27.7385 45.7667 27.8508 46.0493 27.8508C46.3319 27.8508 46.6113 27.7385 46.8265 27.5139L49.4022 24.8219C49.611 24.6037 49.7234 24.315 49.7234 24.0102C49.7234 23.7053 49.6078 23.4166 49.4022 23.1984L48.0502 21.7867C48.0309 21.7674 48.0116 21.7481 47.9891 21.7321L45.8887 20.1343C45.9626 19.7974 45.8727 19.4316 45.6222 19.1717L45.0633 18.5877C44.8674 18.3824 44.5463 18.3824 44.3504 18.5877C44.1545 18.7931 44.1545 19.1268 44.3504 19.3321L44.8963 19.9032L44.8835 19.9193L42.2564 22.6658C42.1697 22.6626 42.0797 22.6658 41.993 22.685L41.0295 22.8872C40.702 22.9578 40.3647 22.8808 40.095 22.6882C40.0918 22.6882 40.0918 22.685 40.0885 22.6818C40.0596 22.6626 40.0339 22.6401 40.0083 22.6177C40.005 22.6144 40.0018 22.6112 39.9986 22.608C39.9729 22.5856 39.9504 22.5631 39.928 22.5407L37.4422 19.945C37.2944 19.7909 37.2944 19.5407 37.4422 19.3899L38.9195 17.8466C39.4526 17.2883 39.4559 16.3803 38.9227 15.822C37.8308 14.6798 36.1928 14.3268 34.7669 14.9044L34.6288 14.76C36.3727 13.406 38.8392 13.5728 40.4033 15.2092L42.9116 17.8305C43.1075 18.0359 43.4286 18.0359 43.6245 17.8305C43.8204 17.6252 43.8204 17.2915 43.6245 17.0862L41.1163 14.4648C39.0769 12.3343 35.7978 12.2349 33.646 14.2402C33.5176 14.3621 33.4405 14.5322 33.4341 14.7151C33.4276 14.8947 33.4951 15.0712 33.6171 15.1995L34.2305 15.8413C34.4168 16.037 34.7059 16.0883 34.9467 15.9728C36.0419 15.437 37.3522 15.6744 38.2065 16.5696C38.3446 16.714 38.3446 16.9578 38.2033 17.1054L36.726 18.6487C36.2153 19.1845 36.1896 20.0348 36.6425 20.6027L32.4642 24.7706L20.7771 12.5621C20.7578 12.5397 20.7353 12.5204 20.7128 12.5012C20.7096 12.498 20.7064 12.4948 20.7 12.4915C20.6807 12.4755 20.6614 12.4627 20.6422 12.4466H20.639C20.5041 12.3536 20.3435 12.3022 20.1765 12.3022C20.0095 12.3022 19.8521 12.3536 19.714 12.4466C19.714 12.4466 19.714 12.4466 19.7108 12.4466C19.6915 12.4595 19.6723 12.4755 19.653 12.4915C19.6498 12.4948 19.6466 12.498 19.6434 12.5012C19.6209 12.5204 19.6016 12.5397 19.5791 12.5621L16.2615 16.0273C15.9339 16.3707 15.9339 16.9289 16.2615 17.2723L17.9926 19.0787L20.321 21.5107C20.5169 21.7161 20.8381 21.7161 21.034 21.5107C21.2299 21.3054 21.2299 20.9717 21.034 20.7663L19.0621 18.7065L20.0801 17.6444C20.2761 17.4391 20.2761 17.1054 20.0801 16.9001C19.8842 16.6947 19.5631 16.6947 19.3672 16.9001L18.3491 17.9653L17.0933 16.653L18.94 14.7215L46.6499 43.6688L44.8032 45.6003L43.5475 44.288L44.5655 43.2228C44.7614 43.0175 44.7614 42.6838 44.5655 42.4784C44.3696 42.2731 44.0485 42.2731 43.8526 42.4784L42.8345 43.5437L37.4261 37.8934L38.4442 36.8282C38.6401 36.6229 38.6401 36.2892 38.4442 36.0838C38.2483 35.8785 37.9271 35.8785 37.7312 36.0838L36.7131 37.1491L31.3048 31.4989L32.3228 30.4368C32.5188 30.2315 32.5188 29.8978 32.3228 29.6925C32.1269 29.4871 31.8058 29.4871 31.6099 29.6925L30.5918 30.7577L25.1834 25.1075L26.2015 24.0422C26.3974 23.8369 26.3974 23.5032 26.2015 23.2979C26.0056 23.0925 25.6844 23.0925 25.4885 23.2979L24.4704 24.3631L22.476 22.2808C22.2801 22.0754 21.9589 22.0754 21.763 22.2808C21.5671 22.4861 21.5671 22.8198 21.763 23.0251L27.8458 29.3812L15.7059 41.4934C15.4265 41.7726 15.2691 42.1512 15.2659 42.5554C15.2627 42.9597 15.4104 43.3415 15.6834 43.6271L17.7549 45.7928C18.0247 46.0752 18.3844 46.2292 18.7634 46.2292C19.1038 46.2292 19.4346 46.1009 19.6915 45.8699C19.7269 45.8378 19.7622 45.8025 19.7975 45.7672L31.3915 33.0839L44.2058 46.4698C44.3696 46.6399 44.5848 46.7265 44.8032 46.7265C45.0184 46.7265 45.2336 46.6399 45.4006 46.4698L48.7182 43.0046C49.0458 42.6613 49.0458 42.103 48.7182 41.7597L35.7978 28.2615L39.8894 23.7856C40.3005 23.9749 40.7662 24.0294 41.2222 23.9332L41.2319 23.9203ZM45.2946 20.9813L47.3661 22.5567L48.6925 23.9396C48.715 23.962 48.7182 23.9877 48.7182 24.007C48.7182 24.0262 48.715 24.0519 48.6925 24.0743L46.1168 26.7663C46.0814 26.8016 46.0236 26.8016 45.9883 26.7663L44.6619 25.3802L43.1556 23.2177L45.2946 20.9813ZM16.4093 42.8603C16.3386 42.7865 16.2969 42.6934 16.2872 42.5907C16.2872 42.5747 16.2872 42.5619 16.2872 42.5458C16.2872 42.4271 16.3354 42.3148 16.4157 42.2346L26.6832 31.9898L26.9016 32.2176L16.5217 42.979L16.406 42.8603H16.4093ZM17.6522 44.1597L17.2379 43.7266L27.6178 32.9652L27.955 33.3181L17.6522 44.1597ZM19.0813 45.0196C19.0203 45.0838 18.9464 45.1287 18.8629 45.1447C18.834 45.1511 18.8083 45.1543 18.7762 45.1543C18.6638 45.1543 18.561 45.1094 18.4808 45.026L18.3651 44.9073L28.6648 34.0657L28.8832 34.2935L19.0781 45.0196H19.0813ZM29.5865 33.5299L27.4187 31.2646L28.5781 30.1096L30.6945 32.3202L29.5898 33.5299H29.5865ZM47.8992 42.3661L47.3789 42.9084L19.6691 13.9643L20.1893 13.422L32.1077 25.8711L32.8945 26.6925L47.896 42.3661H47.8992ZM35.0977 27.501L33.1868 25.5053L37.3587 21.3407L37.834 21.838L39.0801 23.1374L35.0945 27.4978L35.0977 27.501Z" fill="#FEFEFE"/>
</svg>
