<svg width="66" height="59" viewBox="0 0 66 59" fill="none" xmlns="http://www.w3.org/2000/svg">
<path fill-rule="evenodd" clip-rule="evenodd" d="M1.50064 24.1443L12.3585 5.35793C14.3571 1.89959 17.6486 0.00195312 21.6459 0.00195312H43.3599C47.3572 0.00195312 50.6486 1.89959 52.6473 5.35793L63.5035 24.1443C65.5021 27.6027 65.5021 31.3996 63.5035 34.8579L52.6456 53.6443C50.647 57.1027 47.3555 59.0003 43.3582 59.0003H21.6442C17.6469 59.0003 14.3555 57.1027 12.3568 53.6443L1.49899 34.8579C-0.499663 31.3996 -0.499663 27.6027 1.49899 24.1443H1.50064Z" fill="#EE3147"/>
<path fill-rule="evenodd" clip-rule="evenodd" d="M49.2218 20.4283H43.8144C43.8144 20.1508 43.5896 19.9246 43.3102 19.9246C43.0325 19.9246 42.806 20.1492 42.806 20.4283H20.2836C20.0058 20.4283 19.7794 20.6529 19.7794 20.932V36.1643C19.5016 36.1643 19.2751 36.3889 19.2751 36.668C19.2751 36.9454 19.5 37.1717 19.7794 37.1717V42.934C19.7794 43.2114 20.0058 43.4377 20.2836 43.4377H49.2202C49.4979 43.4377 49.7244 43.2131 49.7244 42.934V20.932C49.7244 20.6545 49.4996 20.4283 49.2202 20.4283H49.2218ZM48.7176 42.4302H20.7878V21.4357H48.7176V42.4302Z" fill="#FEFEFE"/>
<path fill-rule="evenodd" clip-rule="evenodd" d="M46.8249 33.4408C46.5472 33.4408 46.3207 33.6655 46.3207 33.9446V36.5837L38.8915 29.961C38.6997 29.7909 38.412 29.7909 38.2203 29.961L33.6345 34.0486L30.2571 31.0378C30.0653 30.8677 29.7777 30.8677 29.5859 31.0378L26.7475 33.568C26.5392 33.753 26.521 34.0717 26.7061 34.2782C26.8913 34.4863 27.2103 34.5044 27.417 34.3178L29.9198 32.0866L38.5393 39.7696H23.1833V38.0916L25.8895 35.6787C26.0978 35.4937 26.116 35.175 25.9308 34.9685C25.7457 34.7604 25.4266 34.7439 25.22 34.9289L23.1849 36.7439V27.8487C23.1849 27.5712 22.9601 27.345 22.6807 27.345C22.403 27.345 22.1765 27.5696 22.1765 27.8487V37.8687V40.275C22.1765 40.5524 22.4013 40.7787 22.6807 40.7787H46.8232C47.101 40.7787 47.3274 40.5541 47.3274 40.275V37.7068V33.9429C47.3274 33.6655 47.101 33.4392 46.8232 33.4392L46.8249 33.4408ZM46.3207 39.7712H40.0553L34.3916 34.7224L38.5559 31.0098L46.3207 37.9314V39.7696V39.7712Z" fill="#FEFEFE"/>
<path fill-rule="evenodd" clip-rule="evenodd" d="M46.8249 23.084H22.6824C22.4047 23.084 22.1782 23.3102 22.1782 23.5877V25.8355C22.1782 26.1129 22.4031 26.3392 22.6824 26.3392C22.9602 26.3392 23.1866 26.1146 23.1866 25.8355V24.0914H46.3224V31.9313C46.3224 32.2088 46.5489 32.4351 46.8266 32.4351C47.1043 32.4351 47.3308 32.2105 47.3308 31.9313V23.5877C47.3308 23.3102 47.106 23.084 46.8266 23.084H46.8249Z" fill="#FEFEFE"/>
<path fill-rule="evenodd" clip-rule="evenodd" d="M43.3121 17.5894C43.0343 17.5894 42.8079 17.814 42.8079 18.0931V18.9073C42.8079 19.1848 43.0327 19.411 43.3121 19.411C43.5898 19.411 43.8163 19.1864 43.8163 18.9073V18.0931C43.8163 17.8156 43.5914 17.5894 43.3121 17.5894Z" fill="#FEFEFE"/>
<path fill-rule="evenodd" clip-rule="evenodd" d="M43.3119 15.5645H42.8077C42.5299 15.5645 42.3035 15.7891 42.3035 16.0682C42.3035 16.3456 42.5283 16.5719 42.8077 16.5719C42.8077 16.8494 43.0325 17.0756 43.3119 17.0756C43.5896 17.0756 43.8161 16.851 43.8161 16.5719V16.0682C43.8161 15.7907 43.5913 15.5645 43.3119 15.5645Z" fill="#FEFEFE"/>
<path fill-rule="evenodd" clip-rule="evenodd" d="M30.0258 15.5645H29.067C28.7892 15.5645 28.5627 15.7891 28.5627 16.0682C28.5627 16.3456 28.7876 16.5719 29.067 16.5719H30.0258C30.3035 16.5719 30.53 16.3473 30.53 16.0682C30.53 15.7907 30.3035 15.5645 30.0258 15.5645Z" fill="#FEFEFE"/>
<path fill-rule="evenodd" clip-rule="evenodd" d="M21.7797 15.5645H20.8209C20.5431 15.5645 20.3167 15.7891 20.3167 16.0682C20.3167 16.3456 20.5431 16.5719 20.8209 16.5719H21.7797C22.0574 16.5719 22.2839 16.3473 22.2839 16.0682C22.2839 15.7907 22.0574 15.5645 21.7797 15.5645Z" fill="#FEFEFE"/>
<path fill-rule="evenodd" clip-rule="evenodd" d="M27.2765 15.5645H26.3177C26.04 15.5645 25.8135 15.7891 25.8135 16.0682C25.8135 16.3456 26.0383 16.5719 26.3177 16.5719H27.2765C27.5542 16.5719 27.7807 16.3473 27.7807 16.0682C27.7807 15.7907 27.5559 15.5645 27.2765 15.5645Z" fill="#FEFEFE"/>
<path fill-rule="evenodd" clip-rule="evenodd" d="M24.5289 15.5645H23.5701C23.2924 15.5645 23.0659 15.7891 23.0659 16.0682C23.0659 16.3456 23.2907 16.5719 23.5701 16.5719H24.5289C24.8067 16.5719 25.0332 16.3473 25.0332 16.0682C25.0332 15.7907 24.8083 15.5645 24.5289 15.5645Z" fill="#FEFEFE"/>
<path fill-rule="evenodd" clip-rule="evenodd" d="M41.0192 15.5645H40.0604C39.7826 15.5645 39.5562 15.7891 39.5562 16.0682C39.5562 16.3456 39.781 16.5719 40.0604 16.5719H41.0192C41.2969 16.5719 41.5234 16.3473 41.5234 16.0682C41.5234 15.7907 41.2986 15.5645 41.0192 15.5645Z" fill="#FEFEFE"/>
<path fill-rule="evenodd" clip-rule="evenodd" d="M35.5224 15.5645H34.5635C34.2858 15.5645 34.0593 15.7891 34.0593 16.0682C34.0593 16.3456 34.2842 16.5719 34.5635 16.5719H35.5224C35.8001 16.5719 36.0266 16.3473 36.0266 16.0682C36.0266 15.7907 35.8017 15.5645 35.5224 15.5645Z" fill="#FEFEFE"/>
<path fill-rule="evenodd" clip-rule="evenodd" d="M38.2699 15.5645H37.3111C37.0334 15.5645 36.8069 15.7891 36.8069 16.0682C36.8069 16.3456 37.0317 16.5719 37.3111 16.5719H38.2699C38.5476 16.5719 38.7741 16.3473 38.7741 16.0682C38.7741 15.7907 38.5493 15.5645 38.2699 15.5645Z" fill="#FEFEFE"/>
<path fill-rule="evenodd" clip-rule="evenodd" d="M32.7731 15.5645H31.8143C31.5365 15.5645 31.3101 15.7891 31.3101 16.0682C31.3101 16.3456 31.5349 16.5719 31.8143 16.5719H32.7731C33.0508 16.5719 33.2773 16.3473 33.2773 16.0682C33.2773 15.7907 33.0525 15.5645 32.7731 15.5645Z" fill="#FEFEFE"/>
<path fill-rule="evenodd" clip-rule="evenodd" d="M19.0324 15.5645H18.0735C17.7958 15.5645 17.5693 15.7891 17.5693 16.0682C17.5693 16.3456 17.7942 16.5719 18.0735 16.5719H19.0324C19.3101 16.5719 19.5366 16.3473 19.5366 16.0682C19.5366 15.7907 19.3118 15.5645 19.0324 15.5645Z" fill="#FEFEFE"/>
<path fill-rule="evenodd" clip-rule="evenodd" d="M16.2831 15.5645H15.7789C15.5011 15.5645 15.2747 15.7891 15.2747 16.0682V16.5719C15.2747 16.8494 15.4995 17.0756 15.7789 17.0756C16.0566 17.0756 16.2831 16.851 16.2831 16.5719C16.5608 16.5719 16.7873 16.3473 16.7873 16.0682C16.7873 15.7907 16.5625 15.5645 16.2831 15.5645Z" fill="#FEFEFE"/>
<path fill-rule="evenodd" clip-rule="evenodd" d="M15.7806 32.7141C15.5028 32.7141 15.2764 32.9387 15.2764 33.2178V34.2451C15.2764 34.5226 15.5012 34.7488 15.7806 34.7488C16.0583 34.7488 16.2848 34.5226 16.2848 34.2451V33.2178C16.2848 32.9404 16.06 32.7141 15.7806 32.7141Z" fill="#FEFEFE"/>
<path fill-rule="evenodd" clip-rule="evenodd" d="M15.7806 17.9856C15.5028 17.9856 15.2764 18.2102 15.2764 18.4893V19.5166C15.2764 19.794 15.5012 20.0203 15.7806 20.0203C16.0583 20.0203 16.2848 19.7957 16.2848 19.5166V18.4893C16.2848 18.2119 16.06 17.9856 15.7806 17.9856Z" fill="#FEFEFE"/>
<path fill-rule="evenodd" clip-rule="evenodd" d="M15.7806 29.7695C15.5028 29.7695 15.2764 29.9941 15.2764 30.2733V31.3005C15.2764 31.578 15.5012 31.8042 15.7806 31.8042C16.0583 31.8042 16.2848 31.5796 16.2848 31.3005V30.2733C16.2848 29.9958 16.06 29.7695 15.7806 29.7695Z" fill="#FEFEFE"/>
<path fill-rule="evenodd" clip-rule="evenodd" d="M15.7806 23.8784C15.5028 23.8784 15.2764 24.103 15.2764 24.3821V25.4094C15.2764 25.6869 15.5012 25.9131 15.7806 25.9131C16.0583 25.9131 16.2848 25.6885 16.2848 25.4094V24.3821C16.2848 24.1047 16.06 23.8784 15.7806 23.8784Z" fill="#FEFEFE"/>
<path fill-rule="evenodd" clip-rule="evenodd" d="M15.7806 20.9319C15.5028 20.9319 15.2764 21.1565 15.2764 21.4356V22.4629C15.2764 22.7403 15.5012 22.9666 15.7806 22.9666C16.0583 22.9666 16.2848 22.742 16.2848 22.4629V21.4356C16.2848 21.1581 16.06 20.9319 15.7806 20.9319Z" fill="#FEFEFE"/>
<path fill-rule="evenodd" clip-rule="evenodd" d="M15.7806 26.823C15.5028 26.823 15.2764 27.0476 15.2764 27.3267V28.354C15.2764 28.6314 15.5012 28.8577 15.7806 28.8577C16.0583 28.8577 16.2848 28.6331 16.2848 28.354V27.3267C16.2848 27.0493 16.06 26.823 15.7806 26.823Z" fill="#FEFEFE"/>
<path fill-rule="evenodd" clip-rule="evenodd" d="M16.2831 36.1627C16.2831 35.8852 16.0582 35.6589 15.7789 35.6589C15.5011 35.6589 15.2747 35.8835 15.2747 36.1627V36.6664C15.2747 36.9438 15.4995 37.1701 15.7789 37.1701H16.2831C16.5608 37.1701 16.7873 36.9455 16.7873 36.6664C16.7873 36.3889 16.5625 36.1627 16.2831 36.1627Z" fill="#FEFEFE"/>
<path fill-rule="evenodd" clip-rule="evenodd" d="M18.4023 36.1626H17.6634C17.3857 36.1626 17.1592 36.3872 17.1592 36.6663C17.1592 36.9438 17.384 37.17 17.6634 37.17H18.4023C18.6801 37.17 18.9066 36.9454 18.9066 36.6663C18.9066 36.3889 18.6817 36.1626 18.4023 36.1626Z" fill="#FEFEFE"/>
<path fill-rule="evenodd" clip-rule="evenodd" d="M33.699 25.1616C32.3682 25.1616 31.2854 26.2434 31.2854 27.5729C31.2854 28.9024 32.3682 29.9841 33.699 29.9841C35.0298 29.9841 36.1126 28.9024 36.1126 27.5729C36.1126 26.2434 35.0298 25.1616 33.699 25.1616ZM33.699 28.9767C32.9237 28.9767 32.2938 28.3458 32.2938 27.5712C32.2938 26.7967 32.9237 26.1674 33.699 26.1674C34.4743 26.1674 35.1058 26.7967 35.1058 27.5712C35.1058 28.3458 34.4743 28.9767 33.699 28.9767Z" fill="#FEFEFE"/>
</svg>
