<svg width="65" height="59" viewBox="0 0 65 59" fill="none" xmlns="http://www.w3.org/2000/svg">
<path fill-rule="evenodd" clip-rule="evenodd" d="M1.50008 24.1433L12.3573 5.35684C14.3559 1.89866 17.6469 0 21.6443 0H43.3575C47.3552 0 50.6462 1.89827 52.6453 5.35684L63.5021 24.1433C65.5007 27.6023 65.5007 31.3984 63.5021 34.8566L52.6449 53.6431C50.6462 57.1013 47.3552 58.9999 43.3578 58.9999H21.6447C17.6469 58.9999 14.3559 57.1017 12.3577 53.6431L1.50047 34.8566C-0.498205 31.3976 -0.498205 27.6015 1.50047 24.1433H1.50008Z" fill="#EE3147"/>
<path d="M20.6394 31.8354C21.7846 31.8354 22.7168 30.9041 22.7168 29.7596C22.7168 28.6155 21.7846 27.6842 20.6394 27.6842C19.4934 27.6842 18.5612 28.6155 18.5612 29.7596C18.5612 30.9041 19.4934 31.8354 20.6394 31.8354ZM20.6394 28.6933C21.2273 28.6933 21.7067 29.1723 21.7067 29.7596C21.7067 30.3478 21.2273 30.8267 20.6394 30.8267C20.0499 30.8267 19.5713 30.3478 19.5713 29.7596C19.5713 29.1723 20.0495 28.6933 20.6394 28.6933ZM26.6474 30.3752C26.6474 29.5654 25.9883 28.9066 25.1778 28.9066C24.3673 28.9066 23.7078 29.5654 23.7078 30.3752C23.7078 31.1849 24.3673 31.8437 25.1778 31.8437C25.9883 31.8437 26.6474 31.1849 26.6474 30.3752ZM24.7179 30.3752C24.7179 30.1218 24.9246 29.9153 25.1782 29.9153C25.4322 29.9153 25.6377 30.1214 25.6377 30.3752C25.6377 30.6285 25.4318 30.835 25.1782 30.835C24.9242 30.835 24.7179 30.6285 24.7179 30.3752ZM24.3987 39.3069H27.1001C27.3792 39.3069 27.605 39.0806 27.605 38.803C27.605 38.5238 27.3792 38.2982 27.1001 38.2982H24.3987C24.1196 38.2982 23.8934 38.5238 23.8934 38.803C23.8934 39.081 24.12 39.3069 24.3987 39.3069ZM37.0113 38.803C37.0113 38.5234 36.7855 38.2982 36.5064 38.2982H28.5196C28.2406 38.2982 28.0148 38.5234 28.0148 38.803C28.0148 39.081 28.2406 39.3069 28.5196 39.3069H36.5064C36.7855 39.3069 37.0113 39.0806 37.0113 38.803ZM40.6039 38.2982H38.1589C37.8798 38.2982 37.6536 38.5234 37.6536 38.803C37.6536 39.081 37.8802 39.3069 38.1589 39.3069H40.6039C40.883 39.3069 41.1092 39.0806 41.1092 38.803C41.1092 38.5234 40.8826 38.2982 40.6039 38.2982ZM28.2481 41.3287C28.2481 41.0499 28.0224 40.824 27.7429 40.824H24.3987C24.1196 40.824 23.8934 41.0503 23.8934 41.3287C23.8934 41.6071 24.12 41.8327 24.3987 41.8327H27.7429C28.0224 41.8327 28.2481 41.6071 28.2481 41.3287ZM29.7177 40.824C29.4379 40.824 29.2129 41.0503 29.2129 41.3287C29.2129 41.6071 29.4383 41.8327 29.7177 41.8327H35.4284C35.7074 41.8327 35.9332 41.6071 35.9332 41.3287C35.9332 41.0499 35.7074 40.824 35.4284 40.824H29.7177ZM40.6039 40.824H37.3833C37.1047 40.824 36.8785 41.0503 36.8785 41.3287C36.8785 41.6071 37.1051 41.8327 37.3833 41.8327H40.6039C40.883 41.8327 41.1092 41.6071 41.1092 41.3287C41.1092 41.0499 40.8826 40.824 40.6039 40.824ZM24.3987 43.3501C24.1196 43.3501 23.8934 43.5756 23.8934 43.854C23.8934 44.1332 24.12 44.3588 24.3987 44.3588H26.459C26.7376 44.3588 26.9638 44.1332 26.9638 43.854C26.9638 43.5756 26.7372 43.3501 26.459 43.3501H24.3987ZM27.9341 44.3588H37.0037C37.2827 44.3588 37.5085 44.1332 37.5085 43.854C37.5085 43.5756 37.2827 43.3501 37.0037 43.3501H27.9341C27.6555 43.3501 27.4293 43.5756 27.4293 43.854C27.4293 44.1332 27.6559 44.3588 27.9341 44.3588ZM40.6039 43.3501H38.7086C38.4296 43.3501 38.2038 43.5756 38.2038 43.854C38.2038 44.1332 38.4296 44.3588 38.7086 44.3588H40.6039C40.883 44.3588 41.1092 44.1332 41.1092 43.854C41.1092 43.5756 40.8826 43.3501 40.6039 43.3501ZM47.527 24.6939H47.323V20.6876C47.323 20.2246 46.945 19.8465 46.4815 19.8465H44.4455V13.3035C44.4455 12.7459 43.9919 12.292 43.4338 12.292H21.5692C21.0115 12.292 20.5575 12.7459 20.5575 13.3035V19.8469H18.5215C18.058 19.8469 17.68 20.2246 17.68 20.6876V24.6939H17.476C16.2632 24.6939 15.2766 25.6791 15.2766 26.8908V34.1419C15.2766 34.4207 15.5032 34.6467 15.7818 34.6467C16.0609 34.6467 16.2863 34.4203 16.2863 34.1419V26.8904C16.2863 26.2359 16.8197 25.7034 17.4756 25.7034H47.5266C48.1821 25.7034 48.7155 26.2359 48.7155 26.8904V39.6369C48.7155 40.2918 48.1821 40.8244 47.5266 40.8244H46.4923V35.9055C46.4923 35.4413 46.1142 35.0644 45.6503 35.0644H19.3523C18.8884 35.0644 18.5104 35.4417 18.5104 35.9055V40.8244H17.476C16.8201 40.8244 16.2867 40.2918 16.2867 39.6369V36.5128C16.2867 36.2344 16.0613 36.0088 15.7822 36.0088C15.5032 36.0088 15.277 36.2344 15.277 36.5128V39.6369C15.277 40.8486 16.2636 41.8331 17.4764 41.8331H20.5575V45.844C20.5575 46.321 20.9455 46.709 21.4233 46.709H43.5805C44.0583 46.709 44.4463 46.3206 44.4463 45.844V44.7865C44.4463 44.5081 44.2205 44.2825 43.9418 44.2825C43.6628 44.2825 43.4366 44.5081 43.4366 44.7865V45.6995H21.5684V36.0735H43.4366V42.4836C43.4366 42.7619 43.6632 42.9875 43.9418 42.9875C44.2205 42.9875 44.4463 42.7619 44.4463 42.4836V41.8331H47.5274C48.7394 41.8331 49.7268 40.8482 49.7268 39.6369V26.8904C49.7268 25.6795 48.7394 24.6943 47.5274 24.6943L47.527 24.6939ZM20.5571 24.6939H18.6896V20.856H20.5571V24.6939ZM43.4358 24.6776H21.5676L21.5692 13.3015H33.7171L43.4358 13.3035V24.6776ZM46.313 24.6939H44.4459V20.856H46.313V24.6939ZM20.5571 40.824H19.5208V36.0735H20.5571V40.824ZM45.4814 40.824H44.4455V36.0735H45.4814V40.824Z" fill="#FEFEFE"/>
</svg>
