<svg width="66" height="59" viewBox="0 0 66 59" fill="none" xmlns="http://www.w3.org/2000/svg">
<path fill-rule="evenodd" clip-rule="evenodd" d="M1.50295 24.1434L12.3596 5.35873C14.3597 1.8984 17.6487 0 21.6487 0H43.3621C47.358 0 50.6512 1.8984 52.6512 5.35873L63.5079 24.1434C65.5079 27.6037 65.5079 31.3963 63.5079 34.8567L52.6512 53.6413C50.6512 57.1016 47.3622 59 43.3621 59H21.6487C17.6528 59 14.3597 57.1016 12.3596 53.6413L1.50295 34.8567C-0.497077 31.3963 -0.497077 27.6037 1.50295 24.1434Z" fill="#EE3147"/>
<path d="M45.7613 36.6012C45.57 36.5223 45.3538 36.568 45.2083 36.7092L39.6822 42.2466C39.5367 42.392 39.4951 42.608 39.5741 42.7991C39.6531 42.9901 39.8361 43.1106 40.0398 43.1106H45.5659C45.8444 43.1106 46.0731 42.8821 46.0731 42.6038V37.0665C46.0731 36.8629 45.9484 36.676 45.7613 36.5971V36.6012ZM41.2623 42.1012L45.0627 38.2919V42.1012H41.2623Z" fill="#FEFEFE"/>
<path d="M49.4162 28.4801C49.2291 28.4012 49.0087 28.4469 48.8674 28.5922L47.3538 30.1085V19.7898C47.3538 19.5115 47.1293 19.283 46.8465 19.283H42.9629L44.3725 17.8706L45.7322 16.5081C46.0232 16.2173 46.1854 15.8268 46.1854 15.4156C46.1854 15.0043 46.0232 14.6139 45.7322 14.3231L44.1604 12.7487C43.8694 12.4579 43.4827 12.2959 43.071 12.2959C42.6594 12.2959 42.2727 12.4579 41.9816 12.7487L38.9795 15.7562L35.4618 19.283H19.7651V14.2691C19.7651 13.9908 19.5406 13.7623 19.2578 13.7623C17.0665 13.7623 15.2827 15.5485 15.2827 17.7502V39.2765C15.2827 39.3139 15.2869 39.3512 15.2952 39.3845C15.3659 40.315 15.7692 41.1832 16.4387 41.8395C17.158 42.5416 18.106 42.9279 19.1123 42.9279H34.5636L31.653 45.844C31.5075 45.9894 31.4659 46.2054 31.5449 46.3965C31.6239 46.5876 31.8068 46.7081 32.0106 46.7081H49.2249C49.5035 46.7081 49.7322 46.4796 49.7322 46.2013V28.9495C49.7322 28.7459 49.6075 28.559 49.4204 28.4801H49.4162ZM42.6926 13.4632C42.9005 13.2555 43.2373 13.2555 43.4411 13.4632L45.0128 15.0376C45.2207 15.2453 45.2207 15.5818 45.0128 15.7895L44.0107 16.7947L41.6905 14.4685L42.6926 13.4632ZM40.9754 15.183L43.2956 17.5092L42.3683 18.4397L40.0481 16.1135L40.9754 15.183ZM48.7177 34.6447H47.7863C47.5077 34.6447 47.279 34.8732 47.279 35.1515C47.279 35.4298 47.5035 35.6583 47.7863 35.6583H48.7177V37.187H47.7863C47.5077 37.187 47.279 37.4155 47.279 37.6938C47.279 37.9721 47.5035 38.2006 47.7863 38.2006H48.7177V39.7293H47.7863C47.5077 39.7293 47.279 39.9577 47.279 40.2361C47.279 40.5144 47.5035 40.7428 47.7863 40.7428H48.7177V42.2715H47.7863C47.5077 42.2715 47.279 42.5 47.279 42.7783C47.279 43.0567 47.5035 43.2851 47.7863 43.2851H48.7177V45.7028H33.2289L38.335 40.585C38.5304 40.3856 38.5304 40.0657 38.335 39.8663C38.3142 39.8456 38.2893 39.8248 38.2643 39.8082C38.0689 39.6711 37.7944 39.6919 37.6198 39.8663L35.5699 41.9184H19.1081C17.5738 41.9184 16.3389 40.7179 16.2931 39.1851C16.2973 39.0895 16.3014 38.994 16.3139 38.8984C16.3181 38.8528 16.3264 38.8071 16.3347 38.7655C16.3347 38.7614 16.3347 38.7572 16.3389 38.7489C16.3472 38.7115 16.3555 38.67 16.3638 38.6326C16.368 38.6201 16.368 38.6118 16.3721 38.5994C16.3804 38.5661 16.3888 38.5329 16.3971 38.4997C16.4012 38.483 16.4054 38.4623 16.4137 38.4457C16.422 38.4207 16.4303 38.3958 16.4387 38.3667C16.447 38.3418 16.4553 38.3169 16.4636 38.292C16.4678 38.2753 16.4761 38.2587 16.4802 38.238C16.4927 38.2047 16.5052 38.1715 16.5177 38.1383C16.5218 38.1299 16.526 38.1216 16.5301 38.1092C16.5468 38.0676 16.5676 38.0303 16.5842 37.9887C16.5842 37.9887 16.5842 37.9846 16.5883 37.9846C16.9834 37.1662 17.7443 36.5514 18.6591 36.3645C18.6632 36.3645 18.6632 36.3645 18.6674 36.3645C18.709 36.3562 18.7505 36.3479 18.7963 36.3396C18.8046 36.3396 18.8087 36.3354 18.8171 36.3354C18.8545 36.3312 18.8919 36.3271 18.9335 36.3188C18.946 36.3188 18.9543 36.3146 18.9668 36.3146C19.0042 36.3105 19.0416 36.3105 19.079 36.3063C19.0915 36.3063 19.104 36.3022 19.1164 36.3022C19.1663 36.298 19.2162 36.298 19.2661 36.298C19.5447 36.298 19.7734 36.0695 19.7734 35.7912V32.1149C19.7734 31.8366 19.5489 31.6081 19.2661 31.6081C18.9875 31.6081 18.7589 31.8366 18.7589 32.1149V35.3135C17.9065 35.4215 17.1123 35.8037 16.4886 36.4143C16.422 36.4808 16.3597 36.5473 16.3014 36.6137V17.7419C16.3014 16.2755 17.3659 15.0542 18.763 14.8133V30.0877C18.763 30.366 18.9875 30.5945 19.2703 30.5945C19.5489 30.5945 19.7776 30.366 19.7776 30.0877V20.2924H34.4638L31.6696 23.0964C31.4742 23.2958 31.4742 23.6157 31.6696 23.8109C31.8692 24.0103 32.1894 24.0103 32.3848 23.8109L36.0439 20.1429L39.3537 16.8238L41.6739 19.1501L41.3995 19.4243L31.2039 29.6432L28.8837 27.317L30.8921 25.3022C31.0875 25.1028 31.0875 24.783 30.8921 24.5877C30.6925 24.3883 30.3723 24.3883 30.1769 24.5877L27.8109 26.9597C27.7985 26.9722 27.786 26.9846 27.7735 27.0012C27.7694 27.0054 27.7652 27.0096 27.7652 27.0137C27.7569 27.022 27.7527 27.0345 27.7444 27.0428C27.7403 27.0469 27.7361 27.0552 27.7319 27.0594C27.7278 27.0677 27.7195 27.0802 27.7153 27.0885C27.7112 27.0968 27.7112 27.1009 27.707 27.1093C27.7028 27.1176 27.6987 27.13 27.6945 27.1383C27.6945 27.1425 27.6904 27.1466 27.6904 27.1466L26.7049 29.9423L26.0355 31.849C26.0271 31.8739 26.0188 31.8989 26.0147 31.9279H24.3348C24.0562 31.9279 23.8275 32.1564 23.8275 32.4347C23.8275 32.7131 24.0521 32.9415 24.3348 32.9415H38.3391C38.6177 32.9415 38.8464 32.7131 38.8464 32.4347C38.8464 32.1564 38.6219 31.9279 38.3391 31.9279H28.2933L31.3786 30.8354C31.3827 30.8354 31.3827 30.8354 31.3869 30.8313C31.3994 30.8271 31.4118 30.823 31.4243 30.8147C31.4285 30.8105 31.4326 30.8105 31.4368 30.8064C31.4492 30.8022 31.4617 30.7939 31.4742 30.7856C31.4784 30.7856 31.4825 30.7814 31.4867 30.7773C31.4991 30.769 31.5116 30.7607 31.5241 30.7524C31.5282 30.7482 31.5324 30.7482 31.5324 30.744C31.5449 30.7316 31.5615 30.7191 31.574 30.7067L41.9775 20.28H46.3684V31.1054L39.1333 38.3543C38.9379 38.5537 38.9379 38.8735 39.1333 39.0688C39.1458 39.0812 39.1583 39.0937 39.1708 39.102C39.2622 39.1768 39.3787 39.2142 39.4909 39.2142C39.6032 39.2142 39.7155 39.1768 39.8111 39.102C39.8236 39.0937 39.8361 39.0812 39.8485 39.0688L48.7426 30.1542V34.6239L48.7177 34.6447ZM30.26 30.1583L28.813 30.6693L27.8484 29.7014L28.3598 28.2516L30.26 30.1583Z" fill="#FEFEFE"/>
</svg>
