<svg width="189" height="51" viewBox="0 0 189 51" fill="none" xmlns="http://www.w3.org/2000/svg">
<path d="M104.139 27.3661V23.9679H113.024V31.9906C112.163 32.8188 110.91 33.5447 109.268 34.1767C107.629 34.8037 105.967 35.1175 104.282 35.1175C102.143 35.1175 100.282 34.6776 98.6915 33.7929C97.1058 32.9081 95.9107 31.6395 95.1101 29.9966C94.3101 28.3538 93.9104 26.5611 93.9104 24.6276C93.9104 22.5302 94.3584 20.6674 95.2487 19.0342C96.1436 17.4049 97.4486 16.1509 99.1677 15.2797C100.482 14.6104 102.111 14.278 104.063 14.278C106.601 14.278 108.587 14.802 110.016 15.8507C111.44 16.904 112.359 18.3501 112.768 20.2044L108.653 20.9625C108.367 19.9749 107.825 19.193 107.03 18.6169C106.239 18.0459 105.249 17.7605 104.058 17.7605C102.258 17.7605 100.825 18.3224 99.7629 19.4502C98.7007 20.5787 98.1675 22.2492 98.1675 24.4637C98.1675 26.8556 98.7058 28.6483 99.7819 29.8417C100.863 31.0352 102.272 31.6344 104.02 31.6344C104.882 31.6344 105.749 31.4659 106.616 31.1335C107.487 30.8011 108.23 30.3941 108.853 29.9163V27.365H104.139L104.139 27.3661ZM115.094 34.7528V14.6443H123.793C125.979 14.6443 127.569 14.8269 128.56 15.187C129.555 15.5472 130.346 16.1888 130.94 17.1109C131.535 18.0375 131.836 19.0907 131.836 20.2796C131.836 21.7919 131.388 23.0368 130.488 24.0199C129.588 25.003 128.245 25.6209 126.455 25.8781C127.345 26.3881 128.078 26.95 128.655 27.5628C129.236 28.1762 130.017 29.2668 130.998 30.8305L133.493 34.7528H128.555L125.594 30.3624C124.532 28.8038 123.803 27.8206 123.408 27.413C123.017 27.0105 122.603 26.7295 122.165 26.5803C121.723 26.4305 121.027 26.3553 120.075 26.3553H119.237V34.7528H115.094H115.094ZM119.236 23.1538H122.293C124.274 23.1538 125.508 23.0695 126.003 22.9056C126.493 22.7416 126.884 22.4561 127.16 22.0536C127.441 21.6511 127.579 21.1457 127.579 20.5419C127.579 19.8629 127.393 19.3202 127.026 18.8985C126.66 18.4818 126.141 18.2195 125.474 18.1121C125.136 18.0652 124.131 18.042 122.46 18.042H119.236V23.1532V23.1538ZM133.115 24.8198C133.115 22.7699 133.429 21.0473 134.053 19.6526C134.515 18.6277 135.152 17.7056 135.957 16.891C136.762 16.0769 137.643 15.4731 138.6 15.0751C139.877 14.5459 141.348 14.2791 143.015 14.2791C146.033 14.2791 148.443 15.2012 150.258 17.0408C152.067 18.8849 152.972 21.4453 152.972 24.7265C152.972 27.9801 152.072 30.5263 150.277 32.3609C148.482 34.2005 146.077 35.118 143.072 35.118C140.029 35.118 137.605 34.2056 135.81 32.375C134.015 30.5495 133.115 28.0315 133.115 24.8204V24.8198ZM137.372 24.6841C137.372 26.9636 137.91 28.6907 138.982 29.8706C140.053 31.0453 141.415 31.635 143.062 31.635C144.715 31.635 146.067 31.0499 147.129 29.8841C148.186 28.7139 148.715 26.963 148.715 24.6276C148.715 22.3199 148.201 20.5973 147.167 19.4644C146.139 18.3269 144.772 17.7605 143.062 17.7605C141.358 17.7605 139.982 18.3365 138.939 19.483C137.895 20.6346 137.371 22.3663 137.371 24.6836L137.372 24.6841ZM154.441 14.6437H158.584V25.5406C158.584 27.2723 158.636 28.3911 158.736 28.9016C158.912 29.7253 159.327 30.3901 159.984 30.8865C160.646 31.3874 161.546 31.6355 162.689 31.6355C163.846 31.6355 164.722 31.4015 165.312 30.9283C165.902 30.4557 166.255 29.8802 166.374 29.1916C166.493 28.5036 166.555 27.3661 166.555 25.7747V14.6437H170.698V25.2173C170.698 27.6324 170.589 29.3408 170.365 30.3381C170.141 31.3348 169.732 32.1777 169.131 32.8657C168.536 33.5537 167.736 34.097 166.736 34.5041C165.732 34.9111 164.427 35.1169 162.812 35.1169C160.865 35.1169 159.389 34.897 158.384 34.4521C157.379 34.0071 156.584 33.4316 155.998 32.7204C155.412 32.0092 155.031 31.2692 154.846 30.4873C154.574 29.3357 154.441 27.6318 154.441 25.3806V14.6432L154.441 14.6437ZM173.319 34.7522V14.6437H179.943C182.453 14.6437 184.086 14.7415 184.848 14.9434C186.02 15.2475 187.001 15.9028 187.791 16.9141C188.582 17.9255 188.977 19.2315 188.977 20.8319C188.977 22.0678 188.748 23.1018 188.296 23.9447C187.839 24.787 187.263 25.4474 186.563 25.9296C185.863 26.4073 185.149 26.7256 184.425 26.8799C183.439 27.0721 182.015 27.1699 180.148 27.1699H177.463V34.7528H173.32L173.319 34.7522ZM177.462 18.042V23.7711H179.715C181.338 23.7711 182.42 23.6631 182.967 23.4528C183.515 23.242 183.943 22.9146 184.253 22.4607C184.563 22.0112 184.72 21.4917 184.72 20.893C184.72 20.1581 184.501 19.5543 184.067 19.0766C183.629 18.5994 183.082 18.2998 182.41 18.1777C181.92 18.0889 180.934 18.042 179.449 18.042H177.463H177.462Z" fill="#FEFEFE"/>
<path fill-rule="evenodd" clip-rule="evenodd" d="M25.456 14.6437H37.2985C39.2701 14.6437 40.7844 15.1254 41.8415 16.0854C42.8986 17.0447 43.4271 18.2336 43.4271 19.6521C43.4271 20.841 43.0504 21.8614 42.2935 22.7083C42.1152 22.9112 41.907 23.0989 41.6689 23.2708C39.8084 22.8796 37.8771 22.5856 35.9515 22.3798C36.2426 22.2973 36.4749 22.182 36.6457 22.0344C37.0316 21.6975 37.2266 21.2152 37.2266 20.5832C37.2266 19.9981 37.0316 19.5396 36.6457 19.2117C36.2604 18.8792 35.584 18.7153 34.6264 18.7153H31.8267V22.0689C29.5739 21.9683 27.4068 21.9841 25.4554 22.0988V14.6437H25.456ZM22.5838 48.9597C9.05494 40.9093 9.43511 28.0298 25.456 25.3445V34.7522H36.3702C36.8367 34.7522 37.7799 34.6584 39.2033 34.4758C40.2748 34.3401 41.0748 34.1202 41.608 33.8206C42.4603 33.3338 43.1367 32.6786 43.6313 31.8458C44.1219 31.0125 44.3692 30.0763 44.3692 29.0327C44.3692 27.7545 44.0212 26.6922 43.3311 25.8453C43.2344 25.7272 43.1303 25.6141 43.0188 25.5061C44.3232 25.7323 45.5804 26.0048 46.7675 26.3236V26.6221C46.7675 27.6098 46.963 28.7421 47.3535 30.0204C47.5968 30.8164 48.0443 31.5886 48.701 32.3377C49.3533 33.0862 50.0773 33.6623 50.8676 34.0693C51.6584 34.4764 52.6442 34.7483 53.8203 34.884C54.9964 35.0196 56.0817 35.0897 57.0773 35.0897C58.7963 35.0897 60.2727 34.8647 61.5012 34.4204C62.3823 34.0976 63.2248 33.5452 64.0295 32.7543C64.8341 31.9634 65.4247 31.0414 65.8009 29.9831C66.1776 28.9298 66.3679 27.8065 66.3679 26.6221V14.6443H60.0536V26.9082C60.0536 28.0219 59.7442 28.8829 59.1299 29.4873C58.5111 30.0956 57.6587 30.4003 56.5775 30.4003C55.4824 30.4003 54.6249 30.091 54.0061 29.4731C53.9123 29.3793 53.8255 29.2798 53.7455 29.1746C53.5701 29.0746 53.3838 28.9717 53.1882 28.8665C44.5457 21.2491 12.814 20.158 7.42732 33.3785C3.93282 41.8908 12.0192 49.3029 22.5832 48.9609L22.5838 48.9597ZM31.8273 30.4268H35.0515C36.1419 30.4268 36.9086 30.2346 37.356 29.8559C37.8035 29.4765 38.0272 28.9711 38.0272 28.33C38.0272 27.7358 37.8086 27.2576 37.3652 26.8974C36.9224 26.5373 36.1459 26.3547 35.0365 26.3547H31.8267V30.4268H31.8273ZM46.7686 24.6774V14.6432H53.083V26.907C53.083 27.4599 53.1618 27.9518 53.3188 28.3826C51.7147 26.8443 49.428 25.622 46.7686 24.6774ZM70.4531 14.6432H79.8484C81.6958 14.6432 83.1957 14.8908 84.3339 15.3826C85.4721 15.879 86.4147 16.5857 87.1624 17.5077C87.9049 18.4349 88.4432 19.5068 88.7768 20.733C89.115 21.9592 89.2817 23.2561 89.2817 24.6276C89.2817 26.7759 89.0344 28.4425 88.5341 29.6269C88.0383 30.8107 87.3482 31.8034 86.4624 32.604C85.5768 33.4045 84.6289 33.9376 83.615 34.205C82.2289 34.5696 80.9717 34.7528 79.8484 34.7528H70.4531V14.6443V14.6432ZM76.7669 19.193V30.1741H78.3192C79.6431 30.1741 80.5863 30.0288 81.1477 29.7433C81.705 29.4528 82.1426 28.9519 82.4624 28.2362C82.7816 27.5148 82.9386 26.3541 82.9386 24.7441C82.9386 22.6144 82.5861 21.1587 81.8764 20.3723C81.1672 19.5859 79.9905 19.193 78.3479 19.193H76.7669Z" fill="#FEFEFE"/>
<path fill-rule="evenodd" clip-rule="evenodd" d="M6.29892 39.2552C3.7856 35.628 5.52077 31.0787 10.7159 25.7798C18.4353 17.9052 21.2224 7.66069 10.9328 0.404011C16.1538 7.27852 -12.088 23.6778 6.29892 39.2552Z" fill="#FEFEFE"/>
<path d="M27.5029 44.8735C27.8923 44.8735 28.2443 44.96 28.5594 45.133C28.8752 45.306 29.1219 45.5502 29.3008 45.8657C29.4796 46.1806 29.5694 46.5401 29.5694 46.9432C29.5694 47.3514 29.4796 47.7132 29.3008 48.0286C29.1219 48.3435 28.8763 48.5878 28.564 48.7608C28.2512 48.9337 27.8975 49.0202 27.5029 49.0202C27.1665 49.0202 26.8628 48.9518 26.5925 48.815C26.3216 48.6782 26.0996 48.4781 25.9259 48.2141V50.4856H25.3657V44.9046H25.9023V45.7102C26.0703 45.4417 26.2928 45.2347 26.5689 45.09C26.845 44.9453 27.1561 44.8729 27.5029 44.8729V44.8735ZM27.4638 48.5324C27.7531 48.5324 28.0159 48.4668 28.2523 48.3345C28.4887 48.2028 28.6745 48.0156 28.8085 47.7725C28.9425 47.5295 29.0098 47.253 29.0098 46.9432C29.0098 46.6328 28.943 46.3581 28.8085 46.1178C28.6745 45.8775 28.4893 45.6904 28.2523 45.5559C28.0159 45.4213 27.7531 45.3546 27.4638 45.3546C27.1693 45.3546 26.9054 45.4213 26.6713 45.5559C26.4372 45.6904 26.2532 45.8775 26.1197 46.1178C25.9857 46.3581 25.9184 46.6328 25.9184 46.9432C25.9184 47.253 25.9851 47.5295 26.1197 47.7725C26.2537 48.0156 26.4378 48.2028 26.6713 48.3345C26.9054 48.4662 27.1693 48.5324 27.4638 48.5324ZM34.4033 47.1139H30.9336C30.9652 47.5374 31.1303 47.88 31.4305 48.1406C31.7301 48.4018 32.1086 48.5324 32.5658 48.5324C32.8235 48.5324 33.0604 48.4871 33.2755 48.3967C33.4912 48.3062 33.6775 48.1728 33.8351 47.9975L34.1509 48.3543C33.9668 48.5714 33.7368 48.7364 33.4607 48.8501C33.1846 48.9637 32.8815 49.0208 32.5503 49.0208C32.1241 49.0208 31.7474 48.9315 31.4184 48.754C31.0894 48.5759 30.8335 48.3288 30.6495 48.0134C30.466 47.6985 30.3734 47.3418 30.3734 46.9438C30.3734 46.5458 30.4614 46.189 30.6374 45.8741C30.8134 45.5587 31.0555 45.3133 31.3632 45.1375C31.6703 44.9623 32.0165 44.8741 32.4002 44.8741C32.7843 44.8741 33.1283 44.9623 33.4331 45.1375C33.7379 45.3133 33.9772 45.5576 34.1509 45.8702C34.3245 46.1828 34.4114 46.5407 34.4114 46.9438L34.4033 47.1145V47.1139ZM32.4002 45.3467C32.0004 45.3467 31.6651 45.4716 31.3948 45.7226C31.1239 45.9731 30.9704 46.2998 30.9336 46.7029H33.8748C33.838 46.2998 33.6844 45.9731 33.4135 45.7226C33.1426 45.4716 32.805 45.3467 32.4002 45.3467ZM37.1553 47.1682H36.2093V48.9818H35.6491V44.9046H36.2093V46.695H37.1634L38.6225 44.9046H39.2298L37.5976 46.881L39.3477 48.9818H38.6858L37.1559 47.1682H37.1553ZM43.6215 44.9051V48.9824H43.0614V45.3936H41.0743L41.0191 46.401C40.9765 47.2485 40.877 47.8997 40.7194 48.3543C40.5618 48.8088 40.28 49.0366 39.8757 49.0366C39.7653 49.0366 39.6313 49.0157 39.4737 48.9745L39.5134 48.5013C39.6077 48.5222 39.6738 48.5324 39.7101 48.5324C39.9258 48.5324 40.0885 48.4346 40.1989 48.2378C40.3094 48.0416 40.383 47.7985 40.4198 47.5091C40.4566 47.2196 40.4882 46.8375 40.5141 46.362L40.5854 44.9051H43.6215ZM46.6416 44.8741C47.1828 44.8741 47.598 45.0069 47.8873 45.2732C48.1766 45.5395 48.3209 45.9329 48.3209 46.4547V48.9818H47.7843V48.3464C47.6584 48.5584 47.4732 48.724 47.2282 48.8422C46.9838 48.9609 46.6933 49.0202 46.3569 49.0202C45.8945 49.0202 45.5264 48.9117 45.2526 48.6946C44.9789 48.4775 44.8425 48.1909 44.8425 47.8342C44.8425 47.4882 44.9697 47.2089 45.225 46.9969C45.4798 46.7849 45.8858 46.6786 46.4431 46.6786H47.7602V46.431C47.7602 46.0794 47.6607 45.812 47.4611 45.6288C47.261 45.4456 46.9694 45.354 46.5858 45.354C46.3229 45.354 46.0705 45.3964 45.8289 45.4818C45.5868 45.5666 45.3791 45.6848 45.2055 45.8346L44.9535 45.4236C45.1635 45.2483 45.416 45.1121 45.7104 45.0165C46.0049 44.921 46.3149 44.8729 46.641 44.8729L46.6416 44.8741ZM46.4443 48.5872C46.76 48.5872 47.0303 48.516 47.2564 48.3741C47.4824 48.2322 47.6503 48.0269 47.7608 47.7578V47.0913H46.4598C45.7501 47.0913 45.3953 47.3344 45.3953 47.82C45.3953 48.058 45.4873 48.2452 45.6713 48.382C45.8554 48.5188 46.113 48.5872 46.4443 48.5872ZM54.4484 44.9057V48.9829H53.936V45.7588L52.2566 48.4871H52.0041L50.3247 45.7509V48.9829H49.8123V44.9057H50.3799L52.1387 47.8432L53.9285 44.9057H54.449H54.4484ZM56.0415 44.9057H56.6017V46.7114H59.2116V44.9057H59.7712V48.9829H59.2116V47.1846H56.6017V48.9829H56.0415V44.9057ZM63.0754 49.0214C62.6756 49.0214 62.3156 48.9321 61.9947 48.7545C61.6743 48.5765 61.4219 48.3294 61.2378 48.0139C61.0544 47.6991 60.9618 47.3423 60.9618 46.9443C60.9618 46.5463 61.0538 46.1896 61.2378 45.8747C61.4219 45.5592 61.6743 45.3139 61.9947 45.1381C62.3156 44.9628 62.6756 44.8746 63.0754 44.8746C63.4751 44.8746 63.8351 44.9628 64.1555 45.1381C64.4764 45.3139 64.7271 45.5592 64.9089 45.8747C65.09 46.1896 65.1803 46.5463 65.1803 46.9443C65.1803 47.3423 65.09 47.6991 64.9089 48.0139C64.7277 48.3288 64.4764 48.5759 64.1555 48.7545C63.8351 48.9326 63.4745 49.0214 63.0754 49.0214ZM63.0754 48.5329C63.3698 48.5329 63.6338 48.4673 63.8679 48.3351C64.102 48.2033 64.2843 48.0162 64.416 47.7731C64.5471 47.53 64.6127 47.2536 64.6127 46.9438C64.6127 46.6334 64.5471 46.3569 64.416 46.1144C64.2843 45.8719 64.102 45.6842 63.8679 45.5525C63.6338 45.4207 63.3698 45.3546 63.0754 45.3546C62.7809 45.3546 62.5169 45.4202 62.2828 45.5525C62.0488 45.6842 61.8647 45.8713 61.7307 46.1144C61.5967 46.3575 61.5294 46.634 61.5294 46.9438C61.5294 47.2536 61.5967 47.53 61.7307 47.7731C61.8647 48.0162 62.0488 48.2033 62.2828 48.3351C62.5169 48.4668 62.7809 48.5329 63.0754 48.5329ZM73.1137 44.9057V48.9829H72.5541V45.3942H69.9516V48.9829H69.3915V44.9057H73.1137ZM76.8434 44.8746C77.2328 44.8746 77.5848 44.9611 77.8999 45.1341C78.2157 45.3071 78.4624 45.5513 78.6413 45.8668C78.8202 46.1817 78.9099 46.5412 78.9099 46.9443C78.9099 47.3525 78.8202 47.7143 78.6413 48.0298C78.4624 48.3447 78.2169 48.5889 77.9046 48.7619C77.5917 48.9349 77.238 49.0214 76.8434 49.0214C76.507 49.0214 76.2033 48.953 75.933 48.8162C75.6621 48.6793 75.4401 48.4792 75.2664 48.2152V50.4867H74.7062V44.9057H75.2428V45.7113C75.4108 45.4428 75.6334 45.2359 75.9094 45.0911C76.1855 44.9464 76.4966 44.8741 76.8434 44.8741V44.8746ZM76.8043 48.5335C77.0936 48.5335 77.3565 48.4679 77.5928 48.3356C77.8292 48.2039 78.015 48.0168 78.149 47.7737C78.283 47.5306 78.3503 47.2541 78.3503 46.9443C78.3503 46.634 78.2836 46.3592 78.149 46.1189C78.015 45.8787 77.8298 45.6915 77.5928 45.557C77.3565 45.4224 77.0936 45.3557 76.8043 45.3557C76.5099 45.3557 76.2459 45.4224 76.0118 45.557C75.7777 45.6915 75.5937 45.8787 75.4602 46.1189C75.3262 46.3592 75.2589 46.634 75.2589 46.9443C75.2589 47.2541 75.3257 47.5306 75.4602 47.7737C75.5943 48.0168 75.7783 48.2039 76.0118 48.3356C76.2459 48.4673 76.5099 48.5335 76.8043 48.5335ZM81.8275 49.0219C81.4278 49.0219 81.0678 48.9326 80.7468 48.7551C80.4265 48.577 80.174 48.33 79.99 48.0145C79.8065 47.6996 79.7139 47.3429 79.7139 46.9449C79.7139 46.5469 79.8059 46.1902 79.99 45.8753C80.174 45.5598 80.4265 45.3145 80.7468 45.1386C81.0678 44.9634 81.4278 44.8752 81.8275 44.8752C82.2272 44.8752 82.5873 44.9634 82.9076 45.1386C83.2285 45.3145 83.4793 45.5598 83.661 45.8753C83.8422 46.1902 83.9325 46.5469 83.9325 46.9449C83.9325 47.3429 83.8422 47.6996 83.661 48.0145C83.4799 48.3294 83.2285 48.5765 82.9076 48.7551C82.5873 48.9332 82.2267 49.0219 81.8275 49.0219ZM81.8275 48.5335C82.122 48.5335 82.386 48.4679 82.6201 48.3356C82.8541 48.2039 83.0364 48.0168 83.1682 47.7737C83.2993 47.5306 83.3648 47.2541 83.3648 46.9443C83.3648 46.634 83.2993 46.3575 83.1682 46.115C83.0364 45.8724 82.8541 45.6848 82.6201 45.553C82.386 45.4213 82.122 45.3552 81.8275 45.3552C81.5331 45.3552 81.2691 45.4207 81.035 45.553C80.8009 45.6848 80.6169 45.8719 80.4829 46.115C80.3489 46.3581 80.2816 46.6345 80.2816 46.9443C80.2816 47.2541 80.3489 47.5306 80.4829 47.7737C80.6169 48.0168 80.8009 48.2039 81.035 48.3356C81.2691 48.4673 81.5331 48.5335 81.8275 48.5335ZM85.1316 44.9063H85.6918V48.1462L88.4594 44.9063H88.9563V48.9835H88.3967V45.7435L85.6366 48.9835H85.1316V44.9063ZM92.4887 46.8595C92.7832 46.9268 93.0109 47.0433 93.1708 47.2083C93.3313 47.3734 93.4118 47.5752 93.4118 47.8132C93.4118 48.0507 93.3284 48.2627 93.1634 48.4487C92.9977 48.6347 92.7734 48.7783 92.4893 48.8789C92.2052 48.9801 91.8929 49.0299 91.5513 49.0299C91.2516 49.0299 90.9572 48.9869 90.6679 48.9021C90.3786 48.8167 90.1261 48.6912 89.911 48.5261L90.1002 48.1151C90.2894 48.2548 90.5103 48.3633 90.7622 48.4408C91.0147 48.5182 91.2695 48.5567 91.5271 48.5567C91.9107 48.5567 92.2253 48.4854 92.4692 48.3435C92.7136 48.2011 92.8355 48.0089 92.8355 47.7658C92.8355 47.5487 92.736 47.3796 92.5365 47.2581C92.3363 47.1365 92.0631 47.0755 91.7163 47.0755H91.0066V46.673H91.6847C91.9953 46.673 92.2449 46.6147 92.4335 46.4983C92.6227 46.3818 92.7176 46.2258 92.7176 46.0296C92.7176 45.8125 92.6112 45.6424 92.3984 45.518C92.1851 45.3942 91.9079 45.332 91.5662 45.332C91.1193 45.332 90.6782 45.4428 90.2417 45.665L90.0841 45.2387C90.5781 44.9854 91.0912 44.8588 91.6214 44.8588C91.9372 44.8588 92.2224 44.904 92.4772 44.9945C92.7326 45.0849 92.9322 45.2127 93.0765 45.3783C93.2209 45.5434 93.2934 45.7351 93.2934 45.9522C93.2934 46.1591 93.2209 46.3422 93.0765 46.5028C92.9316 46.6628 92.736 46.7821 92.4887 46.859V46.8595ZM97.3227 46.8754C97.8852 47.0048 98.1664 47.3378 98.1664 47.8749C98.1664 48.2316 98.0324 48.5052 97.7644 48.6969C97.4964 48.888 97.0967 48.9835 96.5658 48.9835H94.6811V44.9063H96.5106C96.984 44.9063 97.3543 44.9967 97.6224 45.1776C97.8904 45.3586 98.0244 45.6169 98.0244 45.9527C98.0244 46.1749 97.9623 46.3649 97.8386 46.5226C97.715 46.6803 97.543 46.7973 97.3221 46.8754H97.3227ZM95.2252 46.7205H96.4709C96.7919 46.7205 97.0374 46.6611 97.2083 46.5424C97.3791 46.4236 97.4648 46.2501 97.4648 46.0228C97.4648 45.7956 97.3791 45.6248 97.2083 45.5112C97.0374 45.3976 96.7919 45.3405 96.4709 45.3405H95.2252V46.7205ZM96.5423 48.5499C96.9 48.5499 97.168 48.4928 97.3463 48.3792C97.5252 48.2655 97.6149 48.0869 97.6149 47.8443C97.6149 47.6012 97.5332 47.422 97.3704 47.3056C97.2077 47.1891 96.95 47.1315 96.5975 47.1315H95.2258V48.5499H96.5428H96.5423ZM101.187 49.0225C100.787 49.0225 100.427 48.9332 100.106 48.7557C99.786 48.5776 99.5335 48.3305 99.3495 48.0151C99.166 47.7002 99.0734 47.3435 99.0734 46.9455C99.0734 46.5475 99.1654 46.1907 99.3495 45.8758C99.5335 45.5604 99.786 45.315 100.106 45.1392C100.427 44.9639 100.787 44.8758 101.187 44.8758C101.587 44.8758 101.947 44.9639 102.267 45.1392C102.588 45.315 102.839 45.5604 103.021 45.8758C103.202 46.1907 103.292 46.5475 103.292 46.9455C103.292 47.3435 103.202 47.7002 103.021 48.0151C102.839 48.33 102.588 48.577 102.267 48.7557C101.947 48.9338 101.586 49.0225 101.187 49.0225ZM101.187 48.5341C101.481 48.5341 101.745 48.4685 101.98 48.3362C102.214 48.2045 102.396 48.0173 102.528 47.7742C102.659 47.5311 102.724 47.2547 102.724 46.9449C102.724 46.6345 102.659 46.3581 102.528 46.1155C102.396 45.873 102.214 45.6853 101.98 45.5536C101.745 45.4219 101.481 45.3557 101.187 45.3557C100.893 45.3557 100.629 45.4213 100.394 45.5536C100.16 45.6853 99.9764 45.8724 99.8424 46.1155C99.7084 46.3586 99.6411 46.6351 99.6411 46.9449C99.6411 47.2547 99.7084 47.5311 99.8424 47.7742C99.9764 48.0173 100.16 48.2045 100.394 48.3362C100.629 48.4679 100.893 48.5341 101.187 48.5341ZM108.512 48.503V49.9683H107.984V48.9841H104.27V49.9683H103.742V48.503H103.978C104.257 48.4877 104.446 48.2859 104.546 47.8986C104.645 47.5114 104.714 46.9681 104.751 46.271L104.806 44.9068H107.865V48.503H108.512H108.512ZM105.264 46.3015C105.238 46.8804 105.188 47.357 105.114 47.7313C105.04 48.1061 104.909 48.3633 104.72 48.5024H107.306V45.3942H105.312L105.265 46.301L105.264 46.3015ZM111.336 49.0219C110.926 49.0219 110.559 48.9343 110.236 48.7585C109.912 48.5827 109.659 48.3362 109.475 48.0179C109.291 47.7002 109.199 47.3423 109.199 46.9443C109.199 46.5463 109.291 46.1896 109.475 45.8747C109.659 45.5592 109.912 45.3139 110.236 45.1381C110.559 44.9628 110.926 44.8746 111.336 44.8746C111.694 44.8746 112.013 44.943 112.294 45.0798C112.575 45.2167 112.797 45.4173 112.961 45.6808L112.543 45.9601C112.406 45.7588 112.232 45.6073 112.022 45.5067C111.812 45.406 111.583 45.3557 111.336 45.3557C111.037 45.3557 110.768 45.4213 110.528 45.5536C110.289 45.6853 110.102 45.8724 109.968 46.1155C109.834 46.3586 109.767 46.6351 109.767 46.9449C109.767 47.2598 109.834 47.5379 109.968 47.7782C110.102 48.0185 110.289 48.2045 110.528 48.3362C110.768 48.4679 111.037 48.5341 111.336 48.5341C111.584 48.5341 111.812 48.4849 112.022 48.3865C112.232 48.2887 112.406 48.1389 112.543 47.9371L112.961 48.2163C112.798 48.4803 112.574 48.6805 112.291 48.8173C112.006 48.9541 111.688 49.0225 111.336 49.0225L111.336 49.0219ZM116.879 45.3947H115.31V48.9835H114.75V45.3947H113.181V44.9063H116.879V45.3947H116.879ZM120.334 46.8754C120.896 47.0048 121.177 47.3378 121.177 47.8749C121.177 48.2316 121.043 48.5052 120.775 48.6969C120.507 48.888 120.108 48.9835 119.577 48.9835H117.692V44.9063H119.522C119.995 44.9063 120.365 44.9967 120.633 45.1776C120.901 45.3586 121.035 45.6169 121.035 45.9527C121.035 46.1749 120.973 46.3649 120.85 46.5226C120.726 46.6803 120.554 46.7973 120.333 46.8754H120.334ZM118.236 46.7205H119.482C119.803 46.7205 120.048 46.6611 120.219 46.5424C120.39 46.4236 120.476 46.2501 120.476 46.0228C120.476 45.7956 120.39 45.6248 120.219 45.5112C120.048 45.3976 119.803 45.3405 119.482 45.3405H118.236V46.7205ZM119.553 48.5499C119.911 48.5499 120.179 48.4928 120.357 48.3792C120.536 48.2655 120.626 48.0869 120.626 47.8443C120.626 47.6012 120.544 47.422 120.381 47.3056C120.219 47.1891 119.961 47.1315 119.608 47.1315H118.237V48.5499H119.554H119.553ZM126.114 47.1156H122.645C122.676 47.5391 122.841 47.8817 123.142 48.1423C123.441 48.4035 123.82 48.5341 124.277 48.5341C124.534 48.5341 124.771 48.4888 124.987 48.3984C125.202 48.3079 125.389 48.1745 125.546 47.9992L125.862 48.356C125.678 48.5731 125.448 48.7381 125.172 48.8518C124.896 48.9654 124.593 49.0225 124.261 49.0225C123.835 49.0225 123.458 48.9332 123.129 48.7557C122.8 48.5776 122.545 48.3305 122.36 48.0151C122.177 47.7002 122.084 47.3435 122.084 46.9455C122.084 46.5475 122.172 46.1907 122.348 45.8758C122.524 45.5604 122.767 45.315 123.074 45.1392C123.381 44.9639 123.728 44.8758 124.111 44.8758C124.495 44.8758 124.839 44.9639 125.144 45.1392C125.449 45.315 125.688 45.5592 125.862 45.8719C126.036 46.1845 126.122 46.5424 126.122 46.9455L126.114 47.1162V47.1156ZM124.111 45.3484C123.711 45.3484 123.376 45.4733 123.106 45.7243C122.835 45.9748 122.681 46.3015 122.645 46.7046H125.586C125.549 46.3015 125.395 45.9748 125.125 45.7243C124.854 45.4733 124.516 45.3484 124.111 45.3484ZM127.36 44.9068H127.92V46.7125H130.53V44.9068H131.09V48.9841H130.53V47.1857H127.92V48.9841H127.36V44.9068ZM132.683 44.9068H133.243V46.7125H135.853V44.9068H136.413V48.9841H135.853V47.1857H133.243V48.9841H132.683V44.9068ZM139.433 44.8758C139.974 44.8758 140.39 45.0086 140.679 45.2749C140.968 45.5412 141.113 45.9346 141.113 46.4564V48.9835H140.576V48.3481C140.45 48.5601 140.265 48.7257 140.02 48.8439C139.775 48.9626 139.485 49.0219 139.149 49.0219C138.686 49.0219 138.318 48.9134 138.044 48.6963C137.771 48.4792 137.634 48.1926 137.634 47.8359C137.634 47.4899 137.761 47.2106 138.017 46.9986C138.271 46.7866 138.678 46.6803 139.235 46.6803H140.552V46.4327C140.552 46.0811 140.452 45.8136 140.253 45.6305C140.053 45.4473 139.761 45.3557 139.377 45.3557C139.115 45.3557 138.862 45.3981 138.621 45.4835C138.378 45.5683 138.171 45.6864 137.997 45.8363L137.745 45.4253C137.955 45.25 138.208 45.1138 138.502 45.0182C138.797 44.9227 139.107 44.8746 139.433 44.8746L139.433 44.8758ZM139.236 48.5889C139.552 48.5889 139.822 48.5177 140.048 48.3758C140.274 48.2339 140.442 48.0286 140.552 47.7595V47.093H139.252C138.542 47.093 138.187 47.3361 138.187 47.8217C138.187 48.0597 138.279 48.2469 138.463 48.3837C138.647 48.5205 138.905 48.5889 139.236 48.5889ZM145.789 44.9074V48.9846H145.277V47.6363H143.976H143.817L142.856 48.9846H142.249L143.282 47.5583C142.961 47.4707 142.714 47.3203 142.541 47.1088C142.367 46.8968 142.281 46.6283 142.281 46.3027C142.281 45.8481 142.438 45.5016 142.754 45.2641C143.069 45.0261 143.501 44.908 144.047 44.908H145.79L145.789 44.9074ZM142.848 46.3179C142.848 46.9223 143.239 47.2247 144.023 47.2247H145.277V45.3953H144.062C143.253 45.3953 142.848 45.7028 142.848 46.3179H142.848ZM150.954 47.1705H150.008V48.9841H149.448V44.9068H150.008V46.6973H150.962L152.421 44.9068H153.029L151.397 46.8833L153.147 48.9841H152.485L150.955 47.1705H150.954ZM155.592 49.0231C155.192 49.0231 154.832 48.9338 154.511 48.7562C154.191 48.5782 153.938 48.3311 153.754 48.0156C153.571 47.7007 153.478 47.344 153.478 46.946C153.478 46.548 153.57 46.1913 153.754 45.8764C153.938 45.5609 154.191 45.3156 154.511 45.1398C154.832 44.9645 155.192 44.8763 155.592 44.8763C155.991 44.8763 156.351 44.9645 156.672 45.1398C156.993 45.3156 157.243 45.5609 157.425 45.8764C157.606 46.1913 157.697 46.548 157.697 46.946C157.697 47.344 157.606 47.7007 157.425 48.0156C157.244 48.3305 156.993 48.5776 156.672 48.7562C156.351 48.9343 155.991 49.0231 155.592 49.0231ZM155.592 48.5346C155.886 48.5346 156.15 48.469 156.384 48.3368C156.618 48.205 156.8 48.0179 156.932 47.7748C157.063 47.5317 157.129 47.2553 157.129 46.9455C157.129 46.6351 157.063 46.3586 156.932 46.1161C156.8 45.8736 156.618 45.6859 156.384 45.5542C156.15 45.4224 155.886 45.3563 155.592 45.3563C155.297 45.3563 155.033 45.4219 154.799 45.5542C154.565 45.6859 154.381 45.873 154.247 46.1161C154.113 46.3592 154.046 46.6357 154.046 46.9455C154.046 47.2553 154.113 47.5317 154.247 47.7748C154.381 48.0179 154.565 48.205 154.799 48.3368C155.033 48.4685 155.297 48.5346 155.592 48.5346ZM163.532 44.9074V48.9846H163.02V45.7605L161.341 48.4888H161.088L159.409 45.7526V48.9846H158.896V44.9074H159.464L161.223 47.8449L163.012 44.9074H163.533H163.532ZM168.848 44.9074V48.9846H168.288V45.3959H165.686V48.9846H165.126V44.9074H168.848ZM171.868 44.8763C172.409 44.8763 172.824 45.0092 173.114 45.2754C173.403 45.5417 173.547 45.9352 173.547 46.457V48.9841H173.011V48.3486C172.885 48.5606 172.699 48.7263 172.454 48.8444C172.21 48.9631 171.92 49.0225 171.583 49.0225C171.121 49.0225 170.753 48.914 170.479 48.6969C170.205 48.4798 170.069 48.1932 170.069 47.8364C170.069 47.4904 170.196 47.2112 170.451 46.9992C170.706 46.7872 171.112 46.6809 171.669 46.6809H172.986V46.4333C172.986 46.0816 172.887 45.8142 172.687 45.631C172.487 45.4479 172.196 45.3563 171.812 45.3563C171.549 45.3563 171.297 45.3987 171.055 45.4841C170.813 45.5689 170.605 45.687 170.432 45.8368L170.18 45.4258C170.39 45.2506 170.642 45.1143 170.937 45.0188C171.231 44.9232 171.541 44.8752 171.867 44.8752L171.868 44.8763ZM171.671 48.5895C171.986 48.5895 172.257 48.5182 172.483 48.3763C172.709 48.2344 172.877 48.0292 172.987 47.7601V47.0936H171.686C170.976 47.0936 170.621 47.3367 170.621 47.8223C170.621 48.0603 170.714 48.2474 170.898 48.3842C171.082 48.5211 171.339 48.5895 171.671 48.5895ZM175.038 44.908H175.598V46.7137H178.208V44.908H178.768V48.9852H178.208V47.1869H175.598V48.9852H175.038V44.908ZM180.361 44.908H180.921V48.1479L183.688 44.908H184.185V48.9852H183.626V45.7452L180.866 48.9852H180.361V44.908ZM188.972 44.908V48.9852H188.459V47.6369H187.158H187L186.038 48.9852H185.431L186.465 47.5588C186.144 47.4712 185.896 47.3208 185.723 47.1094C185.55 46.8974 185.463 46.6289 185.463 46.3032C185.463 45.8487 185.621 45.5021 185.937 45.2647C186.252 45.0267 186.683 44.9085 187.23 44.9085H188.972L188.972 44.908ZM186.03 46.3185C186.03 46.9228 186.422 47.2253 187.205 47.2253H188.459V45.3959H187.245C186.435 45.3959 186.031 45.7034 186.031 46.3185H186.03ZM66.0591 46.6441H68.125V47.1247H66.0591V46.6441Z" fill="#FEFEFE"/>
</svg>
