<svg width="702" height="186" viewBox="0 0 702 186" fill="none" xmlns="http://www.w3.org/2000/svg">
<path d="M386.302 100.098V87.4919H419.263V117.252C416.067 120.324 411.421 123.017 405.328 125.362C399.249 127.687 393.086 128.851 386.833 128.851C378.901 128.851 371.995 127.22 366.096 123.938C360.214 120.656 355.78 115.95 352.811 109.856C349.843 103.761 348.36 97.1114 348.36 89.9393C348.36 82.159 350.022 75.249 353.325 69.1904C356.645 63.1465 361.485 58.4951 367.862 55.2634C372.737 52.7804 378.779 51.5473 386.022 51.5473C395.437 51.5473 402.804 53.4914 408.103 57.3815C413.386 61.2885 416.795 66.6529 418.312 73.5314L403.049 76.3437C401.989 72.68 399.977 69.7797 397.026 67.6427C394.095 65.5246 390.419 64.4656 386.003 64.4656C379.327 64.4656 374.009 66.5501 370.07 70.7339C366.13 74.9197 364.152 81.1167 364.152 89.3311C364.152 98.204 366.149 104.854 370.141 109.281C374.149 113.708 379.379 115.931 385.862 115.931C389.06 115.931 392.275 115.306 395.49 114.073C398.723 112.84 401.479 111.33 403.792 109.558V100.094H386.304L386.302 100.098ZM426.94 127.499V52.9063H459.21C467.317 52.9063 473.218 53.5836 476.892 54.9195C480.583 56.2554 483.516 58.6356 485.722 62.056C487.93 65.4932 489.044 69.4001 489.044 73.8103C489.044 79.4201 487.384 84.038 484.046 87.6849C480.707 91.3318 475.725 93.6239 469.084 94.5781C472.386 96.4697 475.106 98.5542 477.244 100.828C479.399 103.103 482.296 107.148 485.936 112.949L495.193 127.499H476.875L465.89 111.212C461.949 105.431 459.246 101.784 457.783 100.272C456.332 98.7786 454.796 97.7364 453.172 97.1827C451.53 96.627 448.95 96.3481 445.417 96.3481H442.309V127.499H426.942H426.94ZM442.307 84.4721H453.646C460.996 84.4721 465.57 84.1596 467.407 83.5515C469.227 82.9433 470.675 81.8843 471.699 80.3911C472.74 78.898 473.255 77.0231 473.255 74.7834C473.255 72.2648 472.565 70.2515 471.204 68.6871C469.845 67.1415 467.919 66.1684 465.446 65.77C464.192 65.5959 460.465 65.5099 454.265 65.5099H442.307V84.47V84.4721ZM493.789 90.6523C493.789 83.0482 494.954 76.6582 497.269 71.4846C498.982 67.6826 501.348 64.2622 504.332 61.2402C507.319 58.2204 510.588 55.9806 514.138 54.5043C518.872 52.5414 524.331 51.5515 530.512 51.5515C541.71 51.5515 550.65 54.9719 557.381 61.796C564.092 68.6368 567.448 78.1346 567.448 90.3063C567.448 102.375 564.109 111.821 557.451 118.626C550.793 125.45 541.873 128.853 530.725 128.853C519.437 128.853 510.447 125.469 503.786 118.678C497.128 111.907 493.789 102.566 493.789 90.6544V90.6523ZM509.581 90.149C509.581 98.6046 511.578 105.011 515.552 109.388C519.527 113.746 524.579 115.933 530.689 115.933C536.818 115.933 541.836 113.763 545.775 109.438C549.696 105.097 551.657 98.6025 551.657 89.9393C551.657 81.3788 549.749 74.9889 545.915 70.7863C542.101 66.5669 537.032 64.4656 530.689 64.4656C524.366 64.4656 519.262 66.6025 515.392 70.8555C511.522 75.1273 509.579 81.5508 509.579 90.1469L509.581 90.149ZM572.899 52.9042H588.267V93.3261C588.267 99.7496 588.461 103.9 588.832 105.794C589.485 108.849 591.023 111.315 593.459 113.156C595.915 115.015 599.254 115.935 603.493 115.935C607.785 115.935 611.035 115.067 613.226 113.312C615.415 111.558 616.722 109.424 617.164 106.869C617.606 104.317 617.836 100.098 617.836 94.1943V52.9042H633.203V92.1266C633.203 101.085 632.798 107.423 631.968 111.122C631.136 114.819 629.619 117.946 627.392 120.499C625.184 123.051 622.216 125.066 618.508 126.576C614.781 128.086 609.94 128.849 603.952 128.849C596.728 128.849 591.251 128.033 587.524 126.383C583.797 124.733 580.849 122.598 578.675 119.96C576.501 117.321 575.088 114.576 574.399 111.676C573.392 107.404 572.897 101.083 572.897 92.7326V52.9021L572.899 52.9042ZM642.928 127.497V52.9042H667.499C676.809 52.9042 682.868 53.267 685.695 54.0156C690.041 55.1439 693.678 57.5745 696.612 61.3262C699.543 65.0779 701.011 69.9223 701.011 75.8592C701.011 80.4435 700.162 84.2792 698.485 87.406C696.789 90.5307 694.651 92.9801 692.055 94.769C689.458 96.541 686.808 97.7217 684.122 98.2942C680.466 99.0072 675.185 99.37 668.26 99.37H658.297V127.499H642.93L642.928 127.497ZM658.295 65.5099V86.7621H666.652C672.674 86.7621 676.685 86.3616 678.716 85.5815C680.747 84.7993 682.337 83.585 683.487 81.901C684.634 80.2338 685.217 78.3066 685.217 76.0857C685.217 73.3595 684.406 71.1197 682.797 69.3477C681.172 67.5777 679.141 66.4662 676.651 66.0133C674.831 65.684 671.174 65.5099 665.664 65.5099H658.297H658.295Z" fill="#FEFEFE"/>
<path fill-rule="evenodd" clip-rule="evenodd" d="M94.4288 52.9041H138.359C145.672 52.9041 151.289 54.6909 155.211 58.2518C159.132 61.8106 161.093 66.2208 161.093 71.4825C161.093 75.8928 159.695 79.6781 156.888 82.8195C156.226 83.5724 155.454 84.2686 154.571 84.9062C147.669 83.455 140.505 82.3645 133.362 81.6011C134.442 81.2949 135.303 80.8671 135.937 80.3198C137.369 79.0699 138.092 77.281 138.092 74.9365C138.092 72.766 137.369 71.0652 135.937 69.8489C134.508 68.6158 131.999 68.0076 128.447 68.0076H118.061V80.4477C109.704 80.0744 101.665 80.1331 94.4266 80.5588V52.9041H94.4288ZM83.7743 180.199C33.5892 150.336 34.9994 102.56 94.4288 92.5984V127.497H134.915C136.645 127.497 140.144 127.148 145.425 126.471C149.399 125.968 152.367 125.152 154.345 124.041C157.506 122.235 160.015 119.804 161.85 116.715C163.67 113.624 164.587 110.151 164.587 106.28C164.587 101.538 163.296 97.5979 160.736 94.4564C160.378 94.0181 159.992 93.5987 159.578 93.1982C164.417 94.037 169.08 95.0478 173.484 96.2306V97.3379C173.484 101.002 174.209 105.202 175.658 109.944C176.56 112.896 178.22 115.761 180.656 118.54C183.076 121.316 185.762 123.453 188.693 124.963C191.627 126.473 195.283 127.482 199.646 127.985C204.009 128.488 208.035 128.749 211.728 128.749C218.105 128.749 223.581 127.914 228.138 126.266C231.407 125.068 234.532 123.019 237.517 120.085C240.502 117.151 242.693 113.731 244.088 109.805C245.485 105.898 246.192 101.731 246.192 97.3379V52.9062H222.768V98.399C222.768 102.53 221.621 105.724 219.342 107.966C217.047 110.223 213.885 111.353 209.874 111.353C205.812 111.353 202.631 110.206 200.335 107.914C199.987 107.566 199.665 107.196 199.369 106.806C198.718 106.435 198.027 106.054 197.301 105.663C165.242 77.4069 47.5334 73.3594 27.5516 122.401C14.5887 153.977 44.585 181.472 83.7722 180.203L83.7743 180.199ZM118.063 111.451H130.023C134.068 111.451 136.912 110.738 138.572 109.333C140.232 107.926 141.062 106.051 141.062 103.673C141.062 101.469 140.251 99.6951 138.606 98.3592C136.963 97.0233 134.083 96.346 129.968 96.346H118.061V111.451H118.063ZM173.488 90.1238V52.902H196.911V98.3948C196.911 100.446 197.203 102.27 197.786 103.868C191.836 98.1621 183.353 93.6281 173.488 90.1238ZM261.345 52.902H296.197C303.05 52.902 308.614 53.8206 312.836 55.6451C317.058 57.4863 320.555 60.1077 323.328 63.5281C326.083 66.9674 328.08 70.9436 329.317 75.4922C330.572 80.0409 331.19 84.8516 331.19 89.9393C331.19 97.9083 330.273 104.091 328.417 108.484C326.578 112.875 324.018 116.558 320.732 119.528C317.447 122.497 313.931 124.475 310.169 125.467C305.028 126.819 300.364 127.499 296.197 127.499H261.345V52.9062V52.902ZM284.766 69.7797V110.514H290.525C295.436 110.514 298.935 109.975 301.017 108.916C303.084 107.838 304.708 105.98 305.894 103.325C307.078 100.649 307.66 96.3439 307.66 90.3713C307.66 82.4714 306.353 77.0713 303.72 74.1542C301.089 71.2371 296.724 69.7797 290.631 69.7797H284.766Z" fill="#FEFEFE"/>
<path fill-rule="evenodd" clip-rule="evenodd" d="M23.3658 144.2C14.0427 130.745 20.4793 113.869 39.7507 94.2131C68.3858 65.0024 78.7245 27.0005 40.555 0.0818787C59.9225 25.5828 -44.8405 86.4161 23.3658 144.2Z" fill="#FEFEFE"/>
<path d="M102.022 165.041C103.466 165.041 104.772 165.362 105.941 166.004C107.112 166.645 108.027 167.551 108.691 168.722C109.354 169.89 109.687 171.223 109.687 172.719C109.687 174.233 109.354 175.575 108.691 176.745C108.027 177.913 107.116 178.819 105.958 179.461C104.797 180.103 103.485 180.423 102.022 180.423C100.774 180.423 99.6471 180.17 98.6444 179.662C97.6395 179.155 96.816 178.412 96.1717 177.433V185.859H94.0938V165.156H96.0843V168.145C96.7072 167.149 97.5329 166.381 98.5569 165.844C99.581 165.307 100.735 165.039 102.022 165.039V165.041ZM101.877 178.614C102.95 178.614 103.925 178.37 104.802 177.88C105.678 177.391 106.367 176.697 106.865 175.795C107.362 174.893 107.611 173.868 107.611 172.719C107.611 171.567 107.364 170.548 106.865 169.657C106.367 168.766 105.681 168.071 104.802 167.572C103.925 167.073 102.95 166.826 101.877 166.826C100.784 166.826 99.805 167.073 98.9367 167.572C98.0684 168.071 97.3857 168.766 96.8907 169.657C96.3936 170.548 96.144 171.567 96.144 172.719C96.144 173.868 96.3915 174.893 96.8907 175.795C97.3878 176.697 98.0705 177.391 98.9367 177.88C99.805 178.368 100.784 178.614 101.877 178.614ZM127.619 173.352H114.748C114.865 174.923 115.477 176.194 116.591 177.16C117.702 178.129 119.106 178.614 120.802 178.614C121.758 178.614 122.637 178.446 123.435 178.11C124.235 177.775 124.926 177.28 125.511 176.63L126.682 177.953C125.999 178.758 125.146 179.371 124.122 179.792C123.098 180.214 121.974 180.426 120.745 180.426C119.164 180.426 117.766 180.094 116.546 179.436C115.326 178.775 114.376 177.859 113.694 176.688C113.013 175.52 112.67 174.197 112.67 172.721C112.67 171.244 112.996 169.921 113.649 168.753C114.302 167.583 115.2 166.673 116.341 166.02C117.481 165.37 118.765 165.043 120.188 165.043C121.613 165.043 122.889 165.37 124.02 166.02C125.15 166.673 126.038 167.579 126.682 168.738C127.326 169.898 127.649 171.225 127.649 172.721L127.619 173.354V173.352ZM120.188 166.796C118.705 166.796 117.461 167.26 116.459 168.191C115.454 169.12 114.884 170.332 114.748 171.827H125.658C125.522 170.332 124.952 169.12 123.947 168.191C122.942 167.26 121.69 166.796 120.188 166.796ZM137.827 173.553H134.318V180.281H132.24V165.156H134.318V171.798H137.857L143.27 165.156H145.523L139.468 172.488L145.96 180.281H143.504L137.829 173.553H137.827ZM161.814 165.159V180.283H159.736V166.97H152.365L152.16 170.708C152.002 173.851 151.633 176.267 151.048 177.953C150.464 179.639 149.418 180.484 147.919 180.484C147.509 180.484 147.012 180.407 146.427 180.254L146.574 178.498C146.924 178.576 147.17 178.614 147.304 178.614C148.104 178.614 148.708 178.251 149.118 177.521C149.527 176.793 149.8 175.892 149.937 174.818C150.073 173.744 150.191 172.326 150.287 170.563L150.551 165.159H161.814ZM173.016 165.043C175.024 165.043 176.564 165.536 177.637 166.524C178.711 167.511 179.246 168.971 179.246 170.907V180.281H177.256V177.924C176.788 178.71 176.101 179.325 175.192 179.763C174.286 180.203 173.208 180.423 171.96 180.423C170.245 180.423 168.88 180.021 167.864 179.216C166.849 178.41 166.343 177.347 166.343 176.024C166.343 174.74 166.814 173.704 167.762 172.918C168.707 172.131 170.213 171.737 172.28 171.737H177.166V170.819C177.166 169.514 176.797 168.522 176.057 167.843C175.314 167.163 174.232 166.824 172.809 166.824C171.834 166.824 170.898 166.981 170.002 167.298C169.104 167.612 168.333 168.05 167.689 168.606L166.755 167.082C167.533 166.431 168.47 165.926 169.562 165.572C170.655 165.217 171.805 165.039 173.014 165.039L173.016 165.043ZM172.285 178.817C173.456 178.817 174.459 178.553 175.297 178.026C176.135 177.5 176.758 176.739 177.168 175.741V173.268H172.342C169.71 173.268 168.393 174.17 168.393 175.971C168.393 176.854 168.735 177.548 169.417 178.056C170.1 178.563 171.056 178.817 172.285 178.817ZM201.976 165.161V180.285H200.075V168.325L193.845 178.446H192.909L186.679 168.296V180.285H184.778V165.161H186.884L193.408 176.057L200.047 165.161H201.978H201.976ZM207.885 165.161H209.963V171.859H219.645V165.161H221.721V180.285H219.645V173.614H209.963V180.285H207.885V165.161ZM233.978 180.428C232.495 180.428 231.159 180.096 229.969 179.438C228.78 178.777 227.844 177.861 227.161 176.691C226.481 175.522 226.137 174.199 226.137 172.723C226.137 171.246 226.478 169.923 227.161 168.755C227.844 167.585 228.78 166.675 229.969 166.023C231.159 165.372 232.495 165.045 233.978 165.045C235.46 165.045 236.796 165.372 237.984 166.023C239.175 166.675 240.105 167.585 240.779 168.755C241.451 169.923 241.786 171.246 241.786 172.723C241.786 174.199 241.451 175.522 240.779 176.691C240.107 177.859 239.175 178.775 237.984 179.438C236.796 180.098 235.458 180.428 233.978 180.428ZM233.978 178.616C235.07 178.616 236.049 178.372 236.917 177.882C237.786 177.393 238.462 176.699 238.951 175.797C239.437 174.895 239.68 173.87 239.68 172.721C239.68 171.569 239.437 170.544 238.951 169.644C238.462 168.745 237.786 168.048 236.917 167.56C236.049 167.071 235.07 166.826 233.978 166.826C232.885 166.826 231.906 167.069 231.038 167.56C230.169 168.048 229.487 168.743 228.99 169.644C228.492 170.546 228.243 171.572 228.243 172.721C228.243 173.87 228.492 174.895 228.99 175.797C229.487 176.699 230.169 177.393 231.038 177.882C231.906 178.37 232.885 178.616 233.978 178.616ZM271.215 165.161V180.285H269.139V166.973H259.485V180.285H257.407V165.161H271.215ZM285.05 165.045C286.494 165.045 287.8 165.366 288.969 166.008C290.141 166.65 291.056 167.556 291.719 168.726C292.383 169.894 292.716 171.228 292.716 172.723C292.716 174.237 292.383 175.579 291.719 176.749C291.056 177.917 290.145 178.823 288.986 179.465C287.826 180.107 286.514 180.428 285.05 180.428C283.802 180.428 282.676 180.174 281.673 179.666C280.668 179.159 279.844 178.417 279.2 177.437V185.863H277.122V165.161H279.113V168.149C279.736 167.153 280.561 166.385 281.585 165.848C282.609 165.312 283.764 165.043 285.05 165.043V165.045ZM284.905 178.618C285.978 178.618 286.953 178.375 287.83 177.884C288.707 177.395 289.396 176.701 289.893 175.799C290.39 174.898 290.64 173.872 290.64 172.723C290.64 171.572 290.392 170.552 289.893 169.661C289.396 168.77 288.709 168.076 287.83 167.577C286.953 167.077 285.978 166.83 284.905 166.83C283.813 166.83 282.833 167.077 281.965 167.577C281.097 168.076 280.414 168.77 279.919 169.661C279.422 170.552 279.172 171.572 279.172 172.723C279.172 173.872 279.42 174.898 279.919 175.799C280.416 176.701 281.099 177.395 281.965 177.884C282.833 178.372 283.813 178.618 284.905 178.618ZM303.539 180.43C302.056 180.43 300.72 180.098 299.53 179.44C298.341 178.779 297.405 177.863 296.722 176.693C296.042 175.525 295.698 174.201 295.698 172.725C295.698 171.249 296.04 169.925 296.722 168.757C297.405 167.587 298.341 166.677 299.53 166.025C300.72 165.375 302.056 165.047 303.539 165.047C305.021 165.047 306.357 165.375 307.545 166.025C308.736 166.677 309.666 167.587 310.34 168.757C311.012 169.925 311.347 171.249 311.347 172.725C311.347 174.201 311.012 175.525 310.34 176.693C309.668 177.861 308.736 178.777 307.545 179.44C306.357 180.101 305.019 180.43 303.539 180.43ZM303.539 178.618C304.631 178.618 305.61 178.375 306.478 177.884C307.347 177.395 308.023 176.701 308.512 175.799C308.998 174.898 309.241 173.872 309.241 172.723C309.241 171.572 308.998 170.546 308.512 169.646C308.023 168.747 307.347 168.05 306.478 167.562C305.61 167.073 304.631 166.828 303.539 166.828C302.446 166.828 301.467 167.071 300.599 167.562C299.73 168.05 299.048 168.745 298.551 169.646C298.053 170.548 297.804 171.574 297.804 172.723C297.804 173.872 298.053 174.898 298.551 175.799C299.048 176.701 299.73 177.395 300.599 177.884C301.467 178.372 302.446 178.618 303.539 178.618ZM315.795 165.163H317.873V177.181L328.139 165.163H329.983V180.287H327.907V168.269L317.668 180.287H315.795V165.163ZM343.086 172.408C344.179 172.658 345.023 173.09 345.617 173.702C346.212 174.315 346.51 175.063 346.51 175.946C346.51 176.827 346.201 177.613 345.589 178.303C344.974 178.993 344.142 179.526 343.088 179.899C342.035 180.275 340.876 180.459 339.609 180.459C338.497 180.459 337.405 180.3 336.332 179.985C335.259 179.668 334.322 179.203 333.524 178.591L334.226 177.066C334.928 177.584 335.747 177.987 336.682 178.274C337.618 178.561 338.563 178.704 339.519 178.704C340.942 178.704 342.109 178.44 343.014 177.913C343.92 177.385 344.373 176.672 344.373 175.77C344.373 174.965 344.004 174.338 343.263 173.887C342.521 173.436 341.508 173.209 340.221 173.209H337.588V171.716H340.104C341.256 171.716 342.182 171.5 342.882 171.068C343.583 170.636 343.935 170.057 343.935 169.33C343.935 168.524 343.541 167.893 342.751 167.432C341.96 166.973 340.932 166.742 339.664 166.742C338.007 166.742 336.37 167.153 334.751 167.977L334.166 166.396C335.999 165.456 337.902 164.987 339.869 164.987C341.04 164.987 342.098 165.154 343.044 165.49C343.991 165.825 344.731 166.299 345.267 166.914C345.802 167.526 346.071 168.237 346.071 169.042C346.071 169.81 345.802 170.489 345.267 171.085C344.729 171.678 344.004 172.121 343.086 172.406V172.408ZM361.018 172.467C363.104 172.947 364.148 174.182 364.148 176.175C364.148 177.498 363.651 178.513 362.656 179.224C361.662 179.933 360.179 180.287 358.21 180.287H351.219V165.163H358.005C359.761 165.163 361.135 165.498 362.129 166.169C363.124 166.84 363.621 167.799 363.621 169.044C363.621 169.869 363.39 170.573 362.932 171.158C362.473 171.743 361.835 172.178 361.016 172.467H361.018ZM353.237 171.892H357.858C359.049 171.892 359.96 171.672 360.593 171.232C361.227 170.791 361.545 170.148 361.545 169.305C361.545 168.461 361.227 167.828 360.593 167.407C359.96 166.985 359.049 166.773 357.858 166.773H353.237V171.892ZM358.123 178.679C359.45 178.679 360.444 178.467 361.105 178.045C361.769 177.624 362.102 176.961 362.102 176.061C362.102 175.16 361.799 174.495 361.195 174.063C360.591 173.631 359.635 173.417 358.328 173.417H353.239V178.679H358.125H358.123ZM375.353 180.432C373.87 180.432 372.534 180.101 371.344 179.442C370.155 178.781 369.219 177.865 368.536 176.695C367.856 175.527 367.512 174.203 367.512 172.727C367.512 171.251 367.854 169.927 368.536 168.759C369.219 167.589 370.155 166.679 371.344 166.027C372.534 165.377 373.87 165.049 375.353 165.049C376.835 165.049 378.171 165.377 379.359 166.027C380.55 166.679 381.48 167.589 382.154 168.759C382.826 169.927 383.161 171.251 383.161 172.727C383.161 174.203 382.826 175.527 382.154 176.695C381.482 177.863 380.55 178.779 379.359 179.442C378.171 180.103 376.833 180.432 375.353 180.432ZM375.353 178.62C376.445 178.62 377.424 178.377 378.292 177.886C379.161 177.397 379.837 176.703 380.326 175.801C380.812 174.9 381.055 173.874 381.055 172.725C381.055 171.574 380.812 170.548 380.326 169.648C379.837 168.749 379.161 168.053 378.292 167.564C377.424 167.075 376.445 166.83 375.353 166.83C374.26 166.83 373.281 167.073 372.413 167.564C371.544 168.053 370.862 168.747 370.365 169.648C369.867 170.55 369.618 171.576 369.618 172.725C369.618 173.874 369.867 174.9 370.365 175.801C370.862 176.703 371.544 177.397 372.413 177.886C373.281 178.375 374.26 178.62 375.353 178.62ZM402.526 178.505V183.94H400.568V180.289H386.79V183.94H384.829V178.505H385.706C386.739 178.448 387.443 177.699 387.812 176.263C388.181 174.826 388.435 172.811 388.571 170.225L388.776 165.165H400.126V178.505H402.524H402.526ZM390.477 170.338C390.378 172.486 390.193 174.254 389.92 175.642C389.647 177.032 389.16 177.987 388.458 178.502H398.052V166.973H390.654L390.479 170.336L390.477 170.338ZM412.999 180.43C411.478 180.43 410.119 180.105 408.92 179.452C407.719 178.8 406.78 177.886 406.096 176.705C405.415 175.527 405.072 174.199 405.072 172.723C405.072 171.246 405.413 169.923 406.096 168.755C406.778 167.585 407.719 166.675 408.92 166.023C410.119 165.372 411.478 165.045 412.999 165.045C414.326 165.045 415.51 165.299 416.554 165.807C417.597 166.314 418.42 167.059 419.026 168.036L417.477 169.072C416.97 168.325 416.325 167.763 415.547 167.39C414.766 167.017 413.917 166.83 413.002 166.83C411.892 166.83 410.892 167.073 410.004 167.564C409.116 168.053 408.423 168.747 407.926 169.648C407.429 170.55 407.179 171.576 407.179 172.725C407.179 173.893 407.429 174.925 407.926 175.816C408.423 176.707 409.116 177.397 410.004 177.886C410.892 178.375 411.892 178.62 413.002 178.62C413.919 178.62 414.766 178.437 415.547 178.073C416.325 177.71 416.97 177.154 417.477 176.405L419.026 177.441C418.423 178.421 417.593 179.163 416.541 179.671C415.487 180.178 414.307 180.432 413.002 180.432L412.999 180.43ZM433.564 166.975H427.741V180.287H425.666V166.975H419.844V165.163H433.562V166.975H433.564ZM446.377 172.467C448.464 172.947 449.507 174.182 449.507 176.175C449.507 177.498 449.01 178.513 448.016 179.224C447.021 179.933 445.539 180.287 443.57 180.287H436.578V165.163H443.365C445.121 165.163 446.495 165.498 447.489 166.169C448.483 166.84 448.98 167.799 448.98 169.044C448.98 169.869 448.75 170.573 448.291 171.158C447.832 171.743 447.194 172.178 446.375 172.467H446.377ZM438.596 171.892H443.217C444.408 171.892 445.319 171.672 445.953 171.232C446.586 170.791 446.904 170.148 446.904 169.305C446.904 168.461 446.586 167.828 445.953 167.407C445.319 166.985 444.408 166.773 443.217 166.773H438.596V171.892ZM443.482 178.679C444.809 178.679 445.803 178.467 446.465 178.045C447.128 177.624 447.461 176.961 447.461 176.061C447.461 175.16 447.158 174.495 446.554 174.063C445.951 173.631 444.995 173.417 443.687 173.417H438.599V178.679H443.484H443.482ZM467.82 173.358H454.949C455.067 174.929 455.679 176.2 456.793 177.167C457.904 178.135 459.308 178.62 461.004 178.62C461.96 178.62 462.839 178.452 463.637 178.117C464.437 177.781 465.128 177.286 465.713 176.636L466.884 177.959C466.201 178.765 465.348 179.377 464.324 179.799C463.3 180.22 462.175 180.432 460.946 180.432C459.366 180.432 457.968 180.101 456.748 179.442C455.527 178.781 454.578 177.865 453.895 176.695C453.215 175.527 452.871 174.203 452.871 172.727C452.871 171.251 453.198 169.927 453.851 168.759C454.503 167.589 455.402 166.679 456.543 166.027C457.682 165.377 458.967 165.049 460.39 165.049C461.815 165.049 463.091 165.377 464.221 166.027C465.352 166.679 466.24 167.585 466.884 168.745C467.528 169.904 467.85 171.232 467.85 172.727L467.82 173.36V173.358ZM460.39 166.803C458.907 166.803 457.663 167.266 456.66 168.197C455.656 169.126 455.086 170.338 454.949 171.834H465.86C465.723 170.338 465.154 169.126 464.149 168.197C463.144 167.266 461.892 166.803 460.39 166.803ZM472.441 165.165H474.519V171.863H484.201V165.165H486.277V180.289H484.201V173.618H474.519V180.289H472.441V165.165ZM492.187 165.165H494.265V171.863H503.946V165.165H506.022V180.289H503.946V173.618H494.265V180.289H492.187V165.165ZM517.227 165.049C519.234 165.049 520.775 165.542 521.848 166.53C522.921 167.518 523.457 168.977 523.457 170.913V180.287H521.466V177.93C520.999 178.716 520.312 179.331 519.403 179.769C518.496 180.21 517.419 180.43 516.171 180.43C514.455 180.43 513.09 180.027 512.075 179.222C511.059 178.417 510.553 177.353 510.553 176.03C510.553 174.747 511.025 173.711 511.972 172.924C512.917 172.138 514.423 171.743 516.491 171.743H521.376V170.825C521.376 169.521 521.007 168.529 520.267 167.849C519.525 167.17 518.443 166.83 517.02 166.83C516.045 166.83 515.108 166.987 514.212 167.304C513.314 167.618 512.544 168.057 511.9 168.612L510.965 167.088C511.744 166.438 512.68 165.932 513.773 165.578C514.865 165.224 516.015 165.045 517.225 165.045L517.227 165.049ZM516.495 178.823C517.666 178.823 518.669 178.559 519.507 178.033C520.346 177.506 520.969 176.745 521.379 175.747V173.274H516.553C513.92 173.274 512.604 174.176 512.604 175.978C512.604 176.86 512.945 177.555 513.628 178.062C514.31 178.57 515.266 178.823 516.495 178.823ZM540.804 165.167V180.291H538.903V175.29H534.077H533.49L529.923 180.291H527.67L531.504 175C530.313 174.675 529.396 174.117 528.754 173.333C528.11 172.547 527.789 171.551 527.789 170.343C527.789 168.657 528.374 167.371 529.545 166.49C530.715 165.607 532.315 165.169 534.341 165.169H540.806L540.804 165.167ZM529.893 170.399C529.893 172.641 531.346 173.763 534.252 173.763H538.903V166.977H534.399C531.395 166.977 529.895 168.118 529.895 170.399H529.893ZM559.964 173.562H556.455V180.289H554.377V165.165H556.455V171.806H559.994L565.406 165.165H567.659L561.605 172.496L568.097 180.289H565.641L559.966 173.562H559.964ZM577.166 180.434C575.683 180.434 574.348 180.103 573.157 179.444C571.969 178.784 571.032 177.867 570.35 176.697C569.669 175.529 569.326 174.206 569.326 172.729C569.326 171.253 569.667 169.929 570.35 168.761C571.032 167.591 571.969 166.681 573.157 166.029C574.348 165.379 575.683 165.052 577.166 165.052C578.649 165.052 579.984 165.379 581.173 166.029C582.363 166.681 583.293 167.591 583.967 168.761C584.639 169.929 584.974 171.253 584.974 172.729C584.974 174.206 584.639 175.529 583.967 176.697C583.295 177.865 582.363 178.781 581.173 179.444C579.984 180.105 578.647 180.434 577.166 180.434ZM577.166 178.622C578.258 178.622 579.238 178.379 580.106 177.888C580.974 177.399 581.651 176.705 582.139 175.804C582.625 174.902 582.869 173.876 582.869 172.727C582.869 171.576 582.625 170.55 582.139 169.651C581.651 168.751 580.974 168.055 580.106 167.566C579.238 167.077 578.258 166.832 577.166 166.832C576.074 166.832 575.094 167.075 574.226 167.566C573.358 168.055 572.675 168.749 572.178 169.651C571.681 170.552 571.431 171.578 571.431 172.727C571.431 173.876 571.681 174.902 572.178 175.804C572.675 176.705 573.358 177.399 574.226 177.888C575.094 178.377 576.074 178.622 577.166 178.622ZM606.622 165.167V180.291H604.722V168.331L598.492 178.452H597.555L591.326 168.302V180.291H589.425V165.167H591.531L598.055 176.064L604.694 165.167H606.625H606.622ZM626.34 165.167V180.291H624.264V166.979H614.61V180.291H612.532V165.167H626.34ZM637.543 165.052C639.55 165.052 641.091 165.544 642.164 166.532C643.237 167.52 643.772 168.979 643.772 170.915V180.289H641.782V177.932C641.315 178.719 640.628 179.333 639.719 179.771C638.812 180.212 637.735 180.432 636.487 180.432C634.771 180.432 633.406 180.029 632.39 179.224C631.375 178.419 630.869 177.355 630.869 176.032C630.869 174.749 631.341 173.713 632.288 172.926C633.233 172.14 634.739 171.746 636.807 171.746H641.692V170.827C641.692 169.523 641.323 168.531 640.583 167.851C639.84 167.172 638.759 166.832 637.336 166.832C636.361 166.832 635.424 166.989 634.528 167.306C633.63 167.621 632.86 168.059 632.215 168.615L631.281 167.09C632.06 166.44 632.996 165.934 634.089 165.58C635.181 165.226 636.331 165.047 637.54 165.047L637.543 165.052ZM636.811 178.825C637.982 178.825 638.985 178.561 639.823 178.035C640.662 177.508 641.285 176.747 641.694 175.749V173.276H636.868C634.236 173.276 632.919 174.178 632.919 175.98C632.919 176.863 633.261 177.557 633.943 178.064C634.626 178.572 635.582 178.825 636.811 178.825ZM649.302 165.169H651.38V171.867H661.062V165.169H663.138V180.293H661.062V173.623H651.38V180.293H649.302V165.169ZM669.047 165.169H671.125V177.188L681.391 165.169H683.235V180.293H681.159V168.275L670.92 180.293H669.047V165.169ZM700.989 165.169V180.293H699.088V175.292H694.262H693.676L690.109 180.293H687.856L691.689 175.002C690.499 174.677 689.582 174.12 688.94 173.335C688.295 172.549 687.975 171.553 687.975 170.345C687.975 168.659 688.56 167.373 689.731 166.492C690.9 165.609 692.5 165.171 694.527 165.171H700.991L700.989 165.169ZM690.079 170.401C690.079 172.643 691.532 173.765 694.437 173.765H699.088V166.979H694.585C691.581 166.979 690.081 168.12 690.081 170.401H690.079ZM245.046 171.609H252.709V173.392H245.046V171.609Z" fill="#FEFEFE"/>
</svg>
