<svg width="66" height="60" fill="none" xmlns="http://www.w3.org/2000/svg"><path fill-rule="evenodd" clip-rule="evenodd" d="M1.5 24.145L12.36 5.359C14.356 1.9 17.648.001 21.646.001H43.36c3.999 0 7.287 1.9 9.288 5.358l10.855 18.786c1.998 3.459 1.998 7.254 0 10.713L52.647 53.644c-1.998 3.459-5.29 5.358-9.288 5.358H21.644c-3.998 0-7.287-1.9-9.288-5.358L1.498 34.858C-.5 31.4-.5 27.604 1.498 24.145H1.5z" fill="#EE3147"/><path d="M41.232 23.92l.963-.202a.08.08 0 01.084.035l1.59 2.285a.88.88 0 00.051.064l1.352 1.412c.215.224.495.337.777.337.283 0 .562-.113.778-.337l2.575-2.692c.209-.218.321-.507.321-.812a1.18 1.18 0 00-.32-.812l-1.353-1.411a.488.488 0 00-.06-.055l-2.101-1.598a1.06 1.06 0 00-.267-.962l-.559-.584a.49.49 0 00-.713 0 .545.545 0 000 .744l.546.571-.013.016-2.627 2.747c-.086-.003-.176 0-.263.019l-.964.202a1.18 1.18 0 01-.934-.199c-.003 0-.003-.003-.006-.006-.03-.02-.055-.042-.08-.064l-.01-.01a1.157 1.157 0 01-.071-.067l-2.486-2.596a.403.403 0 010-.555l1.477-1.543a1.481 1.481 0 00.004-2.025c-1.092-1.142-2.73-1.495-4.156-.918l-.138-.144c1.744-1.354 4.21-1.187 5.774.45l2.509 2.62a.49.49 0 00.712 0 .545.545 0 000-.744l-2.508-2.621c-2.04-2.13-5.318-2.23-7.47-.225a.687.687 0 00-.212.475.672.672 0 00.183.485l.614.641a.619.619 0 00.716.132 2.795 2.795 0 013.26.597.395.395 0 01-.004.535l-1.477 1.544a1.503 1.503 0 00-.084 1.954l-4.178 4.168-11.687-12.209a.579.579 0 00-.064-.06.034.034 0 00-.013-.01c-.02-.017-.039-.03-.058-.045h-.003a.814.814 0 00-.925 0h-.003c-.02.013-.039.029-.058.045l-.01.01c-.022.018-.041.038-.064.06l-3.317 3.465a.911.911 0 000 1.245l1.73 1.807 2.329 2.432a.49.49 0 00.713 0 .545.545 0 000-.745l-1.972-2.06 1.018-1.062a.545.545 0 000-.744.49.49 0 00-.713 0l-1.018 1.065-1.256-1.312 1.847-1.931 27.71 28.947-1.847 1.931-1.255-1.312 1.017-1.065a.545.545 0 000-.745.49.49 0 00-.712 0l-1.019 1.066-5.408-5.65 1.018-1.066a.545.545 0 000-.744.49.49 0 00-.713 0l-1.018 1.065-5.408-5.65 1.018-1.062a.545.545 0 000-.745.49.49 0 00-.713 0l-1.018 1.066-5.409-5.65 1.018-1.066a.545.545 0 000-.744.49.49 0 00-.713 0l-1.018 1.065-1.994-2.082a.49.49 0 00-.713 0 .545.545 0 000 .744l6.083 6.356-12.14 12.112a1.51 1.51 0 00-.44 1.062c-.003.405.144.787.417 1.072l2.072 2.166c.27.282.63.436 1.008.436.34 0 .672-.128.928-.36.036-.031.071-.066.107-.102l11.594-12.683L44.206 46.47a.826.826 0 001.195 0l3.317-3.465a.911.911 0 000-1.245l-12.92-13.498 4.091-4.476c.411.189.877.243 1.333.147l.01-.013zm4.063-2.939l2.071 1.576 1.327 1.383a.09.09 0 01.025.067.09.09 0 01-.026.067l-2.575 2.692a.091.091 0 01-.129 0l-1.326-1.386-1.506-2.162 2.139-2.237zm-28.886 21.88a.445.445 0 01-.122-.27v-.045c0-.119.048-.231.129-.311L26.683 31.99l.219.228-10.38 10.761-.116-.119h.003zm1.243 1.299l-.414-.433 10.38-10.762.337.353L17.652 44.16zm1.43.86a.408.408 0 01-.601.006l-.116-.119 10.3-10.841.218.227-9.805 10.727h.003zm10.505-11.49l-2.168-2.265 1.16-1.155 2.116 2.21-1.105 1.21h-.003zm18.312 8.836l-.52.542-27.71-28.944.52-.542 11.919 12.45.787.82 15.001 15.674h.003zM35.098 27.501l-1.911-1.996 4.172-4.164.475.497 1.246 1.3-3.986 4.36.004.003z" fill="#FEFEFE"/></svg>