<svg width="66" height="59" fill="none" xmlns="http://www.w3.org/2000/svg"><path fill-rule="evenodd" clip-rule="evenodd" d="M1.503 24.143L12.36 5.36c2-3.461 5.289-5.36 9.289-5.36h21.713c3.996 0 7.29 1.898 9.29 5.359l10.856 18.784c2 3.46 2 7.253 0 10.714L52.65 53.64c-2 3.46-5.289 5.359-9.289 5.359H21.65c-3.996 0-7.29-1.898-9.29-5.359L1.504 34.857c-2-3.46-2-7.253 0-10.714z" fill="#EE3147"/><path d="M45.761 36.601a.513.513 0 00-.553.108l-5.526 5.538a.504.504 0 00-.108.552.502.502 0 00.466.312h5.526a.51.51 0 00.507-.507v-5.538a.513.513 0 00-.312-.469v.004zm-4.499 5.5l3.8-3.81v3.81h-3.8z" fill="#FEFEFE"/><path d="M49.416 28.48a.5.5 0 00-.549.112l-1.513 1.517v-10.32a.506.506 0 00-.508-.506h-3.883l1.41-1.412 1.36-1.363a1.54 1.54 0 000-2.185L44.16 12.75a1.533 1.533 0 00-2.179 0l-3.001 3.007-3.518 3.527H19.765V14.27a.506.506 0 00-.507-.507 3.985 3.985 0 00-3.975 3.988v21.526c0 .038.004.075.012.108.07.931.474 1.8 1.144 2.456a3.804 3.804 0 002.673 1.088h15.452l-2.911 2.916a.504.504 0 00-.108.553.501.501 0 00.466.311h17.214a.51.51 0 00.507-.507V28.95a.513.513 0 00-.312-.469h-.004zm-6.723-15.017a.527.527 0 01.748 0l1.572 1.575a.531.531 0 010 .752l-1.002 1.005-2.32-2.327 1.002-1.005zm-1.718 1.72l2.32 2.326-.927.93-2.32-2.326.927-.93zm7.743 19.462h-.932a.506.506 0 100 1.014h.932v1.528h-.932a.506.506 0 100 1.014h.932v1.528h-.932a.506.506 0 100 1.014h.932v1.529h-.932a.506.506 0 100 1.014h.932v2.417h-15.49l5.107-5.118a.514.514 0 00-.07-.777.506.506 0 00-.645.058l-2.05 2.052H19.108c-1.534 0-2.77-1.2-2.815-2.733.004-.096.008-.191.02-.287.005-.045.013-.09.022-.133 0-.004 0-.008.004-.016l.025-.116.008-.034.025-.1c.004-.016.008-.037.017-.053l.025-.08.025-.074c.004-.017.012-.033.016-.054l.038-.1c.004-.008.008-.016.012-.029.017-.041.038-.079.054-.12 0 0 0-.004.004-.004a2.972 2.972 0 012.071-1.62h.008a3.03 3.03 0 01.13-.025c.008 0 .012-.005.02-.005.038-.004.075-.008.116-.016.013 0 .021-.004.034-.004.037-.005.075-.005.112-.009.012 0 .025-.004.037-.004.05-.004.1-.004.15-.004a.51.51 0 00.507-.507v-3.676a.506.506 0 10-1.014 0v3.198a3.948 3.948 0 00-2.458 1.3v-18.87a2.974 2.974 0 012.462-2.929v15.275a.506.506 0 101.015 0v-9.796h14.686l-2.794 2.804a.509.509 0 000 .715c.2.2.52.2.715 0l3.659-3.668 3.31-3.32 2.32 2.327-.274.274-10.196 10.22-2.32-2.327 2.008-2.015a.509.509 0 000-.714c-.2-.2-.52-.2-.715 0L27.81 26.96c-.012.012-.025.025-.038.041-.004.004-.008.009-.008.013-.008.008-.012.02-.02.029-.005.004-.009.012-.013.016l-.017.03-.008.02-.012.03c0 .003-.005.008-.005.008l-.985 2.795-.67 1.907a.427.427 0 00-.02.079h-1.68a.506.506 0 100 1.014h14.004a.506.506 0 100-1.014H28.293l3.086-1.093c.004 0 .004 0 .008-.004.012-.004.025-.008.037-.016.005-.005.009-.005.013-.009a.173.173 0 00.037-.02c.004 0 .009-.005.013-.009l.037-.025c.004-.004.008-.004.008-.008.013-.012.03-.025.042-.037L41.977 20.28h4.391v10.825l-7.235 7.25a.509.509 0 000 .714c.013.012.025.025.038.033a.51.51 0 00.678-.033l8.894-8.915v4.47l-.025.02zM30.26 30.158l-1.447.511-.965-.968.512-1.45 1.9 1.907z" fill="#FEFEFE"/></svg>