<svg width="66" height="59" fill="none" xmlns="http://www.w3.org/2000/svg"><path fill-rule="evenodd" clip-rule="evenodd" d="M1.5 24.144L12.359 5.358c2-3.458 5.29-5.356 9.288-5.356H43.36c3.997 0 7.289 1.898 9.287 5.356l10.857 18.786c1.998 3.459 1.998 7.256 0 10.714L52.645 53.644C50.647 57.103 47.356 59 43.358 59H21.644c-3.997 0-7.288-1.897-9.287-5.356L1.499 34.858C-.5 31.4-.5 27.603 1.499 24.144h.002z" fill="#EE3147"/><path fill-rule="evenodd" clip-rule="evenodd" d="M49.222 20.428h-5.408a.504.504 0 00-1.008 0H20.284a.504.504 0 00-.505.504v15.232a.504.504 0 100 1.008v5.762c0 .277.227.504.505.504H49.22a.504.504 0 00.504-.504V20.932a.504.504 0 00-.504-.504h.002zm-.504 22.002h-27.93V21.436h27.93V42.43z" fill="#FEFEFE"/><path fill-rule="evenodd" clip-rule="evenodd" d="M46.825 33.44a.504.504 0 00-.504.505v2.639l-7.43-6.623a.505.505 0 00-.67 0l-4.586 4.088-3.378-3.011a.505.505 0 00-.671 0l-2.838 2.53a.502.502 0 10.669.75l2.503-2.231 8.62 7.683H23.182v-1.678l2.707-2.413a.502.502 0 10-.67-.75l-2.035 1.815v-8.895a.504.504 0 00-1.008 0v12.426c0 .277.224.504.504.504h24.142a.504.504 0 00.504-.504v-6.332a.505.505 0 00-.504-.504l.002.002zm-.504 6.331h-6.266l-5.663-5.049 4.164-3.712 7.765 6.921v1.84z" fill="#FEFEFE"/><path fill-rule="evenodd" clip-rule="evenodd" d="M46.825 23.084H22.682a.505.505 0 00-.504.504v2.247a.504.504 0 001.009 0v-1.744h23.135v7.84a.505.505 0 001.009 0v-8.343a.504.504 0 00-.504-.504h-.002zm-3.513-5.494a.504.504 0 00-.504.503v.814a.504.504 0 001.008 0v-.814a.504.504 0 00-.504-.504zm0-2.025h-.504a.504.504 0 100 1.007.504.504 0 001.008 0v-.504a.504.504 0 00-.504-.504zm-13.286 0h-.959a.504.504 0 100 1.007h.959a.504.504 0 100-1.007zm-8.246 0h-.96a.504.504 0 100 1.007h.96a.504.504 0 100-1.007zm5.496 0h-.958a.504.504 0 100 1.007h.958a.504.504 0 100-1.007zm-2.747 0h-.959a.504.504 0 100 1.007h.959a.504.504 0 100-1.007zm16.491 0h-.96a.504.504 0 100 1.007h.96a.504.504 0 100-1.007zm-5.498 0h-.959a.504.504 0 100 1.007h.96a.504.504 0 100-1.007zm2.748 0h-.959a.504.504 0 100 1.007h.959a.504.504 0 100-1.007zm-5.497 0h-.959a.504.504 0 100 1.007h.96a.504.504 0 100-1.007zm-13.741 0h-.959a.504.504 0 100 1.007h.96a.504.504 0 100-1.007zm-2.749 0h-.504a.504.504 0 00-.504.503v.504a.504.504 0 001.008 0 .504.504 0 100-1.007zm-.503 17.149a.504.504 0 00-.504.504v1.027a.504.504 0 001.009 0v-1.027a.504.504 0 00-.504-.504zm0-14.728a.504.504 0 00-.504.503v1.028a.504.504 0 001.009 0v-1.028a.504.504 0 00-.504-.503zm0 11.784a.504.504 0 00-.504.503V31.3a.504.504 0 001.009 0v-1.027a.504.504 0 00-.504-.503zm0-5.892a.504.504 0 00-.504.504v1.027a.504.504 0 001.009 0v-1.027a.504.504 0 00-.504-.504zm0-2.946a.504.504 0 00-.504.504v1.027a.504.504 0 001.009 0v-1.027a.504.504 0 00-.504-.504zm0 5.891a.504.504 0 00-.504.504v1.027a.504.504 0 001.009 0v-1.027a.504.504 0 00-.504-.504zm.503 9.34a.504.504 0 00-1.008 0v.503c0 .278.224.504.504.504h.504a.504.504 0 100-1.007zm2.119 0h-.739a.504.504 0 100 1.007h.74a.504.504 0 100-1.007z" fill="#FEFEFE"/><path fill-rule="evenodd" clip-rule="evenodd" d="M33.699 25.162a2.415 2.415 0 00-2.414 2.41 2.415 2.415 0 002.414 2.412 2.415 2.415 0 002.414-2.411 2.415 2.415 0 00-2.414-2.411zm0 3.815a1.406 1.406 0 110-2.808 1.406 1.406 0 010 2.808z" fill="#FEFEFE"/></svg>