<svg width="65" height="59" fill="none" xmlns="http://www.w3.org/2000/svg"><path fill-rule="evenodd" clip-rule="evenodd" d="M1.5 24.143L12.357 5.357C14.356 1.899 17.647 0 21.644 0h21.714c3.997 0 7.288 1.898 9.287 5.357l10.857 18.786c1.999 3.46 1.999 7.255 0 10.714L52.645 53.643C50.646 57.101 47.355 59 43.358 59H21.645c-3.998 0-7.29-1.898-9.287-5.357L1.5 34.857c-1.998-3.46-1.998-7.255 0-10.714z" fill="#EE3147"/><path d="M20.64 31.835a2.08 2.08 0 002.077-2.075 2.08 2.08 0 00-2.078-2.076 2.08 2.08 0 00-2.078 2.076 2.08 2.08 0 002.078 2.075zm0-3.142c.587 0 1.067.48 1.067 1.067a1.069 1.069 0 01-2.136 0c0-.588.478-1.067 1.068-1.067zm6.007 1.682a1.47 1.47 0 00-2.94 0 1.471 1.471 0 002.94 0zm-1.93 0a.46.46 0 01.92 0 .46.46 0 01-.92 0zm-.318 8.932H27.1a.505.505 0 100-1.009h-2.7a.505.505 0 100 1.009zm12.612-.504a.504.504 0 00-.505-.505H28.52a.504.504 0 100 1.009h7.986c.28 0 .505-.226.505-.504zm3.593-.505h-2.445a.505.505 0 100 1.009h2.445a.505.505 0 100-1.009zm-12.356 3.03a.505.505 0 00-.505-.504h-3.344a.505.505 0 100 1.009h3.344c.28 0 .505-.226.505-.504zm1.47-.504a.504.504 0 100 1.009h5.71a.504.504 0 100-1.009h-5.71zm10.886 0h-3.22a.505.505 0 000 1.009h3.22a.505.505 0 100-1.009zM24.399 43.35a.505.505 0 100 1.009h2.06a.505.505 0 100-1.009h-2.06zm3.535 1.009h9.07a.504.504 0 100-1.009h-9.07a.504.504 0 100 1.009zm12.67-1.009h-1.895a.504.504 0 100 1.009h1.895a.505.505 0 100-1.009zm6.923-18.656h-.204v-4.006a.843.843 0 00-.842-.841h-2.035v-6.544c0-.557-.454-1.011-1.012-1.011H21.569c-.557 0-1.011.454-1.011 1.011v6.544H18.52a.843.843 0 00-.841.84v4.007h-.204a2.2 2.2 0 00-2.2 2.197v7.25a.505.505 0 001.01 0v-7.25a1.19 1.19 0 011.19-1.188h30.05a1.19 1.19 0 011.19 1.187v12.747a1.19 1.19 0 01-1.19 1.187h-1.034v-4.918a.842.842 0 00-.842-.842H19.352a.843.843 0 00-.842.842v4.918h-1.034a1.19 1.19 0 01-1.19-1.187v-3.124a.504.504 0 10-1.009 0v3.124a2.2 2.2 0 002.2 2.196h3.08v4.011c0 .477.389.865.866.865h22.158a.866.866 0 00.865-.865v-1.058a.504.504 0 00-1.01 0v.913H21.569v-9.625h21.869v6.41a.505.505 0 001.01 0v-.65h3.08a2.2 2.2 0 002.2-2.197V26.89a2.2 2.2 0 00-2.2-2.196zm-26.97 0H18.69v-3.838h1.867v3.838zm22.879-.016H21.568l.001-11.377h12.148l9.719.002v11.375zm2.877.016h-1.867v-3.838h1.867v3.838zm-25.756 16.13h-1.036v-4.75h1.036v4.75zm24.924 0h-1.035v-4.75h1.035v4.75z" fill="#FEFEFE"/></svg>