<svg width="702" height="186" fill="none" xmlns="http://www.w3.org/2000/svg"><path d="M386.302 100.098V87.492h32.961v29.76c-3.196 3.072-7.842 5.765-13.935 8.11-6.079 2.325-12.242 3.489-18.495 3.489-7.932 0-14.838-1.631-20.737-4.913-5.882-3.282-10.316-7.988-13.285-14.082-2.968-6.095-4.451-12.745-4.451-19.917 0-7.78 1.662-14.69 4.965-20.749 3.32-6.043 8.16-10.695 14.537-13.927 4.875-2.483 10.917-3.716 18.16-3.716 9.415 0 16.782 1.944 22.081 5.835 5.283 3.907 8.692 9.27 10.209 16.15l-15.263 2.812c-1.06-3.664-3.072-6.564-6.023-8.701-2.931-2.118-6.607-3.177-11.023-3.177-6.676 0-11.994 2.084-15.933 6.268-3.94 4.186-5.918 10.383-5.918 18.597 0 8.873 1.997 15.523 5.989 19.95 4.008 4.427 9.238 6.65 15.721 6.65 3.198 0 6.413-.625 9.628-1.858 3.233-1.233 5.989-2.743 8.302-4.515v-9.464h-17.488l-.002.004zm40.638 27.401V52.906h32.27c8.107 0 14.008.678 17.682 2.014 3.691 1.335 6.624 3.716 8.83 7.136 2.208 3.437 3.322 7.344 3.322 11.754 0 5.61-1.66 10.228-4.998 13.875-3.339 3.647-8.321 5.939-14.962 6.893 3.302 1.892 6.022 3.976 8.16 6.25 2.155 2.275 5.052 6.32 8.692 12.121l9.257 14.55h-18.318l-10.985-16.287c-3.941-5.781-6.644-9.428-8.107-10.94-1.451-1.493-2.987-2.536-4.611-3.09-1.642-.555-4.222-.834-7.755-.834h-3.108V127.5H426.94zm15.367-43.027h11.339c7.35 0 11.924-.312 13.761-.92 1.82-.609 3.268-1.668 4.292-3.16 1.041-1.494 1.556-3.369 1.556-5.609 0-2.518-.69-4.532-2.051-6.096-1.359-1.546-3.285-2.519-5.758-2.917-1.254-.174-4.981-.26-11.181-.26h-11.958v18.962zm51.482 6.18c0-7.604 1.165-13.994 3.48-19.167 1.713-3.802 4.079-7.223 7.063-10.245 2.987-3.02 6.256-5.26 9.806-6.736 4.734-1.963 10.193-2.953 16.374-2.953 11.198 0 20.138 3.42 26.869 10.245 6.711 6.84 10.067 16.339 10.067 28.51 0 12.069-3.339 21.515-9.997 28.32-6.658 6.824-15.578 10.227-26.726 10.227-11.288 0-20.278-3.384-26.939-10.175-6.658-6.771-9.997-16.112-9.997-28.024v-.002zm15.792-.503c0 8.456 1.997 14.862 5.971 19.239 3.975 4.358 9.027 6.545 15.137 6.545 6.129 0 11.147-2.17 15.086-6.495 3.921-4.341 5.882-10.835 5.882-19.499 0-8.56-1.908-14.95-5.742-19.153-3.814-4.22-8.883-6.32-15.226-6.32-6.323 0-11.427 2.137-15.297 6.39-3.87 4.271-5.813 10.695-5.813 19.29l.002.003zm63.318-37.245h15.368v40.422c0 6.424.194 10.574.565 12.468.653 3.055 2.191 5.521 4.627 7.362 2.456 1.859 5.795 2.779 10.034 2.779 4.292 0 7.542-.868 9.733-2.623 2.189-1.754 3.496-3.888 3.938-6.443.442-2.552.672-6.771.672-12.675v-41.29h15.367v39.223c0 8.958-.405 15.296-1.235 18.995-.832 3.697-2.349 6.824-4.576 9.377-2.208 2.552-5.176 4.567-8.884 6.077-3.727 1.51-8.568 2.273-14.556 2.273-7.224 0-12.701-.816-16.428-2.466-3.727-1.65-6.675-3.785-8.849-6.423-2.174-2.639-3.587-5.384-4.276-8.284-1.007-4.272-1.502-10.593-1.502-18.943v-39.83l.002.001zm70.029 74.593V52.904h24.571c9.31 0 15.369.363 18.196 1.112 4.346 1.128 7.983 3.559 10.917 7.31 2.931 3.752 4.399 8.596 4.399 14.533 0 4.585-.849 8.42-2.526 11.547-1.696 3.125-3.834 5.574-6.43 7.363-2.597 1.772-5.247 2.953-7.933 3.525-3.656.713-8.937 1.076-15.862 1.076h-9.963v28.129H642.93l-.002-.002zm15.367-61.987v21.252h8.357c6.022 0 10.033-.4 12.064-1.18 2.031-.783 3.621-1.997 4.771-3.681 1.147-1.667 1.73-3.594 1.73-5.815 0-2.727-.811-4.966-2.42-6.738-1.625-1.77-3.656-2.882-6.146-3.335-1.82-.329-5.477-.503-10.987-.503h-7.369z" fill="#FEFEFE"/><path fill-rule="evenodd" clip-rule="evenodd" d="M94.429 52.904h43.93c7.313 0 12.93 1.787 16.852 5.348 3.921 3.559 5.882 7.969 5.882 13.23 0 4.41-1.398 8.196-4.205 11.338a13.913 13.913 0 01-2.317 2.086c-6.902-1.451-14.066-2.541-21.209-3.305 1.08-.306 1.941-.734 2.575-1.281 1.432-1.25 2.155-3.039 2.155-5.383 0-2.171-.723-3.872-2.155-5.088-1.429-1.233-3.938-1.841-7.49-1.841h-10.386v12.44c-8.357-.374-16.396-.315-23.634.11V52.905h.002zM83.774 180.2C33.59 150.336 35 102.56 94.43 92.599v34.898h40.486c1.73 0 5.229-.349 10.51-1.026 3.974-.503 6.942-1.319 8.92-2.43 3.161-1.806 5.67-4.237 7.505-7.326 1.82-3.091 2.737-6.564 2.737-10.435 0-4.742-1.291-8.682-3.851-11.824a14.603 14.603 0 00-1.158-1.258c4.839.839 9.502 1.85 13.906 3.033v1.107c0 3.664.725 7.864 2.174 12.606.902 2.952 2.562 5.817 4.998 8.596 2.42 2.776 5.106 4.913 8.037 6.423 2.934 1.51 6.59 2.519 10.953 3.022 4.363.503 8.389.764 12.082.764 6.377 0 11.853-.835 16.41-2.483 3.269-1.198 6.394-3.247 9.379-6.181 2.985-2.934 5.176-6.354 6.571-10.28 1.397-3.907 2.104-8.074 2.104-12.467V52.906h-23.424V98.4c0 4.131-1.147 7.325-3.426 9.567-2.295 2.257-5.457 3.387-9.468 3.387-4.062 0-7.243-1.147-9.539-3.439-.348-.348-.67-.718-.966-1.108a99.064 99.064 0 00-2.068-1.143C165.243 77.408 47.534 73.36 27.552 122.402c-12.962 31.576 17.034 59.071 56.221 57.802l.002-.004zm34.289-68.748h11.96c4.045 0 6.889-.713 8.549-2.118 1.66-1.407 2.49-3.282 2.49-5.66 0-2.204-.811-3.978-2.456-5.314-1.643-1.336-4.523-2.013-8.638-2.013h-11.907v15.105h.002zm55.425-21.327V52.902h23.423v45.493c0 2.051.292 3.875.875 5.473-5.95-5.706-14.433-10.24-24.298-13.744zm87.857-37.222h34.852c6.853 0 12.417.919 16.639 2.743 4.222 1.841 7.719 4.463 10.492 7.883 2.755 3.44 4.752 7.416 5.989 11.964 1.255 4.549 1.873 9.36 1.873 14.447 0 7.97-.917 14.152-2.773 18.545-1.839 4.391-4.399 8.074-7.685 11.044-3.285 2.969-6.801 4.947-10.563 5.939-5.141 1.352-9.805 2.032-13.972 2.032h-34.852V52.902zm23.421 16.878v40.734h5.759c4.911 0 8.41-.539 10.492-1.598 2.067-1.078 3.691-2.936 4.877-5.591 1.184-2.676 1.766-6.981 1.766-12.954 0-7.9-1.307-13.3-3.94-16.217-2.631-2.917-6.996-4.374-13.089-4.374h-5.865z" fill="#FEFEFE"/><path fill-rule="evenodd" clip-rule="evenodd" d="M23.366 144.2c-9.323-13.455-2.887-30.331 16.385-49.987 28.635-29.21 38.974-67.212.804-94.131 19.367 25.5-85.395 86.334-17.19 144.118z" fill="#FEFEFE"/><path d="M102.022 165.041c1.444 0 2.75.321 3.919.963a6.933 6.933 0 012.75 2.718c.663 1.168.996 2.501.996 3.997 0 1.514-.333 2.856-.996 4.026a6.996 6.996 0 01-2.733 2.716c-1.161.642-2.473.962-3.936.962-1.248 0-2.375-.253-3.378-.761-1.005-.507-1.828-1.25-2.472-2.229v8.426h-2.078v-20.703h1.99v2.989a6.356 6.356 0 012.473-2.301c1.024-.537 2.178-.805 3.465-.805v.002zm-.145 13.573c1.073 0 2.048-.244 2.925-.734a5.233 5.233 0 002.063-2.085c.497-.902.746-1.927.746-3.076 0-1.152-.247-2.171-.746-3.062a5.35 5.35 0 00-2.063-2.085c-.877-.499-1.852-.746-2.925-.746-1.093 0-2.072.247-2.94.746a5.36 5.36 0 00-2.046 2.085c-.497.891-.747 1.91-.747 3.062 0 1.149.247 2.174.747 3.076a5.25 5.25 0 002.046 2.085c.868.488 1.847.734 2.94.734zm25.742-5.262h-12.871c.117 1.571.729 2.842 1.843 3.808 1.111.969 2.515 1.454 4.211 1.454.956 0 1.835-.168 2.633-.504.8-.335 1.491-.83 2.076-1.48l1.171 1.323a6.578 6.578 0 01-2.56 1.839c-1.024.422-2.148.634-3.377.634-1.581 0-2.979-.332-4.199-.99a7.199 7.199 0 01-2.852-2.748c-.681-1.168-1.024-2.491-1.024-3.967 0-1.477.326-2.8.979-3.968a7.037 7.037 0 012.692-2.733c1.14-.65 2.424-.977 3.847-.977 1.425 0 2.701.327 3.832.977a7.011 7.011 0 012.662 2.718c.644 1.16.967 2.487.967 3.983l-.03.633v-.002zm-7.431-6.556c-1.483 0-2.727.464-3.729 1.395-1.005.929-1.575 2.141-1.711 3.636h10.91c-.136-1.495-.706-2.707-1.711-3.636-1.005-.931-2.257-1.395-3.759-1.395zm17.639 6.757h-3.509v6.728h-2.078v-15.125h2.078v6.642h3.539l5.413-6.642h2.253l-6.055 7.332 6.492 7.793h-2.456l-5.675-6.728h-.002zm23.987-8.394v15.124h-2.078V166.97h-7.371l-.205 3.738c-.158 3.143-.527 5.559-1.112 7.245-.584 1.686-1.63 2.531-3.129 2.531-.41 0-.907-.077-1.492-.23l.147-1.756c.35.078.596.116.73.116.8 0 1.404-.363 1.814-1.093.409-.728.682-1.629.819-2.703.136-1.074.254-2.492.35-4.255l.264-5.404h11.263zm11.202-.116c2.008 0 3.548.493 4.621 1.481 1.074.987 1.609 2.447 1.609 4.383v9.374h-1.99v-2.357c-.468.786-1.155 1.401-2.064 1.839-.906.44-1.984.66-3.232.66-1.715 0-3.08-.402-4.096-1.207-1.015-.806-1.521-1.869-1.521-3.192 0-1.284.471-2.32 1.419-3.106.945-.787 2.451-1.181 4.518-1.181h4.886v-.918c0-1.305-.369-2.297-1.109-2.976-.743-.68-1.825-1.019-3.248-1.019-.975 0-1.911.157-2.807.474-.898.314-1.669.752-2.313 1.308l-.934-1.524c.778-.651 1.715-1.156 2.807-1.51a11.102 11.102 0 013.452-.533l.002.004zm-.731 13.774c1.171 0 2.174-.264 3.012-.791.838-.526 1.461-1.287 1.871-2.285v-2.473h-4.826c-2.632 0-3.949.902-3.949 2.703 0 .883.342 1.577 1.024 2.085.683.507 1.639.761 2.868.761zm29.691-13.656v15.124h-1.901v-11.96l-6.23 10.121h-.936l-6.23-10.15v11.989h-1.901v-15.124h2.106l6.524 10.896 6.639-10.896h1.931-.002zm5.909 0h2.078v6.698h9.682v-6.698h2.076v15.124h-2.076v-6.671h-9.682v6.671h-2.078v-15.124zm26.093 15.267c-1.483 0-2.819-.332-4.009-.99a7.301 7.301 0 01-2.808-2.747c-.68-1.169-1.024-2.492-1.024-3.968 0-1.477.341-2.8 1.024-3.968a7.201 7.201 0 012.808-2.732c1.19-.651 2.526-.978 4.009-.978 1.482 0 2.818.327 4.006.978a7.095 7.095 0 012.795 2.732c.672 1.168 1.007 2.491 1.007 3.968 0 1.476-.335 2.799-1.007 3.968a7.207 7.207 0 01-2.795 2.747c-1.188.66-2.526.99-4.006.99zm0-1.812c1.092 0 2.071-.244 2.939-.734a5.151 5.151 0 002.034-2.085c.486-.902.729-1.927.729-3.076 0-1.152-.243-2.177-.729-3.077a5.161 5.161 0 00-2.034-2.084c-.868-.489-1.847-.734-2.939-.734-1.093 0-2.072.243-2.94.734a5.233 5.233 0 00-2.048 2.084c-.498.902-.747 1.928-.747 3.077s.249 2.174.747 3.076a5.236 5.236 0 002.048 2.085c.868.488 1.847.734 2.94.734zm37.237-13.455v15.124h-2.076v-13.312h-9.654v13.312h-2.078v-15.124h13.808zm13.835-.116c1.444 0 2.75.321 3.919.963a6.933 6.933 0 012.75 2.718c.664 1.168.997 2.502.997 3.997 0 1.514-.333 2.856-.997 4.026a6.983 6.983 0 01-2.733 2.716c-1.16.642-2.472.963-3.936.963-1.248 0-2.374-.254-3.377-.762a6.34 6.34 0 01-2.473-2.229v8.426h-2.078v-20.702h1.991v2.988a6.355 6.355 0 012.472-2.301c1.024-.536 2.179-.805 3.465-.805v.002zm-.145 13.573c1.073 0 2.048-.243 2.925-.734a5.22 5.22 0 002.063-2.085c.497-.901.747-1.927.747-3.076 0-1.151-.248-2.171-.747-3.062a5.34 5.34 0 00-2.063-2.084c-.877-.5-1.852-.747-2.925-.747-1.092 0-2.072.247-2.94.747a5.359 5.359 0 00-2.046 2.084c-.497.891-.747 1.911-.747 3.062 0 1.149.248 2.175.747 3.076a5.25 5.25 0 002.046 2.085c.868.488 1.848.734 2.94.734zm18.634 1.812c-1.483 0-2.819-.332-4.009-.99a7.301 7.301 0 01-2.808-2.747c-.68-1.168-1.024-2.492-1.024-3.968s.342-2.8 1.024-3.968a7.201 7.201 0 012.808-2.732c1.19-.65 2.526-.978 4.009-.978 1.482 0 2.818.328 4.006.978a7.095 7.095 0 012.795 2.732c.672 1.168 1.007 2.492 1.007 3.968s-.335 2.8-1.007 3.968a7.207 7.207 0 01-2.795 2.747c-1.188.661-2.526.99-4.006.99zm0-1.812c1.092 0 2.071-.243 2.939-.734a5.151 5.151 0 002.034-2.085c.486-.901.729-1.927.729-3.076 0-1.151-.243-2.177-.729-3.077a5.161 5.161 0 00-2.034-2.084c-.868-.489-1.847-.734-2.939-.734-1.093 0-2.072.243-2.94.734a5.233 5.233 0 00-2.048 2.084c-.498.902-.747 1.928-.747 3.077s.249 2.175.747 3.076a5.236 5.236 0 002.048 2.085c.868.488 1.847.734 2.94.734zm12.256-13.455h2.078v12.018l10.266-12.018h1.844v15.124h-2.076v-12.018l-10.239 12.018h-1.873v-15.124zm27.291 7.245c1.093.25 1.937.682 2.531 1.294.595.613.893 1.361.893 2.244 0 .881-.309 1.667-.921 2.357-.615.69-1.447 1.223-2.501 1.596-1.053.376-2.212.56-3.479.56-1.112 0-2.204-.159-3.277-.474-1.073-.317-2.01-.782-2.808-1.394l.702-1.525c.702.518 1.521.921 2.456 1.208.936.287 1.881.43 2.837.43 1.423 0 2.59-.264 3.495-.791.906-.528 1.359-1.241 1.359-2.143 0-.805-.369-1.432-1.11-1.883-.742-.451-1.755-.678-3.042-.678h-2.633v-1.493h2.516c1.152 0 2.078-.216 2.778-.648.701-.432 1.053-1.011 1.053-1.738 0-.806-.394-1.437-1.184-1.898-.791-.459-1.819-.69-3.087-.69-1.657 0-3.294.411-4.913 1.235l-.585-1.581c1.833-.94 3.736-1.409 5.703-1.409 1.171 0 2.229.167 3.175.503.947.335 1.687.809 2.223 1.424a3.14 3.14 0 01.804 2.128c0 .768-.269 1.447-.804 2.043-.538.593-1.263 1.036-2.181 1.321v.002zm17.932.059c2.086.48 3.13 1.715 3.13 3.708 0 1.323-.497 2.338-1.492 3.049-.994.709-2.477 1.063-4.446 1.063h-6.991v-15.124h6.786c1.756 0 3.13.335 4.124 1.006.995.671 1.492 1.63 1.492 2.875 0 .825-.231 1.529-.689 2.114-.459.585-1.097 1.02-1.916 1.309h.002zm-7.781-.575h4.621c1.191 0 2.102-.22 2.735-.66.634-.441.952-1.084.952-1.927 0-.844-.318-1.477-.952-1.898-.633-.422-1.544-.634-2.735-.634h-4.621v5.119zm4.886 6.787c1.327 0 2.321-.212 2.982-.634.664-.421.997-1.084.997-1.984 0-.901-.303-1.566-.907-1.998-.604-.432-1.56-.646-2.867-.646h-5.089v5.262h4.886-.002zm17.23 1.753c-1.483 0-2.819-.331-4.009-.99a7.301 7.301 0 01-2.808-2.747c-.68-1.168-1.024-2.492-1.024-3.968s.342-2.8 1.024-3.968a7.201 7.201 0 012.808-2.732c1.19-.65 2.526-.978 4.009-.978 1.482 0 2.818.328 4.006.978a7.095 7.095 0 012.795 2.732c.672 1.168 1.007 2.492 1.007 3.968s-.335 2.8-1.007 3.968a7.207 7.207 0 01-2.795 2.747c-1.188.661-2.526.99-4.006.99zm0-1.812c1.092 0 2.071-.243 2.939-.734a5.151 5.151 0 002.034-2.085c.486-.901.729-1.927.729-3.076 0-1.151-.243-2.177-.729-3.077a5.167 5.167 0 00-2.034-2.084c-.868-.489-1.847-.734-2.939-.734-1.093 0-2.072.243-2.94.734a5.24 5.24 0 00-2.048 2.084c-.498.902-.747 1.928-.747 3.077s.249 2.175.747 3.076a5.236 5.236 0 002.048 2.085c.868.489 1.847.734 2.94.734zm27.173-.115v5.435h-1.958v-3.651H386.79v3.651h-1.961v-5.435h.877c1.033-.057 1.737-.806 2.106-2.242.369-1.437.623-3.452.759-6.038l.205-5.06h11.35v13.34h2.4zm-12.049-8.167c-.099 2.148-.284 3.916-.557 5.304-.273 1.39-.76 2.345-1.462 2.86h9.594v-11.529h-7.398l-.175 3.363-.002.002zm22.522 10.092c-1.521 0-2.88-.325-4.079-.978a7.133 7.133 0 01-2.824-2.747c-.681-1.178-1.024-2.506-1.024-3.982 0-1.477.341-2.8 1.024-3.968a7.157 7.157 0 012.824-2.732c1.199-.651 2.558-.978 4.079-.978 1.327 0 2.511.254 3.555.762a5.875 5.875 0 012.472 2.229l-1.549 1.036a4.835 4.835 0 00-1.93-1.682 5.831 5.831 0 00-2.545-.56c-1.11 0-2.11.243-2.998.734a5.191 5.191 0 00-2.078 2.084c-.497.902-.747 1.928-.747 3.077 0 1.168.25 2.2.747 3.091a5.22 5.22 0 002.078 2.07c.888.489 1.888.734 2.998.734.917 0 1.764-.183 2.545-.547a4.71 4.71 0 001.93-1.668l1.549 1.036a5.829 5.829 0 01-2.485 2.23c-1.054.507-2.234.761-3.539.761l-.003-.002zm20.565-13.455h-5.823v13.312h-2.075v-13.312h-5.822v-1.812h13.718v1.812h.002zm12.813 5.492c2.087.48 3.13 1.715 3.13 3.708 0 1.323-.497 2.338-1.491 3.049-.995.709-2.477 1.063-4.446 1.063h-6.992v-15.124h6.787c1.756 0 3.13.335 4.124 1.006.994.671 1.491 1.63 1.491 2.875 0 .825-.23 1.529-.689 2.114-.459.585-1.097 1.02-1.916 1.309h.002zm-7.781-.575h4.621c1.191 0 2.102-.22 2.736-.66.633-.441.951-1.084.951-1.927 0-.844-.318-1.477-.951-1.898-.634-.422-1.545-.634-2.736-.634h-4.621v5.119zm4.886 6.787c1.327 0 2.321-.212 2.983-.634.663-.421.996-1.084.996-1.984 0-.901-.303-1.566-.907-1.998-.603-.432-1.559-.646-2.867-.646h-5.088v5.262h4.885-.002zm24.338-5.321h-12.871c.118 1.571.73 2.842 1.844 3.809 1.111.968 2.515 1.453 4.211 1.453.956 0 1.835-.168 2.633-.503a5.769 5.769 0 002.076-1.481l1.171 1.323a6.58 6.58 0 01-2.56 1.84c-1.024.421-2.149.633-3.378.633-1.58 0-2.978-.331-4.198-.99a7.206 7.206 0 01-2.853-2.747c-.68-1.168-1.024-2.492-1.024-3.968s.327-2.8.98-3.968a7.021 7.021 0 012.692-2.732c1.139-.65 2.424-.978 3.847-.978 1.425 0 2.701.328 3.831.978a6.993 6.993 0 012.663 2.718c.644 1.159.966 2.487.966 3.982l-.03.633v-.002zm-7.43-6.555c-1.483 0-2.727.463-3.73 1.394-1.004.929-1.574 2.141-1.711 3.637h10.911c-.137-1.496-.706-2.708-1.711-3.637-1.005-.931-2.257-1.394-3.759-1.394zm12.051-1.638h2.078v6.698h9.682v-6.698h2.076v15.124h-2.076v-6.671h-9.682v6.671h-2.078v-15.124zm19.746 0h2.078v6.698h9.681v-6.698h2.076v15.124h-2.076v-6.671h-9.681v6.671h-2.078v-15.124zm25.04-.116c2.007 0 3.548.493 4.621 1.481 1.073.988 1.609 2.447 1.609 4.383v9.374h-1.991v-2.357c-.467.786-1.154 1.401-2.063 1.839-.907.441-1.984.661-3.232.661-1.716 0-3.081-.403-4.096-1.208-1.016-.805-1.522-1.869-1.522-3.192 0-1.283.472-2.319 1.419-3.106.945-.786 2.451-1.181 4.519-1.181h4.885v-.918c0-1.304-.369-2.296-1.109-2.976-.742-.679-1.824-1.019-3.247-1.019a8.36 8.36 0 00-2.808.474c-.898.314-1.668.753-2.312 1.308l-.935-1.524c.779-.65 1.715-1.156 2.808-1.51a11.122 11.122 0 013.452-.533l.002.004zm-.732 13.774c1.171 0 2.174-.264 3.012-.79.839-.527 1.462-1.288 1.872-2.286v-2.473h-4.826c-2.633 0-3.949.902-3.949 2.704 0 .882.341 1.577 1.024 2.084.682.508 1.638.761 2.867.761zm24.309-13.656v15.124h-1.901v-5.001h-5.413l-3.567 5.001h-2.253l3.834-5.291c-1.191-.325-2.108-.883-2.75-1.667-.644-.786-.965-1.782-.965-2.99 0-1.686.585-2.972 1.756-3.853 1.17-.883 2.77-1.321 4.796-1.321h6.465l-.002-.002zm-10.911 5.232c0 2.242 1.453 3.364 4.359 3.364h4.651v-6.786h-4.504c-3.004 0-4.504 1.141-4.504 3.422h-.002zm30.071 3.163h-3.509v6.727h-2.078v-15.124h2.078v6.641h3.539l5.412-6.641h2.253l-6.054 7.331 6.492 7.793h-2.456l-5.675-6.727h-.002zm17.202 6.872c-1.483 0-2.818-.331-4.009-.99a7.292 7.292 0 01-2.807-2.747c-.681-1.168-1.024-2.491-1.024-3.968 0-1.476.341-2.8 1.024-3.968a7.199 7.199 0 012.807-2.732c1.191-.65 2.526-.977 4.009-.977 1.483 0 2.818.327 4.007.977a7.1 7.1 0 012.794 2.732c.672 1.168 1.007 2.492 1.007 3.968 0 1.477-.335 2.8-1.007 3.968a7.211 7.211 0 01-2.794 2.747c-1.189.661-2.526.99-4.007.99zm0-1.812c1.092 0 2.072-.243 2.94-.734a5.153 5.153 0 002.033-2.084c.486-.902.73-1.928.73-3.077 0-1.151-.244-2.177-.73-3.076a5.161 5.161 0 00-2.033-2.085c-.868-.489-1.848-.734-2.94-.734-1.092 0-2.072.243-2.94.734a5.242 5.242 0 00-2.048 2.085c-.497.901-.747 1.927-.747 3.076s.25 2.175.747 3.077a5.246 5.246 0 002.048 2.084c.868.489 1.848.734 2.94.734zm29.456-13.455v15.124h-1.9v-11.96l-6.23 10.121h-.937l-6.229-10.15v11.989h-1.901v-15.124h2.106l6.524 10.897 6.639-10.897h1.931-.003zm19.718 0v15.124h-2.076v-13.312h-9.654v13.312h-2.078v-15.124h13.808zm11.203-.115c2.007 0 3.548.492 4.621 1.48 1.073.988 1.608 2.447 1.608 4.383v9.374h-1.99v-2.357c-.467.787-1.154 1.401-2.063 1.839-.907.441-1.984.661-3.232.661-1.716 0-3.081-.403-4.097-1.208-1.015-.805-1.521-1.869-1.521-3.192 0-1.283.472-2.319 1.419-3.106.945-.786 2.451-1.18 4.519-1.18h4.885v-.919c0-1.304-.369-2.296-1.109-2.976-.743-.679-1.824-1.019-3.247-1.019a8.36 8.36 0 00-2.808.474c-.898.315-1.668.753-2.313 1.309l-.934-1.525c.779-.65 1.715-1.156 2.808-1.51a11.12 11.12 0 013.451-.533l.003.005zm-.732 13.773c1.171 0 2.174-.264 3.012-.79.839-.527 1.462-1.288 1.871-2.286v-2.473h-4.826c-2.632 0-3.949.902-3.949 2.704 0 .883.342 1.577 1.024 2.084.683.508 1.639.761 2.868.761zm12.491-13.656h2.078v6.698h9.682v-6.698h2.076v15.124h-2.076v-6.67h-9.682v6.67h-2.078v-15.124zm19.745 0h2.078v12.019l10.266-12.019h1.844v15.124h-2.076v-12.018l-10.239 12.018h-1.873v-15.124zm31.942 0v15.124h-1.901v-5.001h-5.412l-3.567 5.001h-2.253l3.833-5.291c-1.19-.325-2.107-.882-2.749-1.667-.645-.786-.965-1.782-.965-2.99 0-1.686.585-2.972 1.756-3.853 1.169-.883 2.769-1.321 4.796-1.321h6.464l-.002-.002zm-10.91 5.232c0 2.242 1.453 3.364 4.358 3.364h4.651v-6.786h-4.503c-3.004 0-4.504 1.141-4.504 3.422h-.002zm-445.033 1.208h7.663v1.783h-7.663v-1.783z" fill="#FEFEFE"/></svg>