<svg width="26" height="25" viewBox="0 0 26 25" fill="none" xmlns="http://www.w3.org/2000/svg">
<path d="M24.9024 2.70399C24.6001 1.27908 23.4577 0.232419 22.013 0.0546852C21.9508 0.0470898 21.8915 0.0182292 21.8292 0C15.607 0 9.38632 0 3.1641 0C3.01523 0.031901 2.86483 0.0653187 2.71596 0.0972197C1.13155 0.439016 0.0104547 1.7743 0.00741652 3.38606C-0.00169806 9.46852 -0.00321716 15.551 0.00741652 21.6319C0.0104547 23.3652 1.29865 24.7597 3.03042 24.9633C3.17625 24.98 3.32208 24.9982 3.46792 24.9982C9.48506 24.9998 15.5022 25.0013 21.5193 24.9982C23.1357 24.9982 24.4755 23.9774 24.8705 22.4538C24.9236 22.2517 24.9586 22.0436 25.0026 21.84C25.0026 15.6178 25.0026 9.39713 25.0026 3.17491C24.9707 3.01692 24.9358 2.86046 24.9024 2.70399ZM14.1487 9.95312C14.2505 9.95312 14.331 9.95312 14.41 9.95312C15.1786 9.95312 15.9473 9.9516 16.716 9.95312C17.2005 9.95463 17.3145 10.067 17.3145 10.5425C17.316 11.4312 17.316 12.3183 17.3145 13.207C17.313 13.605 17.2081 13.7114 16.8086 13.7129C15.9351 13.7159 15.0632 13.7144 14.1487 13.7144C14.1487 13.8192 14.1487 13.9104 14.1487 14.003C14.1487 16.3394 14.1487 18.6758 14.1487 21.0106C14.1487 21.6547 14.0803 21.7216 13.4256 21.7216C12.5673 21.7216 11.709 21.7231 10.8507 21.7216C10.392 21.72 10.2795 21.6107 10.2795 21.1549C10.278 18.7821 10.2795 16.4078 10.2795 14.0349C10.2795 13.9468 10.2795 13.8587 10.2795 13.7402C9.84052 13.7402 9.43796 13.7402 9.0354 13.7402C8.69209 13.7402 8.34877 13.7463 8.00546 13.7372C7.64695 13.7281 7.52998 13.6217 7.52694 13.2647C7.51935 12.332 7.51935 11.3993 7.52694 10.4666C7.52998 10.1126 7.65606 10.0017 8.01001 9.99869C8.67386 9.99413 9.33922 9.99717 10.0031 9.99717C10.0851 9.99717 10.1656 9.99717 10.2795 9.99717C10.2795 9.89539 10.278 9.8088 10.2795 9.72373C10.2947 8.87304 10.2628 8.01931 10.3357 7.17469C10.5211 5.02213 12.1647 3.48329 14.3249 3.41341C15.2045 3.38455 16.0855 3.40126 16.9666 3.40277C17.2765 3.40277 17.4026 3.53038 17.4041 3.84179C17.4087 4.71527 17.4087 5.58875 17.4056 6.46072C17.4041 6.79492 17.2871 6.91644 16.9438 6.92404C16.3392 6.93771 15.7346 6.93923 15.13 6.94834C14.4525 6.95898 14.1669 7.2233 14.1532 7.89322C14.1365 8.57226 14.1487 9.24977 14.1487 9.95312Z" fill="white"/>
</svg>
