<svg width="26" height="25" viewBox="0 0 26 25" fill="none" xmlns="http://www.w3.org/2000/svg">
<path d="M24.9024 2.70399C24.6001 1.27908 23.4577 0.232419 22.013 0.0546852C21.9508 0.0470898 21.8915 0.0182292 21.8292 0C15.607 0 9.38632 0 3.1641 0C3.01523 0.031901 2.86484 0.0653187 2.71596 0.0972197C1.13155 0.439016 0.0104547 1.7743 0.00741652 3.38606C-0.00169806 9.46852 -0.00321716 15.551 0.00741652 21.6319C0.0104547 23.3652 1.29865 24.7597 3.03042 24.9633C3.17625 24.98 3.32208 24.9982 3.46792 24.9982C9.48506 24.9998 15.5022 25.0013 21.5193 24.9982C23.1357 24.9982 24.4755 23.9774 24.8705 22.4538C24.9236 22.2517 24.9586 22.0436 25.0026 21.84C25.0026 15.6178 25.0026 9.39713 25.0026 3.17491C24.9707 3.01692 24.9358 2.86046 24.9024 2.70399ZM21.7259 16.8969C21.7259 17.2038 21.7107 17.5167 21.6561 17.8175C21.3431 19.5356 20.3679 20.7341 18.7546 21.3904C18.3414 21.559 17.8811 21.6137 17.4421 21.7216C14.1001 21.7216 10.7581 21.7216 7.41605 21.7216C7.28541 21.6988 7.15476 21.676 7.02564 21.6517C5.31818 21.3296 4.12417 20.362 3.4664 18.7624C3.29474 18.3446 3.24005 17.8798 3.13068 17.4362C3.13068 14.0942 3.13068 10.7537 3.13068 7.41167C3.20359 7.06379 3.24613 6.70681 3.3555 6.37109C3.98897 4.41753 5.74656 3.13541 7.80949 3.12933C10.8902 3.12022 13.9709 3.12478 17.0532 3.12782C18.0497 3.12934 18.9657 3.40581 19.7709 3.99826C21.0803 4.96136 21.7275 6.26779 21.729 7.8917C21.732 10.8934 21.732 13.8952 21.7259 16.8969Z" fill="white"/>
<path d="M19.8968 6.49265C19.2983 5.28952 18.32 4.68037 16.9756 4.68037C13.9496 4.67733 10.922 4.67885 7.89598 4.68188C7.6909 4.68188 7.4843 4.69707 7.28226 4.72442C5.87558 4.9219 4.70891 6.19643 4.69828 7.62286C4.67701 10.7887 4.68917 13.9529 4.68765 17.1187C4.68765 17.5486 4.77272 17.9633 4.96108 18.3477C5.55657 19.5523 6.53183 20.166 7.87775 20.1691C10.9099 20.1736 13.9435 20.1706 16.9756 20.1691C17.1807 20.1691 17.3873 20.1524 17.5893 20.125C18.9702 19.9366 20.1444 18.6485 20.1627 17.2539C20.1839 15.6437 20.1672 14.035 20.1672 12.4247C20.1703 12.4247 20.1718 12.4247 20.1748 12.4247C20.1748 10.9117 20.1718 9.39868 20.1764 7.88566C20.1779 7.39955 20.1125 6.92863 19.8968 6.49265ZM12.4183 17.0716C9.85713 17.0595 7.77901 14.9753 7.78053 12.4202C7.78356 9.85593 9.88295 7.76261 12.4411 7.77477C15.0023 7.78692 17.082 9.87112 17.0789 12.4247C17.0759 14.989 14.9734 17.0838 12.4183 17.0716ZM17.4632 8.54495C16.8237 8.54343 16.3133 8.03149 16.3102 7.39347C16.3072 6.75089 16.8343 6.22225 17.4708 6.22681C18.1043 6.23136 18.6223 6.74937 18.6284 7.38284C18.636 8.01934 18.1058 8.54647 17.4632 8.54495Z" fill="white"/>
<path d="M12.4319 9.32861C10.7214 9.3271 9.34057 10.7019 9.33449 12.4169C9.32842 14.1259 10.7032 15.5083 12.4183 15.5189C14.1318 15.5296 15.5278 14.1381 15.5248 12.4215C15.5233 10.7095 14.144 9.33165 12.4319 9.32861Z" fill="white"/>
</svg>
