<svg width="189" height="51" fill="none" xmlns="http://www.w3.org/2000/svg"><path d="M104.139 27.366v-3.398h8.885v8.023c-.861.828-2.114 1.554-3.756 2.186-1.639.627-3.301.94-4.986.94-2.139 0-4-.44-5.59-1.324a8.524 8.524 0 01-3.582-3.796c-.8-1.643-1.2-3.436-1.2-5.37 0-2.097.448-3.96 1.339-5.593.895-1.63 2.2-2.883 3.919-3.754 1.314-.67 2.943-1.002 4.895-1.002 2.538 0 4.524.524 5.953 1.573 1.424 1.053 2.343 2.5 2.752 4.353l-4.115.758c-.286-.987-.828-1.769-1.623-2.345-.791-.571-1.781-.857-2.972-.857-1.8 0-3.233.562-4.295 1.69-1.062 1.129-1.596 2.8-1.596 5.014 0 2.392.539 4.184 1.615 5.378 1.081 1.193 2.49 1.792 4.238 1.792.862 0 1.729-.168 2.596-.5.871-.333 1.614-.74 2.237-1.218v-2.551h-4.714v.001zm10.955 7.387V14.644h8.699c2.186 0 3.776.183 4.767.543.995.36 1.786 1.002 2.38 1.924.595.927.896 1.98.896 3.169 0 1.512-.448 2.757-1.348 3.74-.9.983-2.243 1.6-4.033 1.858.89.51 1.623 1.072 2.2 1.685.581.613 1.362 1.704 2.343 3.268l2.495 3.922h-4.938l-2.961-4.39c-1.062-1.56-1.791-2.542-2.186-2.95-.391-.402-.805-.683-1.243-.833-.442-.15-1.138-.225-2.09-.225h-.838v8.398h-4.143zm4.142-11.6h3.057c1.981 0 3.215-.083 3.71-.247a2.22 2.22 0 001.157-.852c.281-.403.419-.908.419-1.512 0-.68-.186-1.222-.553-1.644-.366-.416-.885-.678-1.552-.786-.338-.047-1.343-.07-3.014-.07h-3.224v5.111zm13.879 1.667c0-2.05.314-3.773.938-5.167a9.41 9.41 0 011.904-2.762c.805-.814 1.686-1.418 2.643-1.816 1.277-.53 2.748-.796 4.415-.796 3.018 0 5.428.922 7.243 2.762 1.809 1.844 2.714 4.404 2.714 7.686 0 3.253-.9 5.8-2.695 7.634-1.795 1.84-4.2 2.757-7.205 2.757-3.043 0-5.467-.912-7.262-2.743-1.795-1.826-2.695-4.343-2.695-7.555zm4.257-.136c0 2.28.538 4.007 1.61 5.187 1.071 1.174 2.433 1.764 4.08 1.764 1.653 0 3.005-.585 4.067-1.75 1.057-1.171 1.586-2.922 1.586-5.257 0-2.308-.514-4.03-1.548-5.164-1.028-1.137-2.395-1.703-4.105-1.703-1.704 0-3.08.576-4.123 1.722-1.044 1.152-1.568 2.883-1.568 5.2l.001.001zm17.069-10.04h4.143V25.54c0 1.731.052 2.85.152 3.36.176.824.591 1.49 1.248 1.986.662.5 1.562.748 2.705.748 1.157 0 2.033-.234 2.623-.707.59-.472.943-1.048 1.062-1.736.119-.688.181-1.826.181-3.417v-11.13h4.143v10.573c0 2.415-.109 4.124-.333 5.121-.224.997-.633 1.84-1.234 2.528-.595.688-1.395 1.231-2.395 1.638-1.004.407-2.309.613-3.924.613-1.947 0-3.423-.22-4.428-.665-1.005-.445-1.8-1.02-2.386-1.732-.586-.71-.967-1.45-1.152-2.233-.272-1.151-.405-2.855-.405-5.106V14.643zm18.878 20.108V14.644h6.624c2.51 0 4.143.098 4.905.3 1.172.303 2.153.959 2.943 1.97.791 1.011 1.186 2.317 1.186 3.918 0 1.236-.229 2.27-.681 3.113-.457.842-1.033 1.502-1.733 1.985-.7.477-1.414.796-2.138.95-.986.192-2.41.29-4.277.29h-2.685v7.583h-4.144zm4.143-16.71v5.73h2.253c1.623 0 2.705-.109 3.252-.32.548-.21.976-.537 1.286-.991.31-.45.467-.97.467-1.568 0-.735-.219-1.339-.653-1.816a2.875 2.875 0 00-1.657-.9c-.49-.088-1.476-.135-2.961-.135h-1.987z" fill="#FEFEFE"/><path fill-rule="evenodd" clip-rule="evenodd" d="M25.456 14.644h11.842c1.972 0 3.486.481 4.544 1.441 1.057.96 1.585 2.149 1.585 3.567 0 1.189-.377 2.21-1.133 3.056-.179.203-.387.39-.625.563a57.8 57.8 0 00-5.717-.891c.29-.083.523-.198.694-.346.386-.336.58-.819.58-1.45 0-.586-.194-1.044-.58-1.372-.386-.333-1.062-.497-2.02-.497h-2.8v3.354a62.46 62.46 0 00-6.37.03v-7.455zM22.584 48.96c-13.53-8.05-13.149-20.93 2.872-23.616v9.408H36.37c.467 0 1.41-.094 2.833-.276 1.072-.136 1.872-.356 2.405-.655a5.45 5.45 0 002.023-1.975c.49-.834.738-1.77.738-2.813 0-1.279-.348-2.34-1.038-3.188a4 4 0 00-.312-.339c1.304.226 2.561.499 3.748.818v.298c0 .988.196 2.12.586 3.398.244.796.691 1.569 1.348 2.318.652.748 1.376 1.324 2.167 1.731.79.407 1.776.68 2.952.815a28.61 28.61 0 003.257.206c1.72 0 3.196-.225 4.424-.67.881-.322 1.724-.875 2.529-1.666a7.235 7.235 0 001.77-2.77 9.92 9.92 0 00.568-3.362V14.644h-6.314v12.264c0 1.114-.31 1.975-.924 2.58-.619.608-1.471.912-2.553.912-1.095 0-1.952-.309-2.57-.927a2.928 2.928 0 01-.261-.298c-.176-.1-.362-.203-.558-.309-8.642-7.617-40.374-8.708-45.76 4.513-3.495 8.512 4.591 15.924 15.155 15.582v-.001zm9.243-18.533h3.224c1.09 0 1.858-.192 2.305-.571.447-.38.671-.885.671-1.526 0-.594-.218-1.072-.662-1.433-.443-.36-1.22-.542-2.329-.542h-3.21v4.072h.001zm14.942-5.75V14.643h6.314v12.264c0 .553.079 1.045.236 1.476-1.604-1.539-3.891-2.761-6.55-3.706zm23.684-10.034h9.395c1.848 0 3.348.248 4.486.74 1.138.496 2.08 1.203 2.828 2.125.743.927 1.281 1.999 1.615 3.225a14.58 14.58 0 01.505 3.895c0 2.148-.248 3.814-.748 4.999-.496 1.184-1.186 2.176-2.072 2.977-.885.8-1.833 1.334-2.847 1.601-1.386.365-2.643.548-3.767.548h-9.395V14.644zm6.314 4.55v10.981h1.552c1.324 0 2.267-.145 2.829-.43.557-.291.995-.792 1.314-1.508.32-.721.477-1.882.477-3.492 0-2.13-.353-3.585-1.063-4.372-.709-.786-1.886-1.179-3.528-1.179h-1.581z" fill="#FEFEFE"/><path fill-rule="evenodd" clip-rule="evenodd" d="M6.299 39.255c-2.513-3.627-.778-8.176 4.417-13.475 7.72-7.875 10.506-18.12.217-25.376 5.22 6.875-23.021 23.274-4.634 38.851z" fill="#FEFEFE"/><path d="M27.503 44.873c.39 0 .741.087 1.056.26.316.173.563.417.742.733.179.315.268.674.268 1.077 0 .408-.09.77-.268 1.086a1.9 1.9 0 01-.737.732c-.313.173-.666.26-1.061.26-.337 0-.64-.07-.91-.206a1.712 1.712 0 01-.667-.6v2.27h-.56v-5.58h.536v.805c.168-.268.39-.475.667-.62a1.98 1.98 0 01.934-.217zm-.04 3.66c.29 0 .553-.066.79-.199.236-.131.421-.318.555-.562.134-.242.202-.519.202-.829 0-.31-.067-.585-.202-.825a1.439 1.439 0 00-.556-.562 1.565 1.565 0 00-.788-.201 1.56 1.56 0 00-.793.2 1.444 1.444 0 00-.551.563c-.134.24-.202.515-.202.825 0 .31.067.587.202.83.134.243.318.43.551.561.234.132.498.198.793.198zm6.94-1.42h-3.47c.032.424.197.767.497 1.028.3.26.679.391 1.136.391.258 0 .494-.045.71-.135.215-.09.401-.224.56-.4l.315.357a1.774 1.774 0 01-.69.496c-.276.114-.58.17-.91.17-.427 0-.804-.089-1.133-.266a1.942 1.942 0 01-.768-.74 2.086 2.086 0 01-.277-1.07c0-.398.088-.755.264-1.07.176-.315.418-.56.726-.736a2.057 2.057 0 011.037-.264c.384 0 .728.088 1.033.264.305.175.544.42.718.732.173.313.26.67.26 1.074l-.008.17zM32.4 45.348c-.4 0-.735.125-1.005.376-.271.25-.425.577-.461.98h2.94c-.036-.403-.19-.73-.46-.98-.271-.251-.609-.376-1.014-.376zm4.755 1.821h-.946v1.814h-.56v-4.077h.56v1.79h.954l1.46-1.79h.607l-1.632 1.976 1.75 2.1h-.662l-1.53-1.813zm6.466-2.263v4.077h-.56v-3.588h-1.987L41.02 46.4c-.042.847-.142 1.499-.3 1.953-.157.455-.439.683-.843.683-.11 0-.245-.021-.402-.063l.04-.473c.094.021.16.031.196.031a.529.529 0 00.489-.294c.11-.196.184-.44.22-.729.038-.29.07-.672.095-1.147l.071-1.457h3.036zm3.02-.03c.542 0 .957.132 1.246.398.29.266.434.66.434 1.182v2.527h-.537v-.636a1.267 1.267 0 01-.556.496 1.976 1.976 0 01-.871.178c-.462 0-.83-.108-1.104-.325a1.044 1.044 0 01-.41-.86c0-.347.127-.626.382-.838.255-.212.66-.318 1.218-.318h1.317v-.248c0-.352-.1-.619-.299-.802-.2-.183-.492-.275-.875-.275-.263 0-.515.042-.757.128a1.91 1.91 0 00-.623.353l-.253-.411c.21-.176.463-.312.757-.407.295-.096.605-.144.931-.144v.001zm-.197 3.712c.316 0 .586-.071.812-.213a1.28 1.28 0 00.505-.616v-.667H46.46c-.71 0-1.065.243-1.065.729 0 .238.092.425.276.562.184.137.442.205.773.205zm8.004-3.681v4.077h-.512V45.76l-1.68 2.728h-.252l-1.68-2.736v3.232h-.512v-4.077h.568l1.759 2.937 1.79-2.937h.52zm1.593 0h.56v1.805h2.61v-1.805h.56v4.077h-.56v-1.798h-2.61v1.798h-.56v-4.077zm7.034 4.115c-.4 0-.76-.089-1.08-.267a1.967 1.967 0 01-.757-.74 2.086 2.086 0 01-.276-1.07c0-.398.092-.754.276-1.07a1.94 1.94 0 01.757-.736c.32-.175.68-.263 1.08-.263s.76.088 1.08.263c.321.176.572.421.754.737.181.315.271.671.271 1.07 0 .397-.09.754-.271 1.069a1.943 1.943 0 01-.754.74c-.32.179-.68.267-1.08.267zm0-.488c.295 0 .559-.066.793-.198.234-.132.416-.319.548-.562a1.72 1.72 0 00.197-.83c0-.31-.066-.586-.197-.829a1.391 1.391 0 00-.548-.561 1.587 1.587 0 00-.793-.198c-.294 0-.558.065-.792.198a1.412 1.412 0 00-.552.561 1.69 1.69 0 00-.202.83c0 .31.068.586.202.83.134.242.318.43.552.561.234.132.498.198.792.198zm10.039-3.627v4.077h-.56v-3.589h-2.602v3.589h-.56v-4.077h3.722zm3.73-.031c.389 0 .74.086 1.056.26.316.172.562.416.741.732.18.315.269.674.269 1.077 0 .408-.09.77-.269 1.086a1.883 1.883 0 01-.736.732c-.313.173-.667.26-1.062.26-.336 0-.64-.069-.91-.206a1.713 1.713 0 01-.667-.6v2.27h-.56v-5.58h.537v.805c.168-.268.39-.475.666-.62a1.98 1.98 0 01.934-.217zm-.04 3.658c.29 0 .552-.065.789-.197.236-.132.422-.32.556-.562a1.69 1.69 0 00.201-.83c0-.31-.066-.585-.201-.825a1.44 1.44 0 00-.556-.562 1.565 1.565 0 00-.789-.201 1.56 1.56 0 00-.792.201 1.444 1.444 0 00-.552.562c-.134.24-.201.515-.201.825 0 .31.067.587.201.83s.318.43.552.562c.234.131.498.197.792.197zm5.023.489c-.4 0-.76-.09-1.08-.267a1.967 1.967 0 01-.757-.74 2.086 2.086 0 01-.276-1.07c0-.398.092-.755.276-1.07.184-.315.437-.56.757-.736a2.218 2.218 0 011.08-.264c.4 0 .76.088 1.08.264a1.9 1.9 0 01.754.736c.181.315.272.672.272 1.07s-.09.755-.272 1.07a1.942 1.942 0 01-.753.74c-.32.178-.681.267-1.08.267zm0-.489c.295 0 .559-.065.793-.197.234-.132.416-.32.548-.562a1.72 1.72 0 00.197-.83c0-.31-.066-.587-.197-.829a1.393 1.393 0 00-.548-.562 1.588 1.588 0 00-.793-.198c-.294 0-.558.066-.792.198a1.413 1.413 0 00-.552.562 1.69 1.69 0 00-.201.83c0 .31.067.586.2.829.135.243.319.43.553.562.234.131.498.197.793.197zm3.305-3.627h.56v3.24l2.767-3.24h.497v4.078h-.56v-3.24l-2.76 3.24h-.504v-4.078zm7.357 1.953c.294.068.522.184.682.35.16.164.24.366.24.604s-.083.45-.248.636c-.165.186-.39.33-.674.43a2.777 2.777 0 01-.938.15c-.3 0-.594-.042-.883-.127a2.299 2.299 0 01-.757-.376l.19-.41c.188.139.41.247.661.325.253.077.507.116.765.116.384 0 .698-.072.942-.214.245-.142.367-.334.367-.577 0-.217-.1-.386-.3-.508-.2-.122-.473-.183-.82-.183h-.71v-.402h.679c.31 0 .56-.058.748-.175.19-.116.285-.272.285-.468 0-.218-.107-.388-.32-.512-.213-.124-.49-.186-.832-.186-.447 0-.888.11-1.324.333l-.158-.426a3.33 3.33 0 011.537-.38c.316 0 .601.045.856.136.256.09.455.218.6.383a.846.846 0 01.216.574.8.8 0 01-.217.55c-.144.16-.34.28-.587.357zm4.834.016c.562.13.843.463.843 1 0 .357-.134.63-.402.822-.268.191-.667.286-1.198.286H94.68v-4.077h1.83c.473 0 .843.09 1.111.272a.88.88 0 01.402.775.896.896 0 01-.185.57 1.102 1.102 0 01-.517.352zm-2.098-.154h1.246c.32 0 .566-.06.737-.179a.594.594 0 00.257-.52c0-.226-.086-.397-.257-.51-.17-.114-.416-.172-.737-.172h-1.246v1.38zm1.317 1.829c.358 0 .626-.057.804-.17.18-.114.269-.293.269-.536 0-.243-.082-.422-.245-.538-.162-.117-.42-.174-.773-.174h-1.371v1.418h1.317zm4.645.473c-.4 0-.76-.09-1.081-.267a1.97 1.97 0 01-.756-.74 2.086 2.086 0 01-.277-1.07c0-.398.092-.755.277-1.07a1.94 1.94 0 01.756-.737 2.217 2.217 0 011.081-.263c.4 0 .76.088 1.08.263.321.176.572.421.754.737.181.315.271.672.271 1.07s-.09.754-.271 1.07a1.95 1.95 0 01-.754.74c-.32.178-.681.267-1.08.267zm0-.489c.294 0 .558-.066.793-.198a1.39 1.39 0 00.548-.562 1.72 1.72 0 00.196-.83c0-.31-.065-.586-.196-.829a1.394 1.394 0 00-.548-.561 1.593 1.593 0 00-.793-.198 1.58 1.58 0 00-.793.198 1.411 1.411 0 00-.552.561 1.69 1.69 0 00-.2.83c0 .31.066.586.2.83.134.242.318.43.552.561.235.132.499.198.793.198zm7.325-.031v1.465h-.528v-.984h-3.714v.984h-.528v-1.465h.236c.279-.015.468-.217.568-.604.099-.388.168-.93.205-1.628l.055-1.364h3.059v3.596h.647zm-3.248-2.202a9.879 9.879 0 01-.15 1.43c-.074.375-.205.632-.394.771h2.586v-3.108h-1.994l-.047.907h-.001zm6.072 2.72c-.41 0-.777-.087-1.1-.263a1.919 1.919 0 01-.761-.74 2.103 2.103 0 01-.276-1.074c0-.398.092-.754.276-1.07.184-.315.437-.56.761-.736a2.27 2.27 0 011.1-.263c.358 0 .677.068.958.205.281.137.503.337.667.6l-.418.28a1.307 1.307 0 00-.521-.453 1.563 1.563 0 00-.686-.151c-.299 0-.568.065-.808.198a1.4 1.4 0 00-.56.561 1.69 1.69 0 00-.201.83c0 .315.067.593.201.833s.321.427.56.558c.24.132.509.198.808.198a1.6 1.6 0 00.686-.148c.21-.097.384-.247.521-.449l.418.28a1.577 1.577 0 01-.67.6 2.178 2.178 0 01-.955.206v-.001zm5.543-3.626h-1.569v3.588h-.56v-3.588h-1.569v-.489h3.698v.489zm3.455 1.48c.562.13.843.463.843 1 0 .357-.134.63-.402.822-.268.191-.667.286-1.198.286h-1.885v-4.077h1.83c.473 0 .843.09 1.111.272a.88.88 0 01.402.775.9.9 0 01-.185.57 1.105 1.105 0 01-.517.352h.001zm-2.098-.154h1.246c.321 0 .566-.06.737-.179a.594.594 0 00.257-.52c0-.226-.086-.397-.257-.51-.171-.114-.416-.172-.737-.172h-1.246v1.38zm1.317 1.829c.358 0 .626-.057.804-.17.179-.114.269-.293.269-.536 0-.243-.082-.422-.245-.538-.162-.117-.42-.174-.773-.174h-1.371v1.418h1.317-.001zm6.561-1.434h-3.469c.031.423.196.766.497 1.026.299.261.678.392 1.135.392.257 0 .494-.045.71-.136a1.55 1.55 0 00.559-.399l.316.357a1.774 1.774 0 01-.69.496 2.38 2.38 0 01-.911.17c-.426 0-.803-.089-1.132-.266a1.949 1.949 0 01-.769-.74 2.09 2.09 0 01-.276-1.07c0-.398.088-.755.264-1.07a1.9 1.9 0 01.726-.737 2.058 2.058 0 011.037-.263c.384 0 .728.088 1.033.263.305.176.544.42.718.733.174.313.26.67.26 1.074l-.008.17zm-2.003-1.768c-.4 0-.735.125-1.005.376-.271.25-.425.578-.461.98h2.941c-.037-.403-.191-.73-.461-.98-.271-.25-.609-.376-1.014-.376zm3.249-.441h.56v1.806h2.61v-1.806h.56v4.077h-.56v-1.798h-2.61v1.798h-.56v-4.077zm5.323 0h.56v1.806h2.61v-1.806h.56v4.077h-.56v-1.798h-2.61v1.798h-.56v-4.077zm6.75-.031c.541 0 .957.133 1.246.399.289.266.434.66.434 1.181v2.527h-.537v-.635a1.267 1.267 0 01-.556.496 1.978 1.978 0 01-.871.178c-.463 0-.831-.109-1.105-.326a1.045 1.045 0 01-.41-.86c0-.346.127-.625.383-.837.254-.212.661-.319 1.218-.319h1.317v-.247c0-.352-.1-.62-.299-.803-.2-.183-.492-.274-.876-.274a2.25 2.25 0 00-.756.127c-.243.085-.45.203-.624.353l-.252-.41c.21-.176.463-.312.757-.408.295-.095.605-.143.931-.143zm-.197 3.713c.316 0 .586-.071.812-.213.226-.142.394-.347.504-.616v-.667h-1.3c-.71 0-1.065.243-1.065.729 0 .238.092.425.276.562.184.136.442.205.773.205zm6.553-3.682v4.078h-.512v-1.349h-1.46l-.961 1.349h-.607l1.033-1.427c-.321-.087-.568-.238-.741-.45-.174-.211-.26-.48-.26-.805 0-.455.157-.801.473-1.039.315-.238.747-.356 1.293-.356h1.743-.001zm-2.941 1.41c0 .605.391.908 1.175.908h1.254v-1.83h-1.215c-.809 0-1.214.308-1.214.923zm8.106.853h-.946v1.814h-.56v-4.077h.56v1.79h.954l1.459-1.79h.608l-1.632 1.976 1.75 2.101h-.662l-1.53-1.814h-.001zm4.638 1.853c-.4 0-.76-.09-1.081-.267a1.97 1.97 0 01-.757-.74 2.09 2.09 0 01-.276-1.07c0-.398.092-.755.276-1.07.184-.315.437-.56.757-.736a2.217 2.217 0 011.081-.264c.399 0 .759.089 1.08.264.321.176.571.42.753.736.181.315.272.672.272 1.07s-.091.755-.272 1.07a1.94 1.94 0 01-.753.74 2.188 2.188 0 01-1.08.267zm0-.488c.294 0 .558-.066.792-.198a1.39 1.39 0 00.548-.562 1.72 1.72 0 00.197-.83c0-.31-.066-.586-.197-.829a1.394 1.394 0 00-.548-.562 1.586 1.586 0 00-.792-.198c-.295 0-.559.066-.793.198a1.412 1.412 0 00-.552.562 1.69 1.69 0 00-.201.83c0 .31.067.586.201.829s.318.43.552.562c.234.131.498.198.793.198zm7.94-3.628v4.078h-.512V45.76l-1.679 2.728h-.253l-1.679-2.736v3.232h-.513v-4.078h.568l1.759 2.938 1.789-2.938h.521-.001zm5.316 0v4.078h-.56v-3.59h-2.602v3.59h-.56v-4.078h3.722zm3.02-.03c.541 0 .956.132 1.246.398.289.267.433.66.433 1.182v2.527h-.536v-.635a1.269 1.269 0 01-.557.495 1.972 1.972 0 01-.871.178c-.462 0-.83-.108-1.104-.325a1.043 1.043 0 01-.41-.86c0-.347.127-.626.382-.838.255-.212.661-.318 1.218-.318h1.317v-.248c0-.351-.099-.619-.299-.802-.2-.183-.491-.275-.875-.275-.263 0-.515.043-.757.128s-.45.203-.623.353l-.252-.411c.21-.175.462-.312.757-.407.294-.096.604-.144.93-.144l.001.001zm-.197 3.712c.315 0 .586-.07.812-.213.226-.142.394-.347.504-.616v-.666h-1.301c-.71 0-1.065.243-1.065.728 0 .238.093.425.277.562.184.137.441.206.773.206zm3.367-3.681h.56v1.806h2.61v-1.806h.56v4.077h-.56v-1.798h-2.61v1.798h-.56v-4.077zm5.323 0h.56v3.24l2.767-3.24h.497v4.077h-.559v-3.24l-2.76 3.24h-.505v-4.077zm8.611 0v4.077h-.513v-1.348H187l-.962 1.348h-.607l1.034-1.426c-.321-.088-.569-.238-.742-.45-.173-.212-.26-.48-.26-.806 0-.454.158-.8.474-1.038.315-.238.746-.357 1.293-.357h1.742zm-2.942 1.41c0 .605.392.907 1.175.907h1.254v-1.83h-1.214c-.81 0-1.214.308-1.214.923h-.001zm-119.97.326h2.065v.48h-2.066v-.48z" fill="#FEFEFE"/></svg>