<svg width="126" height="73" fill="none" xmlns="http://www.w3.org/2000/svg"><path d="M0 10C0 4.477 4.477 0 10 0h106c5.523 0 10 4.477 10 10v31c0 5.523-4.477 10-10 10H10C4.477 51 0 46.523 0 41V10z" fill="#E41D37"/><path d="M24.955 71.939l-8.544-26.337 18.75.599-10.206 25.738z" fill="#E41D37"/><path d="M68.274 26.612v-1.967h5.057v4.645c-.49.48-1.203.9-2.138 1.266a7.765 7.765 0 01-2.838.545c-1.217 0-2.276-.255-3.182-.767a4.902 4.902 0 01-2.038-2.199c-.455-.95-.683-1.989-.683-3.108 0-1.215.255-2.294.762-3.24a5.159 5.159 0 012.23-2.173c.748-.388 1.676-.58 2.787-.58 1.445 0 2.575.303 3.388.91.81.61 1.334 1.448 1.566 2.521l-2.341.44a2.476 2.476 0 00-.925-1.359c-.45-.33-1.013-.496-1.691-.496-1.024 0-1.84.326-2.445.979-.604.653-.908 1.62-.908 2.903 0 1.385.307 2.423.92 3.114.614.69 1.416 1.038 2.411 1.038a4.06 4.06 0 001.478-.29 4.99 4.99 0 001.273-.705v-1.477h-2.683zm6.235 4.278V19.245h4.952c1.244 0 2.15.106 2.713.314.566.209 1.016.58 1.355 1.114.339.537.51 1.146.51 1.835 0 .875-.255 1.596-.767 2.166-.513.569-1.277.927-2.296 1.076.507.295.924.62 1.252.975.33.355.775.987 1.334 1.892l1.42 2.272h-2.81l-1.686-2.543c-.605-.902-1.02-1.472-1.244-1.708a1.816 1.816 0 00-.708-.482c-.252-.087-.648-.13-1.19-.13h-.476v4.863H74.51zm2.358-6.717h1.74c1.128 0 1.83-.049 2.112-.144.279-.095.501-.26.658-.493.16-.233.239-.526.239-.875 0-.393-.106-.708-.315-.952-.208-.241-.504-.393-.883-.455-.193-.027-.765-.04-1.716-.04h-1.835v2.959zm7.9.965c0-1.187.178-2.185.534-2.992a5.455 5.455 0 011.083-1.6c.459-.47.96-.82 1.505-1.05.726-.307 1.564-.462 2.512-.462 1.719 0 3.09.534 4.123 1.6 1.03 1.067 1.545 2.55 1.545 4.45 0 1.884-.513 3.358-1.534 4.42-1.022 1.066-2.39 1.597-4.101 1.597-1.732 0-3.111-.528-4.133-1.588-1.022-1.057-1.535-2.515-1.535-4.375zm2.423-.079c0 1.32.306 2.32.916 3.003.61.68 1.385 1.022 2.322 1.022.94 0 1.71-.339 2.315-1.014.602-.677.903-1.691.903-3.043 0-1.337-.293-2.334-.881-2.99-.585-.659-1.363-.987-2.337-.987-.97 0-1.753.334-2.347.998-.594.667-.892 1.67-.892 3.011zm9.715-5.814h2.358v6.31c0 1.003.03 1.65.087 1.946.1.477.336.862.71 1.15.377.29.889.433 1.539.433.659 0 1.158-.135 1.494-.41a1.61 1.61 0 00.604-1.005c.068-.398.103-1.057.103-1.978v-6.445h2.358v6.122c0 1.398-.062 2.388-.189 2.965-.128.577-.361 1.065-.703 1.464-.338.398-.794.713-1.363.948-.572.236-1.314.355-2.233.355-1.109 0-1.949-.127-2.52-.385-.573-.257-1.025-.59-1.359-1.002a3.198 3.198 0 01-.656-1.293c-.154-.667-.23-1.654-.23-2.957v-6.218zM107.65 30.89V19.246h3.77c1.429 0 2.359.056 2.792.173.667.176 1.225.555 1.675 1.141.45.586.675 1.342.675 2.269 0 .715-.13 1.314-.387 1.802a3.22 3.22 0 01-.987 1.15 3.397 3.397 0 01-1.217.55c-.561.111-1.371.168-2.434.168h-1.529v4.39h-2.358zm2.358-9.676v3.318h1.282c.924 0 1.54-.063 1.852-.185.311-.122.555-.311.732-.574.176-.26.265-.561.265-.908 0-.425-.124-.775-.371-1.052a1.632 1.632 0 00-.943-.52c-.28-.052-.841-.079-1.686-.079h-1.131z" fill="#FEFEFE"/><path fill-rule="evenodd" clip-rule="evenodd" d="M23.49 19.245h6.74c1.122 0 1.984.28 2.585.835.602.556.903 1.244.903 2.065 0 .689-.215 1.28-.645 1.77-.102.117-.22.226-.356.326a32.396 32.396 0 00-3.254-.516c.166-.048.298-.115.395-.2.22-.195.33-.475.33-.84 0-.34-.11-.605-.33-.795-.22-.192-.604-.287-1.15-.287h-1.593v1.942a34.905 34.905 0 00-3.626.017v-4.317zm-1.636 19.87c-7.7-4.66-7.484-12.119 1.635-13.674v5.448h6.212c.266 0 .803-.055 1.613-.16.61-.079 1.065-.206 1.368-.38a3.12 3.12 0 001.152-1.143 3.19 3.19 0 00.42-1.629c0-.74-.198-1.355-.59-1.846a2.28 2.28 0 00-.178-.196c.742.13 1.458.289 2.133.473v.173c0 .572.111 1.228.334 1.968.138.46.393.908.767 1.342a4.17 4.17 0 001.233 1.002c.45.236 1.011.394 1.68.472.67.079 1.288.12 1.854.12.979 0 1.82-.131 2.518-.388.502-.187.981-.507 1.44-.965a4.2 4.2 0 001.008-1.605c.214-.61.322-1.26.322-1.946v-6.936h-3.594v7.102c0 .645-.176 1.143-.525 1.493-.353.352-.838.529-1.453.529-.623 0-1.111-.18-1.464-.537a1.681 1.681 0 01-.148-.173c-.1-.058-.206-.117-.317-.178-4.92-4.411-22.98-5.043-26.047 2.612-1.989 4.93 2.614 9.221 8.627 9.023zm5.262-10.73h1.835c.62 0 1.057-.112 1.311-.331.255-.22.382-.513.382-.884 0-.344-.124-.62-.376-.83-.253-.208-.694-.314-1.326-.314h-1.827v2.358zm8.504-3.33v-5.81h3.594v7.101c0 .32.045.605.134.855-.913-.891-2.215-1.599-3.728-2.146zm13.48-5.81h5.348c1.052 0 1.905.143 2.553.428a4.2 4.2 0 011.61 1.23c.423.537.73 1.158.92 1.868.192.71.287 1.461.287 2.255 0 1.244-.141 2.21-.426 2.895a4.769 4.769 0 01-1.18 1.724c-.503.463-1.043.772-1.62.927-.789.211-1.504.317-2.144.317h-5.347V19.245zm3.594 2.634v6.359h.884c.753 0 1.29-.084 1.61-.25.317-.168.566-.458.748-.872.182-.418.271-1.09.271-2.022 0-1.233-.2-2.076-.605-2.532-.403-.455-1.073-.683-2.008-.683h-.9z" fill="#FEFEFE"/><path fill-rule="evenodd" clip-rule="evenodd" d="M12.585 33.496c-1.43-2.1-.443-4.734 2.514-7.802 4.394-4.56 5.98-10.492.124-14.694 2.971 3.98-13.103 13.477-2.638 22.496z" fill="#FEFEFE"/><path d="M24.654 36.75c.222 0 .422.05.602.15.18.1.32.242.422.424.101.183.153.39.153.624 0 .236-.052.446-.153.629a1.081 1.081 0 01-.42.424c-.178.1-.379.15-.604.15a1.12 1.12 0 01-.518-.119.982.982 0 01-.38-.348V40h-.318v-3.231h.305v.466a.982.982 0 01.38-.359c.157-.084.334-.126.531-.126zm-.022 2.118a.891.891 0 00.449-.114.808.808 0 00.317-.326.99.99 0 00.114-.48.974.974 0 00-.114-.478.827.827 0 00-.317-.325.88.88 0 00-.449-.117.876.876 0 00-.45.117.83.83 0 00-.315.325.978.978 0 00-.114.478c0 .18.038.34.114.48.076.141.181.25.314.326a.891.891 0 00.451.114zm3.95-.821h-1.975a.842.842 0 00.283.595c.17.15.386.226.646.226.147 0 .282-.026.404-.078a.884.884 0 00.319-.231l.18.206a1.01 1.01 0 01-.393.287c-.158.066-.33.1-.519.1-.242 0-.457-.053-.644-.155a1.113 1.113 0 01-.438-.43 1.224 1.224 0 01-.157-.618c0-.231.05-.438.15-.62.1-.182.239-.325.414-.426.174-.102.372-.153.59-.153.218 0 .414.051.588.153.173.101.31.243.408.424.1.18.149.388.149.622l-.005.098zm-1.14-1.023a.801.801 0 00-.572.217.854.854 0 00-.263.568h1.674a.854.854 0 00-.262-.568.808.808 0 00-.577-.217zm2.706 1.054h-.538v1.05h-.319v-2.36h.319v1.036h.543l.83-1.036h.346l-.929 1.144.996 1.217h-.377l-.87-1.05zm3.68-1.31v2.36h-.318v-2.077h-1.131l-.031.583c-.025.49-.081.868-.171 1.131-.09.263-.25.395-.48.395a.915.915 0 01-.229-.036l.023-.274a.6.6 0 00.111.018.3.3 0 00.279-.17 1.17 1.17 0 00.126-.422c.02-.168.038-.39.053-.664l.04-.844h1.729zm1.72-.018c.308 0 .544.077.709.231.165.154.247.382.247.684v1.464h-.306v-.368a.726.726 0 01-.316.287 1.11 1.11 0 01-.496.103c-.263 0-.473-.063-.629-.189a.608.608 0 01-.233-.498c0-.2.072-.362.218-.485.145-.123.376-.184.693-.184h.75v-.143c0-.204-.057-.359-.17-.465-.115-.106-.28-.159-.499-.159-.15 0-.293.025-.43.074-.139.05-.257.117-.356.204l-.143-.238c.12-.101.263-.18.43-.235.168-.056.345-.084.53-.084v.001zm-.113 2.15a.84.84 0 00.463-.123.735.735 0 00.287-.357v-.386h-.74c-.405 0-.607.14-.607.422 0 .138.053.246.157.325.105.08.252.12.44.12zm4.556-2.132v2.361H39.7v-1.867l-.956 1.58H38.6l-.956-1.584v1.871h-.291v-2.36h.323l1 1.7 1.02-1.7h.296zm.907 0h.319v1.046h1.485v-1.046h.319v2.361h-.319v-1.041h-1.485v1.041h-.319v-2.36zm4.004 2.383c-.228 0-.433-.051-.616-.154a1.13 1.13 0 01-.43-.429 1.225 1.225 0 01-.157-.62c0-.23.052-.436.157-.618a1.11 1.11 0 01.43-.427c.183-.102.388-.153.616-.153.227 0 .432.051.614.153a1.1 1.1 0 01.43.427c.102.182.154.388.154.619 0 .23-.052.437-.155.62a1.115 1.115 0 01-.429.428 1.228 1.228 0 01-.614.154zm0-.282a.888.888 0 00.45-.115.797.797 0 00.313-.325c.074-.141.112-.301.112-.48 0-.18-.038-.34-.112-.48a.798.798 0 00-.312-.326.891.891 0 00-.451-.115.888.888 0 00-.452.115.811.811 0 00-.314.325.992.992 0 00-.114.48c0 .18.038.34.114.48.076.142.181.25.314.326a.891.891 0 00.452.115zm5.713-2.1v2.36h-.318v-2.078h-1.482v2.078h-.318v-2.36h2.118zm2.123-.019c.222 0 .422.05.602.15.18.1.32.242.421.425.102.182.153.39.153.624 0 .236-.05.446-.153.628a1.081 1.081 0 01-.419.424c-.178.1-.38.15-.604.15-.191 0-.364-.04-.518-.118a.98.98 0 01-.38-.348V40h-.318v-3.232h.305v.467a.982.982 0 01.38-.36c.157-.083.334-.125.531-.125zm-.022 2.119a.89.89 0 00.449-.115.807.807 0 00.316-.325.99.99 0 00.115-.48.974.974 0 00-.115-.478.827.827 0 00-.316-.325.879.879 0 00-.45-.117.877.877 0 00-.45.116.83.83 0 00-.314.326.977.977 0 00-.115.478c0 .18.038.34.115.48a.8.8 0 00.314.325.891.891 0 00.45.115zm2.859.283c-.228 0-.433-.052-.615-.155a1.128 1.128 0 01-.43-.428 1.224 1.224 0 01-.158-.62c0-.23.052-.437.157-.62a1.12 1.12 0 01.43-.426c.183-.101.388-.152.616-.152.227 0 .432.05.615.152a1.1 1.1 0 01.429.427c.103.182.154.389.154.62 0 .23-.051.436-.154.618a1.116 1.116 0 01-.43.43 1.228 1.228 0 01-.614.154zm0-.283a.888.888 0 00.451-.115.797.797 0 00.312-.325c.075-.14.112-.3.112-.48s-.037-.34-.112-.48a.8.8 0 00-.312-.326.89.89 0 00-.451-.114.888.888 0 00-.451.114.811.811 0 00-.314.326.991.991 0 00-.115.48c0 .18.038.34.115.48a.81.81 0 00.314.325.89.89 0 00.451.115zm1.88-2.1h.32v1.876l1.575-1.876h.282v2.36h-.318v-1.875l-1.571 1.876h-.287v-2.361zm4.188 1.13a.758.758 0 01.388.203.488.488 0 01.138.35c0 .137-.048.26-.142.368a.904.904 0 01-.384.249 1.714 1.714 0 01-1.036.013 1.3 1.3 0 01-.431-.217l.108-.238c.107.08.233.143.376.188.144.045.29.067.436.067.218 0 .397-.04.536-.123.14-.083.209-.194.209-.334a.329.329 0 00-.17-.294c-.115-.07-.27-.106-.468-.106H60.8v-.233h.386a.792.792 0 00.427-.102c.107-.067.161-.157.161-.27 0-.127-.06-.225-.181-.297a.923.923 0 00-.474-.108c-.254 0-.505.064-.754.193l-.09-.247a1.87 1.87 0 01.876-.22c.18 0 .342.026.487.079a.79.79 0 01.34.222.495.495 0 010 .651.732.732 0 01-.334.206zm2.751.01c.32.075.48.268.48.579a.553.553 0 01-.228.476c-.153.11-.38.166-.682.166H62.89v-2.361h1.041c.27 0 .48.052.633.157a.512.512 0 01.229.449.524.524 0 01-.106.33.627.627 0 01-.294.204zm-1.193-.09h.709c.182 0 .322-.034.42-.103a.346.346 0 00.145-.3.334.334 0 00-.146-.297c-.097-.066-.237-.099-.42-.099h-.708v.8zm.75 1.06c.203 0 .355-.034.457-.1.102-.065.153-.169.153-.309 0-.14-.047-.245-.14-.312-.092-.067-.239-.1-.44-.1h-.78v.82h.75zm2.643.273c-.227 0-.432-.052-.615-.154a1.13 1.13 0 01-.43-.43 1.224 1.224 0 01-.158-.618c0-.231.052-.438.157-.62a1.12 1.12 0 01.43-.426c.184-.102.389-.153.616-.153.228 0 .432.051.615.153.182.101.325.243.429.426.103.183.154.389.154.62 0 .23-.051.436-.154.619a1.116 1.116 0 01-.43.429 1.228 1.228 0 01-.614.154zm0-.283a.888.888 0 00.451-.114.799.799 0 00.312-.326c.075-.14.112-.3.112-.48s-.037-.34-.112-.48a.8.8 0 00-.312-.325.892.892 0 00-.451-.115.888.888 0 00-.451.114.812.812 0 00-.314.326.993.993 0 00-.115.48c0 .18.038.34.115.48.076.141.18.25.314.326a.892.892 0 00.451.114zm4.17-.018v.849h-.301v-.57h-2.114v.57h-.3v-.849h.134c.158-.008.266-.125.323-.35.056-.224.095-.538.116-.942l.032-.79h1.741v2.082h.368zm-1.85-1.274a5.877 5.877 0 01-.085.828c-.042.216-.116.365-.224.446h1.472v-1.8h-1.135l-.027.525zm3.457 1.575a1.27 1.27 0 01-.626-.153 1.104 1.104 0 01-.434-.428 1.237 1.237 0 01-.157-.622c0-.23.052-.437.157-.62.105-.182.25-.324.434-.426.184-.102.392-.153.626-.153.203 0 .385.04.545.12.16.078.286.195.38.347l-.238.162a.747.747 0 00-.297-.263.88.88 0 00-.39-.087.922.922 0 00-.46.114.804.804 0 00-.319.326.993.993 0 00-.114.48.99.99 0 00.114.483.813.813 0 00.319.323c.136.076.29.114.46.114.14 0 .27-.028.39-.085a.726.726 0 00.297-.26l.237.161a.901.901 0 01-.381.348 1.21 1.21 0 01-.543.12v-.001zm3.155-2.1h-.894v2.078h-.318v-2.08h-.893v-.282h2.104v.282zm1.966.857c.32.075.48.268.48.579a.553.553 0 01-.229.476c-.152.11-.38.166-.682.166h-1.073v-2.361h1.042c.27 0 .48.052.632.157a.512.512 0 01.23.449.525.525 0 01-.106.33.628.628 0 01-.294.204zm-1.194-.09h.71c.182 0 .322-.034.419-.103a.346.346 0 00.146-.3.334.334 0 00-.146-.297c-.097-.066-.237-.099-.42-.099h-.709v.8zm.75 1.06c.203 0 .356-.034.457-.1.102-.065.153-.169.153-.309 0-.14-.046-.245-.139-.312-.093-.067-.24-.1-.44-.1h-.78v.82h.749zm3.734-.831h-1.975a.842.842 0 00.283.594c.17.152.386.227.646.227.147 0 .282-.026.404-.078a.884.884 0 00.319-.231l.18.206a1.01 1.01 0 01-.393.287c-.157.066-.33.1-.519.1-.242 0-.457-.053-.644-.155a1.114 1.114 0 01-.438-.43 1.224 1.224 0 01-.157-.618c0-.231.05-.438.15-.62.1-.182.239-.325.414-.426a1.15 1.15 0 01.59-.153c.219 0 .414.051.588.153.173.101.31.243.408.424.1.18.149.388.149.621l-.005.1v-.001zm-1.14-1.023a.8.8 0 00-.572.217.854.854 0 00-.263.568h1.674a.854.854 0 00-.262-.568.808.808 0 00-.577-.217zm1.85-.256h.318v1.046h1.486v-1.046h.318v2.36h-.318v-1.04H81.81v1.04h-.319v-2.36zm3.029 0h.319v1.046h1.485v-1.046h.319v2.36h-.319v-1.04H84.84v1.04h-.32v-2.36zm3.842-.018c.308 0 .544.077.71.231.164.154.246.382.246.684v1.464h-.306v-.368a.725.725 0 01-.316.287 1.11 1.11 0 01-.496.103c-.263 0-.473-.063-.628-.189a.608.608 0 01-.234-.498c0-.2.072-.362.218-.485.145-.122.376-.184.693-.184H89v-.143c0-.204-.057-.359-.17-.465-.114-.106-.28-.159-.499-.159-.15 0-.293.024-.43.074a1.066 1.066 0 00-.355.204l-.144-.238c.12-.101.263-.18.431-.236a1.68 1.68 0 01.53-.083v.001zm-.112 2.15a.84.84 0 00.462-.123.735.735 0 00.287-.357v-.386h-.74c-.404 0-.606.14-.606.422 0 .138.052.246.157.325.104.08.251.12.44.12zm3.73-2.132v2.361h-.292v-.78h-.83l-.548.78h-.346l.589-.826a.796.796 0 01-.422-.26.72.72 0 01-.148-.467c0-.263.09-.464.27-.601.178-.138.424-.206.735-.206h.992zm-1.674.817c0 .35.222.525.668.525h.714v-1.06h-.691c-.461 0-.691.179-.691.535zm4.614.494h-.539v1.05h-.319v-2.361h.32v1.037h.542l.83-1.037h.346l-.929 1.145.996 1.216h-.376l-.871-1.05zm2.639 1.073a1.23 1.23 0 01-.615-.155 1.13 1.13 0 01-.43-.429 1.225 1.225 0 01-.158-.62c0-.23.052-.436.157-.619.105-.182.249-.324.43-.426.184-.102.388-.153.616-.153.227 0 .433.051.615.153.183.102.325.244.429.426.103.183.154.39.154.62 0 .23-.051.437-.154.62a1.115 1.115 0 01-.43.428 1.228 1.228 0 01-.614.155zm0-.283a.888.888 0 00.451-.115.798.798 0 00.312-.325c.075-.141.112-.301.112-.48a1 1 0 00-.112-.48.8.8 0 00-.312-.326.891.891 0 00-.451-.115.888.888 0 00-.451.115.81.81 0 00-.314.325.992.992 0 00-.115.48c0 .18.038.34.115.48a.81.81 0 00.314.326.891.891 0 00.451.115zm4.52-2.1v2.36h-.292v-1.867l-.956 1.58h-.143l-.956-1.584v1.871h-.292v-2.36h.323l1.001 1.7 1.019-1.7h.296zm3.025 0v2.36h-.318v-2.078h-1.482v2.078h-.318v-2.36h2.118zm1.719-.019c.308 0 .545.077.709.232.165.154.247.382.247.684v1.463h-.305v-.368a.732.732 0 01-.317.287 1.107 1.107 0 01-.496.103c-.263 0-.473-.063-.628-.188a.608.608 0 01-.234-.499c0-.2.073-.362.218-.484.145-.123.376-.185.693-.185h.75v-.143c0-.204-.057-.359-.17-.465-.114-.106-.28-.159-.499-.159a1.27 1.27 0 00-.43.074c-.138.05-.256.118-.355.204l-.144-.238c.12-.1.264-.18.431-.235.168-.056.344-.083.53-.083zm-.112 2.15a.84.84 0 00.462-.123.734.734 0 00.287-.357v-.386h-.74c-.404 0-.606.141-.606.422 0 .138.052.246.157.326.105.079.251.118.44.118zm1.916-2.131h.319v1.045h1.486V36.77h.318v2.36h-.318v-1.04h-1.486v1.04h-.319v-2.36zm3.03 0h.319v1.876l1.575-1.876h.283v2.36h-.318v-1.876l-1.571 1.877h-.288V36.77zm4.901 0v2.36h-.291v-.78h-.831l-.547.78h-.346l.588-.825a.801.801 0 01-.422-.26.725.725 0 01-.148-.467c0-.264.09-.464.27-.602.179-.138.425-.206.736-.206h.992-.001zm-1.674.816c0 .35.223.526.669.526h.714v-1.06h-.691c-.461 0-.691.178-.691.534h-.001zm-68.285.189h1.176v.278H46.6v-.278z" fill="#FEFEFE"/></svg>