<svg width="26" height="25" viewBox="0 0 26 25" fill="none" xmlns="http://www.w3.org/2000/svg">
<path d="M11.9111 10.0851C10.6411 11.0589 10.1733 12.3759 10.389 13.9284C10.5363 14.9933 11.5678 15.2501 12.2939 14.8764C12.8013 14.6166 13.1446 14.1973 13.4226 13.7173C13.7203 13.2008 13.8935 12.6433 13.9756 12.0524C14.0849 11.2655 14.208 10.4816 14.3265 9.6856C13.5138 9.43799 12.5734 9.57623 11.9111 10.0851Z" fill="white"/>
<path d="M24.9024 2.70399C24.6001 1.27908 23.4577 0.232419 22.013 0.0546852C21.9508 0.0470898 21.8915 0.0182292 21.8292 0C15.607 0 9.38631 0 3.16409 0C3.01522 0.031901 2.86484 0.0653187 2.71597 0.0972197C1.13155 0.439016 0.0104547 1.7743 0.00741652 3.38606C-0.00169806 9.46852 -0.00321716 15.551 0.00741652 21.6319C0.0104547 23.3652 1.29865 24.7597 3.03042 24.9633C3.17625 24.98 3.32208 24.9982 3.46791 24.9982C9.48505 24.9998 15.5022 25.0013 21.5193 24.9982C23.1357 24.9982 24.4755 23.9774 24.8705 22.4538C24.9236 22.2517 24.9586 22.0436 25.0026 21.84C25.0026 15.6178 25.0026 9.39713 25.0026 3.17491C24.9707 3.01692 24.9358 2.86046 24.9024 2.70399ZM21.0135 13.9316C20.4636 15.3019 19.5536 16.35 18.1378 16.8847C17.3433 17.1855 16.52 17.2919 15.6845 17.0792C14.8475 16.8665 14.3917 16.2847 14.2186 15.4598C14.1958 15.3505 14.1791 15.2381 14.1517 15.0785C14.0636 15.2001 13.9998 15.2851 13.9406 15.3717C13.5031 16.0128 12.9592 16.5399 12.2377 16.8422C11.1454 17.2995 10.0502 17.3724 9.00654 16.7101C8.30472 16.265 7.91887 15.5844 7.75633 14.7914C7.25654 12.3639 8.36396 9.5703 10.7505 8.23958C11.75 7.68207 12.8347 7.44205 13.9755 7.45116C14.9204 7.45876 15.841 7.60611 16.7281 7.93728C17.1261 8.08615 17.1276 8.08767 17.0608 8.50086C16.8132 10.0291 16.5519 11.5558 16.321 13.0855C16.2481 13.5625 16.2055 14.0547 16.2298 14.5347C16.2709 15.2958 16.7585 15.5859 17.4846 15.3338C18.0528 15.1378 18.4508 14.7367 18.7667 14.2446C19.2361 13.5124 19.4503 12.6936 19.543 11.8398C19.6432 10.9086 19.6114 9.98198 19.3698 9.07204C18.9141 7.35394 17.9236 6.05056 16.283 5.32291C12.8377 3.7947 8.31991 4.95073 6.36028 8.93988C5.67365 10.3374 5.41084 11.8246 5.47009 13.3756C5.50199 14.2385 5.63415 15.0801 5.92885 15.8913C6.43167 17.2767 7.29908 18.3704 8.58424 19.1148C9.76457 19.7984 11.0512 20.0566 12.4002 20.0505C13.5486 20.0445 14.6652 19.8591 15.7331 19.4262C15.8956 19.3609 16.0536 19.2849 16.2359 19.2029C16.3969 19.7163 16.5549 20.2237 16.7205 20.7539C16.4957 20.8466 16.2815 20.9423 16.0627 21.0258C15.0085 21.4268 13.9147 21.6426 12.7876 21.6912C12.7283 21.6942 12.6691 21.7109 12.6098 21.7216C12.1587 21.7216 11.709 21.7216 11.2578 21.7216C10.9145 21.676 10.5712 21.638 10.2294 21.5818C6.8798 21.0228 4.32469 18.6059 3.62742 15.2943C2.87851 11.732 4.09075 7.61827 7.19426 5.15581C8.49764 4.12131 9.97876 3.47721 11.6179 3.20225C13.3284 2.91666 15.0222 2.97439 16.6537 3.60178C19.3121 4.62565 20.939 6.53971 21.4525 9.347C21.7381 10.9101 21.6074 12.452 21.0135 13.9316Z" fill="white"/>
</svg>
